<svg width="1262" height="96" viewBox="0 0 1262 96" fill="none" xmlns="http://www.w3.org/2000/svg">
<g opacity="0.12">
<mask id="mask0_1214_16229" style="mask-type:alpha" maskUnits="userSpaceOnUse" x="407" y="17" width="115" height="115">
<rect x="407.367" y="132" width="114.096" height="114.096" transform="rotate(-90 407.367 132)" fill="#ED1C34"/>
</mask>
<g mask="url(#mask0_1214_16229)">
<rect x="388.742" y="89.5898" width="5.18382" height="89.0938" transform="rotate(-45 388.742 89.5898)" fill="#667185"/>
<rect x="394.25" y="80.8047" width="5.18382" height="89.0938" transform="rotate(-45 394.25 80.8047)" fill="#667185"/>
<rect x="387.086" y="59.8711" width="5.18382" height="129.763" transform="rotate(-45 387.086 59.8711)" fill="#667185"/>
<rect x="394.25" y="52.0469" width="5.18382" height="129.763" transform="rotate(-45 394.25 52.0469)" fill="#667185"/>
<rect x="390.293" y="33.6641" width="5.18382" height="163.214" transform="rotate(-45 390.293 33.6641)" fill="#667185"/>
<rect x="393.75" y="21.9922" width="5.18382" height="170.413" transform="rotate(-45 393.75 21.9922)" fill="#667185"/>
<rect x="401.465" y="15.4375" width="5.18382" height="170.413" transform="rotate(-45 401.465 15.4375)" fill="#667185"/>
<rect x="407.363" y="6.91016" width="5.18382" height="170.413" transform="rotate(-45 407.363 6.91016)" fill="#667185"/>
<rect x="411.301" y="-3.58203" width="5.18382" height="170.413" transform="rotate(-45 411.301 -3.58203)" fill="#667185"/>
<rect x="417.855" y="-12.7617" width="5.18382" height="170.413" transform="rotate(-45 417.855 -12.7617)" fill="#667185"/>
<rect x="423.754" y="-20.6289" width="5.18382" height="170.413" transform="rotate(-45 423.754 -20.6289)" fill="#667185"/>
<rect x="432.285" y="-27.1875" width="5.18382" height="170.413" transform="rotate(-45 432.285 -27.1875)" fill="#667185"/>
<rect x="442.117" y="-33.0898" width="5.18382" height="170.413" transform="rotate(-45 442.117 -33.0898)" fill="#667185"/>
<rect x="449.988" y="-40.3008" width="5.18382" height="170.413" transform="rotate(-45 449.988 -40.3008)" fill="#667185"/>
</g>
<mask id="mask1_1214_16229" style="mask-type:alpha" maskUnits="userSpaceOnUse" x="999" y="17" width="115" height="115">
<rect x="999.109" y="132" width="114.096" height="114.096" transform="rotate(-90 999.109 132)" fill="#ED1C34"/>
</mask>
<g mask="url(#mask1_1214_16229)">
<rect x="980.488" y="89.5898" width="5.18382" height="89.0938" transform="rotate(-45 980.488 89.5898)" fill="#667185"/>
<rect x="985.992" y="80.8047" width="5.18382" height="89.0938" transform="rotate(-45 985.992 80.8047)" fill="#667185"/>
<rect x="978.832" y="59.8711" width="5.18382" height="129.763" transform="rotate(-45 978.832 59.8711)" fill="#667185"/>
<rect x="985.996" y="52.0469" width="5.18382" height="129.763" transform="rotate(-45 985.996 52.0469)" fill="#667185"/>
<rect x="982.035" y="33.6641" width="5.18382" height="163.214" transform="rotate(-45 982.035 33.6641)" fill="#667185"/>
<rect x="985.492" y="21.9922" width="5.18382" height="170.413" transform="rotate(-45 985.492 21.9922)" fill="#667185"/>
<rect x="993.207" y="15.4375" width="5.18382" height="170.413" transform="rotate(-45 993.207 15.4375)" fill="#667185"/>
<rect x="999.109" y="6.91016" width="5.18382" height="170.413" transform="rotate(-45 999.109 6.91016)" fill="#667185"/>
<rect x="1003.04" y="-3.58203" width="5.18382" height="170.413" transform="rotate(-45 1003.04 -3.58203)" fill="#667185"/>
<rect x="1009.6" y="-12.7617" width="5.18382" height="170.413" transform="rotate(-45 1009.6 -12.7617)" fill="#667185"/>
<rect x="1015.5" y="-20.6289" width="5.18382" height="170.413" transform="rotate(-45 1015.5 -20.6289)" fill="#667185"/>
<rect x="1024.03" y="-27.1875" width="5.18382" height="170.413" transform="rotate(-45 1024.03 -27.1875)" fill="#667185"/>
<rect x="1033.86" y="-33.0898" width="5.18382" height="170.413" transform="rotate(-45 1033.86 -33.0898)" fill="#667185"/>
<rect x="1041.73" y="-40.3008" width="5.18382" height="170.413" transform="rotate(-45 1041.73 -40.3008)" fill="#667185"/>
</g>
<mask id="mask2_1214_16229" style="mask-type:alpha" maskUnits="userSpaceOnUse" x="153" y="49" width="115" height="115">
<rect x="153.492" y="163.535" width="114.096" height="114.096" transform="rotate(-90 153.492 163.535)" fill="#FFBB9C"/>
</mask>
<g mask="url(#mask2_1214_16229)">
<rect x="133.215" y="91.4023" width="5.18382" height="129.763" transform="rotate(-45 133.215 91.4023)" fill="#667185"/>
<rect x="140.379" y="83.582" width="5.18382" height="129.763" transform="rotate(-45 140.379 83.582)" fill="#667185"/>
<rect x="136.422" y="65.1992" width="5.18382" height="163.214" transform="rotate(-45 136.422 65.1992)" fill="#667185"/>
<rect x="139.875" y="53.5273" width="5.18382" height="170.413" transform="rotate(-45 139.875 53.5273)" fill="#667185"/>
<rect x="147.594" y="46.9688" width="5.18382" height="170.413" transform="rotate(-45 147.594 46.9688)" fill="#667185"/>
<rect x="153.492" y="38.4453" width="5.18382" height="170.413" transform="rotate(-45 153.492 38.4453)" fill="#667185"/>
<rect x="157.426" y="27.9531" width="5.18382" height="170.413" transform="rotate(-45 157.426 27.9531)" fill="#667185"/>
<rect x="163.984" y="18.7734" width="5.18382" height="170.413" transform="rotate(-45 163.984 18.7734)" fill="#667185"/>
<rect x="169.883" y="10.9023" width="5.18382" height="170.413" transform="rotate(-45 169.883 10.9023)" fill="#667185"/>
<rect x="178.41" y="4.34766" width="5.18382" height="170.413" transform="rotate(-45 178.41 4.34766)" fill="#667185"/>
<rect x="188.246" y="-1.55469" width="5.18382" height="170.413" transform="rotate(-45 188.246 -1.55469)" fill="#667185"/>
<rect x="196.113" y="-8.76562" width="5.18382" height="170.413" transform="rotate(-45 196.113 -8.76562)" fill="#667185"/>
</g>
<mask id="mask3_1214_16229" style="mask-type:alpha" maskUnits="userSpaceOnUse" x="793" y="17" width="115" height="115">
<rect x="793.23" y="131.535" width="114.096" height="114.096" transform="rotate(-90 793.23 131.535)" fill="#ED1C34"/>
</mask>
<g mask="url(#mask3_1214_16229)">
<rect x="774.605" y="89.125" width="5.18382" height="89.0938" transform="rotate(-45 774.605 89.125)" fill="#667185"/>
<rect x="780.113" y="80.3398" width="5.18382" height="89.0938" transform="rotate(-45 780.113 80.3398)" fill="#667185"/>
<rect x="772.949" y="59.4023" width="5.18382" height="129.763" transform="rotate(-45 772.949 59.4023)" fill="#667185"/>
<rect x="780.117" y="51.582" width="5.18382" height="129.763" transform="rotate(-45 780.117 51.582)" fill="#667185"/>
<rect x="776.152" y="33.1992" width="5.18382" height="163.214" transform="rotate(-45 776.152 33.1992)" fill="#667185"/>
<rect x="779.613" y="21.5273" width="5.18382" height="170.413" transform="rotate(-45 779.613 21.5273)" fill="#667185"/>
<rect x="787.324" y="14.9688" width="5.18382" height="170.413" transform="rotate(-45 787.324 14.9688)" fill="#667185"/>
<rect x="793.227" y="6.44531" width="5.18382" height="170.413" transform="rotate(-45 793.227 6.44531)" fill="#667185"/>
<rect x="797.164" y="-4.04688" width="5.18382" height="170.413" transform="rotate(-45 797.164 -4.04688)" fill="#667185"/>
<rect x="803.723" y="-13.2266" width="5.18382" height="170.413" transform="rotate(-45 803.723 -13.2266)" fill="#667185"/>
<rect x="809.617" y="-21.0977" width="5.18382" height="170.413" transform="rotate(-45 809.617 -21.0977)" fill="#667185"/>
<rect x="818.148" y="-27.6523" width="5.18382" height="170.413" transform="rotate(-45 818.148 -27.6523)" fill="#667185"/>
<rect x="827.98" y="-33.5547" width="5.18382" height="170.413" transform="rotate(-45 827.98 -33.5547)" fill="#667185"/>
<rect x="835.852" y="-40.7656" width="5.18382" height="170.413" transform="rotate(-45 835.852 -40.7656)" fill="#667185"/>
</g>
<rect x="109.73" y="39.8008" width="91.8015" height="91.8015" transform="rotate(-90 109.73 39.8008)" fill="#667185"/>
<rect x="701.473" y="39.8008" width="91.8015" height="91.8015" transform="rotate(-90 701.473 39.8008)" fill="#667185"/>
<rect x="609.668" y="131.605" width="91.8015" height="91.8015" transform="rotate(-90 609.668 131.605)" fill="#667185"/>
<rect x="1201.41" y="131.605" width="91.8015" height="91.8015" transform="rotate(-90 1201.41 131.605)" fill="#667185"/>
<rect x="521.148" y="39.8008" width="91.8015" height="91.8015" transform="rotate(-90 521.148 39.8008)" fill="#667185"/>
<rect x="1112.89" y="39.8008" width="91.8015" height="91.8015" transform="rotate(-90 1112.89 39.8008)" fill="#667185"/>
<rect x="315.566" y="39.8008" width="91.8015" height="91.8015" transform="rotate(-90 315.566 39.8008)" fill="white"/>
<rect x="907.305" y="39.8008" width="91.8015" height="91.8015" transform="rotate(-90 907.305 39.8008)" fill="white"/>
<circle cx="567.047" cy="-6.0973" r="15.0817" transform="rotate(-90 567.047 -6.0973)" fill="white"/>
<circle cx="1158.79" cy="-6.0973" r="15.0817" transform="rotate(-90 1158.79 -6.0973)" fill="white"/>
<circle opacity="0.5" cx="109.55" cy="38.9583" r="30.8191" transform="rotate(-90 109.55 38.9583)" fill="white"/>
<circle opacity="0.5" cx="701.292" cy="38.9583" r="30.8191" transform="rotate(-90 701.292 38.9583)" fill="white"/>
</g>
</svg>
