<svg width="16" height="16" viewBox="0 0 16 16" fill="none" xmlns="http://www.w3.org/2000/svg">
	<path d="M1.33301 6.65301V5.99967C1.33301 2.66634 2.66634 1.33301 5.99967 1.33301H9.99967C13.333 1.33301 14.6663 2.66634 14.6663 5.99967V9.99967C14.6663 13.333 13.333 14.6663 9.99967 14.6663H9.33301" stroke="#292D32" stroke-linecap="round" stroke-linejoin="round" />
	<path d="M8.66699 7.33299L12.007 3.98633H9.33366" stroke="#292D32" stroke-linecap="round" stroke-linejoin="round" />
	<path d="M12.0068 3.98633V6.65966" stroke="#292D32" stroke-linecap="round" stroke-linejoin="round" />
	<path d="M7.33301 10.767V12.567C7.33301 14.067 6.73301 14.667 5.23301 14.667H3.43301C1.93301 14.667 1.33301 14.067 1.33301 12.567V10.767C1.33301 9.26699 1.93301 8.66699 3.43301 8.66699H5.23301C6.73301 8.66699 7.33301 9.26699 7.33301 10.767Z" stroke="#292D32" stroke-linecap="round" stroke-linejoin="round" />
</svg>
