<svg width="10" height="18" viewBox="0 0 10 18" fill="none" xmlns="http://www.w3.org/2000/svg">
<path d="M9.38344 1.04469C9.61778 1.2791 9.74943 1.59699 9.74943 1.92844C9.74943 2.2599 9.61778 2.57778 9.38344 2.81219L3.19594 8.99969L9.38344 15.1872C9.61114 15.4229 9.73713 15.7387 9.73429 16.0664C9.73144 16.3942 9.59998 16.7077 9.36822 16.9395C9.13646 17.1712 8.82294 17.3027 8.4952 17.3055C8.16745 17.3084 7.8517 17.1824 7.61594 16.9547L0.544694 9.88344C0.310355 9.64903 0.178711 9.33115 0.178711 8.99969C0.178711 8.66824 0.310355 8.35035 0.544694 8.11594L7.61594 1.04469C7.85035 0.810355 8.16824 0.678711 8.49969 0.678711C8.83115 0.678711 9.14903 0.810355 9.38344 1.04469Z" fill="#192A3E"/>
</svg>
