<svg width="16" height="16" viewBox="0 0 16 16" fill="none" xmlns="http://www.w3.org/2000/svg">
<path d="M4.66634 11.2129V7.04622M7.99967 11.2129V4.54622M11.333 11.2129V9.54622M12.9997 1.21289H2.99967C2.55765 1.21289 2.13372 1.38849 1.82116 1.70105C1.5086 2.01361 1.33301 2.43753 1.33301 2.87956V12.8796C1.33301 13.3216 1.5086 13.7455 1.82116 14.0581C2.13372 14.3706 2.55765 14.5462 2.99967 14.5462H12.9997C13.4417 14.5462 13.8656 14.3706 14.1782 14.0581C14.4907 13.7455 14.6663 13.3216 14.6663 12.8796V2.87956C14.6663 2.43753 14.4907 2.01361 14.1782 1.70105C13.8656 1.38849 13.4417 1.21289 12.9997 1.21289Z" stroke="#667185" stroke-width="1.66667" stroke-linecap="round" stroke-linejoin="round"/>
</svg>
