<svg width="20" height="20" viewBox="0 0 20 20" fill="none" xmlns="http://www.w3.org/2000/svg">
<path d="M14.1667 11.6667C14.3877 11.6667 14.5996 11.5789 14.7559 11.4226C14.9122 11.2663 15 11.0543 15 10.8333C15 10.6123 14.9122 10.4004 14.7559 10.2441C14.5996 10.0878 14.3877 10 14.1667 10C13.9457 10 13.7337 10.0878 13.5774 10.2441C13.4211 10.4004 13.3333 10.6123 13.3333 10.8333C13.3333 11.0543 13.4211 11.2663 13.5774 11.4226C13.7337 11.5789 13.9457 11.6667 14.1667 11.6667ZM14.1667 15C14.3877 15 14.5996 14.9122 14.7559 14.7559C14.9122 14.5996 15 14.3877 15 14.1667C15 13.9457 14.9122 13.7337 14.7559 13.5774C14.5996 13.4211 14.3877 13.3333 14.1667 13.3333C13.9457 13.3333 13.7337 13.4211 13.5774 13.5774C13.4211 13.7337 13.3333 13.9457 13.3333 14.1667C13.3333 14.3877 13.4211 14.5996 13.5774 14.7559C13.7337 14.9122 13.9457 15 14.1667 15ZM10.8333 10.8333C10.8333 11.0543 10.7455 11.2663 10.5893 11.4226C10.433 11.5789 10.221 11.6667 10 11.6667C9.77899 11.6667 9.56702 11.5789 9.41074 11.4226C9.25446 11.2663 9.16667 11.0543 9.16667 10.8333C9.16667 10.6123 9.25446 10.4004 9.41074 10.2441C9.56702 10.0878 9.77899 10 10 10C10.221 10 10.433 10.0878 10.5893 10.2441C10.7455 10.4004 10.8333 10.6123 10.8333 10.8333ZM10.8333 14.1667C10.8333 14.3877 10.7455 14.5996 10.5893 14.7559C10.433 14.9122 10.221 15 10 15C9.77899 15 9.56702 14.9122 9.41074 14.7559C9.25446 14.5996 9.16667 14.3877 9.16667 14.1667C9.16667 13.9457 9.25446 13.7337 9.41074 13.5774C9.56702 13.4211 9.77899 13.3333 10 13.3333C10.221 13.3333 10.433 13.4211 10.5893 13.5774C10.7455 13.7337 10.8333 13.9457 10.8333 14.1667ZM5.83333 11.6667C6.05435 11.6667 6.26631 11.5789 6.42259 11.4226C6.57887 11.2663 6.66667 11.0543 6.66667 10.8333C6.66667 10.6123 6.57887 10.4004 6.42259 10.2441C6.26631 10.0878 6.05435 10 5.83333 10C5.61232 10 5.40036 10.0878 5.24408 10.2441C5.0878 10.4004 5 10.6123 5 10.8333C5 11.0543 5.0878 11.2663 5.24408 11.4226C5.40036 11.5789 5.61232 11.6667 5.83333 11.6667ZM5.83333 15C6.05435 15 6.26631 14.9122 6.42259 14.7559C6.57887 14.5996 6.66667 14.3877 6.66667 14.1667C6.66667 13.9457 6.57887 13.7337 6.42259 13.5774C6.26631 13.4211 6.05435 13.3333 5.83333 13.3333C5.61232 13.3333 5.40036 13.4211 5.24408 13.5774C5.0878 13.7337 5 13.9457 5 14.1667C5 14.3877 5.0878 14.5996 5.24408 14.7559C5.40036 14.9122 5.61232 15 5.83333 15Z" fill="#1C2B3F"/>
<path fill-rule="evenodd" clip-rule="evenodd" d="M5.83331 1.45898C5.99907 1.45898 6.15804 1.52483 6.27526 1.64204C6.39247 1.75925 6.45831 1.91822 6.45831 2.08398V2.71982C7.00998 2.70898 7.61748 2.70898 8.28581 2.70898H11.7133C12.3825 2.70898 12.99 2.70898 13.5416 2.71982V2.08398C13.5416 1.91822 13.6075 1.75925 13.7247 1.64204C13.8419 1.52483 14.0009 1.45898 14.1666 1.45898C14.3324 1.45898 14.4914 1.52483 14.6086 1.64204C14.7258 1.75925 14.7916 1.91822 14.7916 2.08398V2.77315C15.0083 2.78982 15.2136 2.81093 15.4075 2.83648C16.3841 2.96815 17.175 3.24482 17.7991 3.86815C18.4225 4.49232 18.6991 5.28315 18.8308 6.25982C18.9583 7.20982 18.9583 8.42232 18.9583 9.95398V11.714C18.9583 13.2457 18.9583 14.459 18.8308 15.4082C18.6991 16.3848 18.4225 17.1756 17.7991 17.7998C17.175 18.4231 16.3841 18.6998 15.4075 18.8315C14.4575 18.959 13.245 18.959 11.7133 18.959H8.28748C6.75581 18.959 5.54248 18.959 4.59331 18.8315C3.61665 18.6998 2.82581 18.4231 2.20165 17.7998C1.57831 17.1756 1.30165 16.3848 1.16998 15.4082C1.04248 14.4582 1.04248 13.2457 1.04248 11.714V9.95398C1.04248 8.42232 1.04248 7.20898 1.16998 6.25982C1.30165 5.28315 1.57831 4.49232 2.20165 3.86815C2.82581 3.24482 3.61665 2.96815 4.59331 2.83648C4.78776 2.81093 4.99304 2.78982 5.20915 2.77315V2.08398C5.20915 1.91837 5.27488 1.75952 5.39191 1.64234C5.50894 1.52515 5.6677 1.45921 5.83331 1.45898ZM4.75831 4.07565C3.92081 4.18815 3.43748 4.39982 3.08498 4.75232C2.73248 5.10482 2.52081 5.58815 2.40831 6.42565C2.38942 6.56732 2.37331 6.71704 2.35998 6.87482H17.64C17.6266 6.71704 17.6105 6.56704 17.5916 6.42482C17.4791 5.58732 17.2675 5.10398 16.915 4.75148C16.5625 4.39898 16.0791 4.18732 15.2408 4.07482C14.385 3.95982 13.2558 3.95815 11.6666 3.95815H8.33331C6.74415 3.95815 5.61581 3.96065 4.75831 4.07565ZM2.29165 10.0007C2.29165 9.28898 2.29165 8.66982 2.30248 8.12565H17.6975C17.7083 8.66982 17.7083 9.28898 17.7083 10.0007V11.6673C17.7083 13.2565 17.7066 14.3857 17.5916 15.2423C17.4791 16.0798 17.2675 16.5632 16.915 16.9157C16.5625 17.2682 16.0791 17.4798 15.2408 17.5923C14.385 17.7073 13.2558 17.709 11.6666 17.709H8.33331C6.74415 17.709 5.61581 17.7073 4.75831 17.5923C3.92081 17.4798 3.43748 17.2682 3.08498 16.9157C2.73248 16.5632 2.52081 16.0798 2.40831 15.2415C2.29331 14.3857 2.29165 13.2565 2.29165 11.6673V10.0007Z" fill="#1C2B3F"/>
</svg>
