<svg width="20" height="20" viewBox="0 0 20 20" fill="none" xmlns="http://www.w3.org/2000/svg">
<path d="M14.6877 13.7508H14.3752V12.5008H14.6877C15.4336 12.5307 16.1608 12.263 16.7093 11.7566C17.2579 11.2503 17.5828 10.5468 17.6127 9.80083C17.6425 9.05491 17.3748 8.32769 16.8684 7.77914C16.3621 7.2306 15.6586 6.90567 14.9127 6.87583H14.3752L14.3127 6.36333C14.174 5.31111 13.6576 4.34517 12.8596 3.64544C12.0616 2.94572 11.0365 2.55992 9.97515 2.55992C8.91384 2.55992 7.88871 2.94572 7.09072 3.64544C6.29274 4.34517 5.77632 5.31111 5.63766 6.36333L5.62516 6.87583H5.08766C4.34173 6.90567 3.63822 7.2306 3.13187 7.77914C2.62552 8.32769 2.35782 9.05491 2.38766 9.80083C2.41749 10.5468 2.74242 11.2503 3.29097 11.7566C3.83951 12.263 4.56673 12.5307 5.31266 12.5008H5.62516V13.7508H5.31266C4.31041 13.7445 3.34588 13.3679 2.60452 12.6934C1.86316 12.0189 1.39729 11.0942 1.29649 10.097C1.19568 9.09982 1.46706 8.10057 2.05844 7.29136C2.64982 6.48216 3.51946 5.92013 4.50016 5.71333C4.76997 4.45491 5.46318 3.32706 6.4641 2.518C7.46503 1.70893 8.71313 1.26758 10.0002 1.26758C11.2872 1.26758 12.5353 1.70893 13.5362 2.518C14.5371 3.32706 15.2303 4.45491 15.5002 5.71333C16.4809 5.92013 17.3505 6.48216 17.9419 7.29136C18.5333 8.10057 18.8046 9.09982 18.7038 10.097C18.603 11.0942 18.1372 12.0189 17.3958 12.6934C16.6544 13.3679 15.6899 13.7445 14.6877 13.7508Z" fill="white"/>
<path d="M10.625 16.3562V8.75H9.375V16.3562L7.75625 14.7438L6.875 15.625L10 18.75L13.125 15.625L12.2438 14.7438L10.625 16.3562Z" fill="white"/>
</svg>
