<svg width="18" height="18" viewBox="0 0 18 18" fill="none" xmlns="http://www.w3.org/2000/svg">
<path d="M15.192 9.81701C15.2254 9.55035 15.2504 9.28368 15.2504 9.00035C15.2504 8.71701 15.2254 8.45035 15.192 8.18368L16.9504 6.80868C17.1087 6.68368 17.1504 6.45868 17.0504 6.27535L15.3837 3.39201C15.3346 3.30603 15.2564 3.24036 15.1633 3.20677C15.0701 3.17317 14.968 3.17385 14.8754 3.20868L12.8004 4.04201C12.367 3.70868 11.9004 3.43368 11.392 3.22535L11.0754 1.01701C11.0612 0.919113 11.012 0.829668 10.9369 0.765296C10.8618 0.700923 10.7659 0.666 10.667 0.667014H7.33369C7.12535 0.667014 6.95035 0.817014 6.92535 1.01701L6.60869 3.22535C6.10035 3.43368 5.63369 3.71701 5.20035 4.04201L3.12535 3.20868C3.07692 3.19275 3.02634 3.18432 2.97535 3.18368C2.83369 3.18368 2.69202 3.25868 2.61702 3.39201L0.950354 6.27535C0.842021 6.45868 0.892021 6.68368 1.05035 6.80868L2.80869 8.18368C2.77535 8.45035 2.75035 8.72535 2.75035 9.00035C2.75035 9.27535 2.77535 9.55035 2.80869 9.81701L1.05035 11.192C0.892021 11.317 0.850354 11.542 0.950354 11.7253L2.61702 14.6087C2.66615 14.6947 2.74429 14.7603 2.83744 14.7939C2.93059 14.8275 3.03266 14.8268 3.12535 14.792L5.20035 13.9587C5.63369 14.292 6.10035 14.567 6.60869 14.7753L6.92535 16.9837C6.95035 17.1837 7.12535 17.3337 7.33369 17.3337H10.667C10.8754 17.3337 11.0504 17.1837 11.0754 16.9837L11.392 14.7753C11.9004 14.567 12.367 14.2837 12.8004 13.9587L14.8754 14.792C14.9254 14.8087 14.9754 14.817 15.0254 14.817C15.167 14.817 15.3087 14.742 15.3837 14.6087L17.0504 11.7253C17.1504 11.542 17.1087 11.317 16.9504 11.192L15.192 9.81701ZM13.542 8.39201C13.5754 8.65035 13.5837 8.82535 13.5837 9.00035C13.5837 9.17535 13.567 9.35868 13.542 9.60868L13.4254 10.5503L14.167 11.1337L15.067 11.8337L14.4837 12.842L13.4254 12.417L12.5587 12.067L11.8087 12.6337C11.4504 12.9003 11.1087 13.1003 10.767 13.242L9.88369 13.6003L9.75035 14.542L9.58369 15.667H8.41702L8.25869 14.542L8.12535 13.6003L7.24202 13.242C6.88369 13.092 6.55035 12.9003 6.21702 12.6503L5.45869 12.067L4.57535 12.4253L3.51702 12.8503L2.93369 11.842L3.83369 11.142L4.57535 10.5587L4.45869 9.61701C4.43369 9.35868 4.41702 9.16701 4.41702 9.00035C4.41702 8.83368 4.43369 8.64201 4.45869 8.39201L4.57535 7.45035L3.83369 6.86701L2.93369 6.16701L3.51702 5.15868L4.57535 5.58368L5.44202 5.93368L6.19202 5.36701C6.55035 5.10035 6.89202 4.90035 7.23369 4.75868L8.11702 4.40035L8.25035 3.45868L8.41702 2.33368H9.57535L9.73369 3.45868L9.86702 4.40035L10.7504 4.75868C11.1087 4.90868 11.442 5.10035 11.7754 5.35035L12.5337 5.93368L13.417 5.57535L14.4754 5.15035L15.0587 6.15868L14.167 6.86701L13.4254 7.45035L13.542 8.39201ZM9.00035 5.66701C7.15869 5.66701 5.66702 7.15868 5.66702 9.00035C5.66702 10.842 7.15869 12.3337 9.00035 12.3337C10.842 12.3337 12.3337 10.842 12.3337 9.00035C12.3337 7.15868 10.842 5.66701 9.00035 5.66701ZM9.00035 10.667C8.08369 10.667 7.33369 9.91701 7.33369 9.00035C7.33369 8.08368 8.08369 7.33368 9.00035 7.33368C9.91702 7.33368 10.667 8.08368 10.667 9.00035C10.667 9.91701 9.91702 10.667 9.00035 10.667Z" fill="#667185"/>
</svg>
