<svg width="20" height="20" viewBox="0 0 20 20" fill="none" xmlns="http://www.w3.org/2000/svg">
<path fill-rule="evenodd" clip-rule="evenodd" d="M12.5 1.04199H9.12C7.58833 1.04199 6.375 1.04199 5.42583 1.16949C4.44917 1.30116 3.65833 1.57783 3.03417 2.20116C2.41083 2.82533 2.13417 3.61616 2.0025 4.59283C1.875 5.54283 1.875 6.75533 1.875 8.28699V13.3337C1.87485 14.0782 2.14055 14.7984 2.62425 15.3644C3.10795 15.9305 3.77786 16.3052 4.51333 16.4212C4.6275 17.0578 4.84833 17.6012 5.29 18.0437C5.79167 18.5453 6.42333 18.7603 7.17333 18.862C7.89583 18.9587 8.815 18.9587 9.95417 18.9587H12.5458C13.685 18.9587 14.6042 18.9587 15.3267 18.862C16.0767 18.7603 16.7083 18.5453 17.21 18.0437C17.7117 17.542 17.9267 16.9103 18.0283 16.1603C18.125 15.4378 18.125 14.5187 18.125 13.3795V9.12116C18.125 7.98199 18.125 7.06283 18.0283 6.34033C17.9267 5.59033 17.7117 4.95866 17.21 4.45699C16.7675 4.01533 16.2242 3.79449 15.5875 3.68033C15.4715 2.94485 15.0968 2.27494 14.5308 1.79124C13.9647 1.30754 13.2446 1.04184 12.5 1.04199ZM14.275 3.55949C14.1483 3.18949 13.909 2.86838 13.5908 2.6411C13.2725 2.41382 12.8911 2.29175 12.5 2.29199H9.16667C7.5775 2.29199 6.44917 2.29366 5.59167 2.40866C4.75417 2.52116 4.27083 2.73283 3.91833 3.08533C3.56583 3.43783 3.35417 3.92116 3.24167 4.75866C3.12667 5.61616 3.125 6.74449 3.125 8.33366V13.3337C3.12476 13.7248 3.24683 14.1061 3.4741 14.4244C3.70138 14.7427 4.0225 14.9819 4.3925 15.1087C4.375 14.6003 4.375 14.0253 4.375 13.3795V9.12116C4.375 7.98199 4.375 7.06283 4.4725 6.34033C4.5725 5.59033 4.78917 4.95866 5.29 4.45699C5.79167 3.95533 6.42333 3.74033 7.17333 3.63949C7.89583 3.54199 8.815 3.54199 9.95417 3.54199H12.5458C13.1917 3.54199 13.7667 3.54199 14.275 3.55949ZM6.17333 5.34199C6.40417 5.11116 6.7275 4.96116 7.34 4.87866C7.96833 4.79449 8.80333 4.79283 9.99917 4.79283H12.4992C13.695 4.79283 14.5292 4.79449 15.1592 4.87866C15.7708 4.96116 16.0942 5.11199 16.325 5.34199C16.5558 5.57283 16.7058 5.89616 16.7883 6.50866C16.8725 7.13699 16.8742 7.97199 16.8742 9.16783V13.3345C16.8742 14.5303 16.8725 15.3645 16.7883 15.9945C16.7058 16.6062 16.555 16.9295 16.325 17.1603C16.0942 17.3912 15.7708 17.5412 15.1583 17.6237C14.5292 17.7078 13.695 17.7095 12.4992 17.7095H9.99917C8.80333 17.7095 7.96833 17.7078 7.33917 17.6237C6.7275 17.5412 6.40417 17.3903 6.17333 17.1603C5.9425 16.9295 5.7925 16.6062 5.71 15.9937C5.62583 15.3645 5.62417 14.5303 5.62417 13.3345V9.16783C5.62417 7.97199 5.62583 7.13699 5.71 6.50783C5.7925 5.89616 5.94333 5.57283 6.17333 5.34199Z" fill="#1C2B3F"/>
</svg>
