<svg width="17" height="17" viewBox="0 0 17 17" fill="none" xmlns="http://www.w3.org/2000/svg">
<path fill-rule="evenodd" clip-rule="evenodd" d="M14.0745 1.00386C13.6145 0.745529 13.1245 0.720529 12.607 0.784696C12.1153 0.846362 11.5162 1.00136 10.797 1.18886L9.11449 1.62553C8.39532 1.81303 7.79699 1.96803 7.33949 2.15386C6.85699 2.34886 6.44032 2.61053 6.17032 3.0647C5.89866 3.52136 5.87199 4.0097 5.93949 4.5197C6.00366 5.00053 6.16449 5.58386 6.35616 6.27886L6.80866 7.91553C7.00032 8.61136 7.16199 9.19386 7.35449 9.64053C7.55866 10.1155 7.83116 10.5197 8.29449 10.7797C8.75449 11.0372 9.24449 11.063 9.76283 10.998C10.2545 10.9372 10.8537 10.7814 11.5728 10.5939L13.2553 10.1572C13.9745 9.97053 14.5728 9.8147 15.0303 9.62886C15.5128 9.43386 15.9295 9.17219 16.1995 8.71803C16.4712 8.26136 16.4978 7.77303 16.4303 7.26386C16.3662 6.78303 16.2053 6.19886 16.0137 5.50386L15.5612 3.8672C15.3695 3.1722 15.2078 2.58886 15.0153 2.1422C14.8112 1.6672 14.537 1.26303 14.0745 1.00386ZM11.0712 2.40886C11.842 2.20886 12.3612 2.07553 12.7628 2.02553C13.147 1.9772 13.3312 2.0197 13.4653 2.0947C13.5962 2.16803 13.722 2.29553 13.8678 2.63636C14.022 2.9947 14.162 3.49386 14.3687 4.2422L14.797 5.7947C15.0045 6.54303 15.1412 7.04303 15.192 7.42803C15.2403 7.79386 15.197 7.95969 15.1253 8.07886C15.0528 8.20136 14.9212 8.32553 14.5628 8.47053C14.1895 8.62136 13.6712 8.75803 12.9003 8.95803L11.3003 9.37386C10.5295 9.57386 10.0103 9.7072 9.60866 9.7572C9.22366 9.80636 9.04032 9.76386 8.90616 9.68886C8.77532 9.61553 8.64949 9.4872 8.50366 9.14719C8.34949 8.78886 8.20949 8.28886 8.00282 7.54053L7.57449 5.98886C7.36699 5.23886 7.23032 4.7397 7.17949 4.35553C7.13116 3.98886 7.17449 3.82386 7.24616 3.70386C7.31866 3.58136 7.45032 3.4572 7.80866 3.3122C8.18199 3.16136 8.70032 3.02553 9.47116 2.8247L11.0712 2.40886Z" fill="#667185"/>
<path fill-rule="evenodd" clip-rule="evenodd" d="M1.6664 2.81681C1.50852 2.7781 1.34177 2.80243 1.20153 2.88463C1.0613 2.96682 0.958598 3.10043 0.915232 3.25709C0.871865 3.41375 0.891241 3.58115 0.969248 3.72376C1.04726 3.86637 1.17776 3.97298 1.33307 4.02097L2.75223 4.41514C3.10723 4.51347 3.3714 4.78181 3.4614 5.10764L5.08807 10.9935C5.02529 11.0057 4.96279 11.0201 4.90057 11.0368C3.25307 11.4643 2.2464 13.1218 2.69807 14.7593C3.14807 16.3885 4.85973 17.3276 6.50057 16.901C7.93723 16.5285 8.8864 15.221 8.8064 13.8076L15.8231 11.9843C15.9025 11.9637 15.9771 11.9276 16.0426 11.8781C16.1081 11.8287 16.1633 11.7668 16.2049 11.696C16.2464 11.6253 16.2737 11.547 16.285 11.4657C16.2964 11.3844 16.2916 11.3017 16.271 11.2222C16.2504 11.1428 16.2143 11.0682 16.1648 11.0027C16.1154 10.9371 16.0535 10.882 15.9827 10.8404C15.9119 10.7988 15.8337 10.7716 15.7524 10.7602C15.6711 10.7489 15.5884 10.7537 15.5089 10.7743L8.47723 12.6018C8.26682 12.1998 7.97075 11.849 7.60991 11.5739C7.24907 11.2989 6.83226 11.1065 6.3889 11.0101L4.6664 4.77431C4.56045 4.39929 4.35926 4.05808 4.08239 3.78384C3.80552 3.50961 3.46241 3.31168 3.0864 3.20931L1.6664 2.81681ZM5.21557 12.246C6.22557 11.9843 7.2389 12.5701 7.4989 13.5118C7.75723 14.4451 7.19057 15.431 6.18723 15.6918C5.17723 15.9543 4.1639 15.3676 3.9039 14.426C3.64557 13.4926 4.21223 12.5068 5.21557 12.246Z" fill="#667185"/>
</svg>
