<svg width="16" height="16" viewBox="0 0 16 16" fill="none" xmlns="http://www.w3.org/2000/svg">
<path d="M10 15.1666H6.00004C2.38004 15.1666 0.833374 13.6199 0.833374 9.99992V5.99992C0.833374 2.37992 2.38004 0.833252 6.00004 0.833252H7.33337C7.60671 0.833252 7.83337 1.05992 7.83337 1.33325C7.83337 1.60659 7.60671 1.83325 7.33337 1.83325H6.00004C2.92671 1.83325 1.83337 2.92659 1.83337 5.99992V9.99992C1.83337 13.0733 2.92671 14.1666 6.00004 14.1666H10C13.0734 14.1666 14.1667 13.0733 14.1667 9.99992V8.66659C14.1667 8.39325 14.3934 8.16659 14.6667 8.16659C14.94 8.16659 15.1667 8.39325 15.1667 8.66659V9.99992C15.1667 13.6199 13.62 15.1666 10 15.1666Z" fill="#596980"/>
<path d="M5.66688 11.7934C5.26022 11.7934 4.88688 11.6467 4.61355 11.38C4.28688 11.0534 4.14688 10.58 4.22022 10.08L4.50688 8.07337C4.56022 7.68671 4.81355 7.18671 5.08688 6.91337L10.3402 1.66004C11.6669 0.333372 13.0135 0.333372 14.3402 1.66004C15.0669 2.38671 15.3935 3.12671 15.3269 3.86671C15.2669 4.46671 14.9469 5.05337 14.3402 5.65337L9.08688 10.9067C8.81355 11.18 8.31355 11.4334 7.92688 11.4867L5.92022 11.7734C5.83355 11.7934 5.74688 11.7934 5.66688 11.7934ZM11.0469 2.36671L5.79355 7.62004C5.66688 7.74671 5.52022 8.04004 5.49355 8.21337L5.20688 10.22C5.18022 10.4134 5.22022 10.5734 5.32022 10.6734C5.42022 10.7734 5.58022 10.8134 5.77355 10.7867L7.78022 10.5C7.95355 10.4734 8.25355 10.3267 8.37355 10.2L13.6269 4.94671C14.0602 4.51337 14.2869 4.12671 14.3202 3.76671C14.3602 3.33337 14.1335 2.87337 13.6269 2.36004C12.5602 1.29337 11.8269 1.59337 11.0469 2.36671Z" fill="#596980"/>
<path d="M13.233 6.55343C13.1864 6.55343 13.1397 6.54677 13.0997 6.53343C11.3464 6.0401 9.95305 4.64677 9.45971 2.89343C9.38638 2.62677 9.53971 2.35343 9.80638 2.27343C10.073 2.2001 10.3464 2.35343 10.4197 2.6201C10.8197 4.0401 11.9464 5.16677 13.3664 5.56677C13.633 5.6401 13.7864 5.9201 13.713 6.18677C13.653 6.41343 13.453 6.55343 13.233 6.55343Z" fill="#596980"/>
</svg>
