<svg width="19" height="19" viewBox="0 0 19 19" fill="none" xmlns="http://www.w3.org/2000/svg">
<path d="M11.0713 2.60312C11.3719 3.355 11.6219 4.25063 11.8031 5.25H6.19688C6.37813 4.25 6.62813 3.355 6.92813 2.60312C7.25063 1.79812 7.61813 1.18875 7.99438 0.790625C8.36813 0.39625 8.70688 0.25125 8.99688 0.25H9.00188C9.29188 0.25 9.63125 0.395625 10.0056 0.79125C10.3819 1.18875 10.7494 1.79812 11.0713 2.60312ZM4.75625 11.5C4.66858 10.6696 4.62477 9.83506 4.625 9C4.625 8.13813 4.67063 7.3 4.75625 6.5H0.612503C0.37138 7.31141 0.249275 8.15352 0.250003 9C0.250003 9.86875 0.376878 10.7081 0.612503 11.5H4.75625ZM5.875 9C5.875 8.12937 5.92375 7.29125 6.01375 6.5H11.9863C12.0379 6.95125 12.0754 7.41646 12.0988 7.89563C11.179 8.11081 10.3281 8.55363 9.62418 9.18343C8.92023 9.81323 8.38581 10.6098 8.07 11.5H6.01375C5.92114 10.6699 5.87481 9.83526 5.875 9ZM13.375 7.75C14.2045 7.7491 15.0239 7.9321 15.7743 8.28581C16.5246 8.63952 17.1872 9.15516 17.7144 9.79563C17.7381 9.53313 17.75 9.26792 17.75 9C17.75 8.13125 17.6231 7.29188 17.3875 6.5H13.2438C13.2875 6.90792 13.3206 7.32458 13.3431 7.75H13.375ZM7.78438 12.75C7.68424 13.6373 7.79725 14.5356 8.114 15.3704C8.43076 16.2053 8.94212 16.9525 9.60563 17.55C9.38688 17.6925 9.18313 17.75 9 17.75C8.70938 17.75 8.36938 17.6056 7.99438 17.2087C7.61813 16.8106 7.25063 16.2019 6.92875 15.3969C6.62813 14.645 6.37813 13.7494 6.19688 12.75H7.78438ZM4.92813 12.75H1.09188C1.6237 13.8682 2.38616 14.8612 3.32914 15.6637C4.27212 16.4662 5.37426 17.0601 6.56313 17.4062C6.26375 16.96 5.99875 16.4375 5.76813 15.8612C5.41 14.9669 5.12438 13.9125 4.92813 12.75ZM16.9081 5.25H13.0719C12.8756 4.0875 12.59 3.03312 12.2319 2.13875C12.0013 1.5625 11.7363 1.04 11.4369 0.59375C12.6257 0.939914 13.7279 1.53377 14.6709 2.33628C15.6138 3.13879 16.3763 4.13179 16.9081 5.25ZM1.09188 5.25H4.92813C5.12438 4.0875 5.41 3.03312 5.76813 2.13875C5.99875 1.5625 6.26375 1.04 6.56313 0.59375C5.37426 0.939914 4.27212 1.53377 3.32914 2.33628C2.38616 3.13879 1.6237 4.13179 1.09188 5.25ZM13.375 18.0625C12.1318 18.0625 10.9395 17.5686 10.0604 16.6896C9.18136 15.8105 8.6875 14.6182 8.6875 13.375C8.6875 12.1318 9.18136 10.9395 10.0604 10.0604C10.9395 9.18136 12.1318 8.6875 13.375 8.6875C14.6182 8.6875 15.8105 9.18136 16.6896 10.0604C17.5686 10.9395 18.0625 12.1318 18.0625 13.375C18.0625 14.6182 17.5686 15.8105 16.6896 16.6896C15.8105 17.5686 14.6182 18.0625 13.375 18.0625ZM14.1375 11.675L14.9 12.4375H13.2188C12.5143 12.4375 11.8386 12.7174 11.3405 13.2155C10.8424 13.7136 10.5625 14.3893 10.5625 15.0938V15.4062C10.5625 15.5306 10.6119 15.6498 10.6998 15.7377C10.7877 15.8256 10.9069 15.875 11.0313 15.875C11.1556 15.875 11.2748 15.8256 11.3627 15.7377C11.4506 15.6498 11.5 15.5306 11.5 15.4062V15.0938C11.5 14.868 11.5445 14.6445 11.6308 14.436C11.7172 14.2275 11.8438 14.038 12.0034 13.8784C12.163 13.7188 12.3525 13.5922 12.561 13.5058C12.7695 13.4195 12.993 13.375 13.2188 13.375H14.9L14.1375 14.1375C14.0914 14.1804 14.0545 14.2322 14.0289 14.2897C14.0033 14.3472 13.9895 14.4092 13.9884 14.4722C13.9873 14.5351 13.9989 14.5976 14.0224 14.656C14.046 14.7144 14.0811 14.7674 14.1256 14.8119C14.1701 14.8564 14.2231 14.8915 14.2815 14.9151C14.3399 14.9387 14.4024 14.9502 14.4653 14.9491C14.5283 14.948 14.5903 14.9342 14.6478 14.9086C14.7053 14.883 14.7571 14.8461 14.8 14.8L16.3625 13.2375C16.4503 13.1496 16.4996 13.0305 16.4996 12.9062C16.4996 12.782 16.4503 12.6629 16.3625 12.575L14.8 11.0125C14.7571 10.9664 14.7053 10.9295 14.6478 10.9039C14.5903 10.8783 14.5283 10.8645 14.4653 10.8634C14.4024 10.8623 14.3399 10.8738 14.2815 10.8974C14.2231 10.921 14.1701 10.9561 14.1256 11.0006C14.0811 11.0451 14.046 11.0981 14.0224 11.1565C13.9989 11.2149 13.9873 11.2774 13.9884 11.3403C13.9895 11.4033 14.0033 11.4653 14.0289 11.5228C14.0545 11.5803 14.0914 11.6321 14.1375 11.675Z" fill="#1CBD5D"/>
</svg>
