<svg width="19" height="19" viewBox="0 0 19 19" fill="none" xmlns="http://www.w3.org/2000/svg">
<path d="M10.0001 0.666016C5.3976 0.666016 1.66677 4.39768 1.66677 9.00102C1.66677 9.2199 1.6751 9.43657 1.69177 9.65102C2.05836 9.3032 2.47181 9.0084 2.9201 8.77518C2.93518 8.28924 3.00024 7.80613 3.11427 7.33352H5.9126C5.88482 7.6124 5.86455 7.89574 5.85177 8.18352C6.27388 8.21692 6.69061 8.29971 7.09344 8.43018C7.10677 8.05463 7.1326 7.68907 7.17094 7.33352H12.8301C12.9764 8.72129 12.9386 10.1223 12.7176 11.5002H10.4176C10.5837 11.8968 10.7009 12.3135 10.7693 12.7502H12.4501C11.9518 14.5977 11.1143 15.8643 10.2368 16.0585C10.0016 16.5158 9.70246 16.9372 9.34844 17.3102C9.56399 17.3268 9.78149 17.3352 10.0009 17.3352C14.6043 17.3352 18.3359 13.6035 18.3359 9.00102C18.3351 4.39768 14.6034 0.666016 10.0001 0.666016ZM13.7434 12.751H16.0126C15.2078 14.0384 14.0119 15.0342 12.6001 15.5927C13.0359 14.9093 13.3951 14.0543 13.6584 13.0802L13.7434 12.751ZM14.0893 7.33268H16.8876L16.8909 7.34685C17.0204 7.88841 17.0856 8.44336 17.0851 9.00018C17.0851 9.88018 16.9243 10.7227 16.6309 11.5002H13.9868C14.11 10.6726 14.1707 9.83689 14.1684 9.00018C14.1684 8.43018 14.1409 7.87185 14.0893 7.33268ZM12.5993 2.40768L12.6184 2.41435C14.3244 3.09531 15.7006 4.41025 16.4584 6.08352H13.9184C13.6576 4.62352 13.2018 3.35102 12.5993 2.40768ZM10.0001 1.91602L10.0968 1.92018C11.1518 2.01685 12.1701 3.68518 12.6434 6.08352H7.3576C7.82927 3.69185 8.84344 2.02602 9.8951 1.92102L10.0001 1.91602ZM7.4001 2.40768L7.31177 2.55352C6.75344 3.48018 6.3301 4.69685 6.0826 6.08435H3.5426C4.26566 4.48776 5.55307 3.21459 7.1576 2.50935L7.4001 2.40768ZM10.0001 13.5827C10.0001 14.7983 9.51722 15.964 8.65768 16.8236C7.79813 17.6831 6.63235 18.166 5.41677 18.166C4.20119 18.166 3.03541 17.6831 2.17586 16.8236C1.31632 15.964 0.833437 14.7983 0.833437 13.5827C0.833437 12.3671 1.31632 11.2013 2.17586 10.3418C3.03541 9.48223 4.20119 8.99935 5.41677 8.99935C6.63235 8.99935 7.79813 9.48223 8.65768 10.3418C9.51722 11.2013 10.0001 12.3671 10.0001 13.5827ZM4.46177 11.7943C4.54001 11.7162 4.58401 11.6102 4.58409 11.4996C4.58416 11.3891 4.54031 11.283 4.46219 11.2048C4.38406 11.1265 4.27805 11.0825 4.16748 11.0824C4.05691 11.0824 3.95084 11.1262 3.8726 11.2043L2.6226 12.4543C2.5838 12.4931 2.55302 12.539 2.53201 12.5897C2.511 12.6403 2.50019 12.6945 2.50019 12.7493C2.50019 12.8042 2.511 12.8584 2.53201 12.909C2.55302 12.9597 2.5838 13.0056 2.6226 13.0443L3.8726 14.2943C3.91134 14.333 3.95732 14.3637 4.00792 14.3846C4.05851 14.4055 4.11273 14.4163 4.16748 14.4162C4.27805 14.4162 4.38406 14.3722 4.46219 14.2939C4.54031 14.2157 4.58416 14.1096 4.58409 13.9991C4.58401 13.8885 4.54001 13.7825 4.46177 13.7043L3.92344 13.166H5.6251C6.12238 13.166 6.5993 13.3636 6.95093 13.7152C7.30256 14.0668 7.5001 14.5437 7.5001 15.041V15.2493C7.5001 15.3599 7.544 15.4658 7.62214 15.544C7.70028 15.6221 7.80626 15.666 7.91677 15.666C8.02728 15.666 8.13326 15.6221 8.2114 15.544C8.28954 15.4658 8.33344 15.3599 8.33344 15.2493V15.041C8.33344 14.3227 8.04809 13.6338 7.54018 13.1259C7.03227 12.618 6.3434 12.3327 5.6251 12.3327H3.9226L4.46177 11.7943Z" fill="white"/>
</svg>
