<svg width="20" height="20" viewBox="0 0 20 20" fill="none" xmlns="http://www.w3.org/2000/svg">
<path d="M6.25033 3.33366C6.71056 3.33366 7.08366 2.96056 7.08366 2.50033C7.08366 2.04009 6.71056 1.66699 6.25033 1.66699H5.00033C3.15938 1.66699 1.66699 3.15938 1.66699 5.00033V15.0003C1.66699 16.8413 3.15938 18.3337 5.00033 18.3337H6.25033C6.71056 18.3337 7.08366 17.9606 7.08366 17.5003C7.08366 17.0401 6.71056 16.667 6.25033 16.667H5.00033C4.07985 16.667 3.33366 15.9208 3.33366 15.0003L3.33366 5.00033C3.33366 4.07985 4.07985 3.33366 5.00033 3.33366H6.25033Z" fill="#667185"/>
<path d="M18.9229 10.5896C19.2484 10.2641 19.2484 9.73651 18.9229 9.41107L15.5896 6.07774C15.2641 5.7523 14.7365 5.7523 14.4111 6.07774C14.0856 6.40317 14.0856 6.93081 14.4111 7.25625L16.3218 9.16699L6.66699 9.16699C6.20675 9.16699 5.83366 9.54009 5.83366 10.0003C5.83366 10.4606 6.20675 10.8337 6.66699 10.8337L16.3218 10.8337L14.4111 12.7444C14.0856 13.0698 14.0856 13.5975 14.4111 13.9229C14.7365 14.2484 15.2641 14.2484 15.5896 13.9229L18.9229 10.5896Z" fill="#667185"/>
</svg>
