<svg width="16" height="17" viewBox="0 0 16 17" fill="none" xmlns="http://www.w3.org/2000/svg">
<path fill-rule="evenodd" clip-rule="evenodd" d="M2.16689 6.46839C2.16689 4.8979 2.78147 3.39174 3.87544 2.28125C4.9694 1.17075 6.45313 0.546875 8.00023 0.546875C9.54732 0.546875 11.0311 1.17075 12.125 2.28125C13.219 3.39174 13.8336 4.8979 13.8336 6.46839V9.65247L15.3519 12.735C15.4218 12.8769 15.4548 13.0346 15.4478 13.1931C15.4407 13.3515 15.3939 13.5055 15.3118 13.6405C15.2296 13.7754 15.1148 13.8868 14.9783 13.964C14.8418 14.0413 14.6882 14.0818 14.5319 14.0818H11.2286C11.0432 14.8078 10.6256 15.4507 10.0413 15.9098C9.45697 16.3688 8.73906 16.6178 8.00023 16.6178C7.2614 16.6178 6.54348 16.3688 5.95917 15.9098C5.37487 15.4507 4.95726 14.8078 4.77189 14.0818H1.46856C1.31229 14.0818 1.15861 14.0413 1.02212 13.964C0.88562 13.8868 0.770842 13.7754 0.688681 13.6405C0.60652 13.5055 0.559706 13.3515 0.552684 13.1931C0.545662 13.0346 0.578665 12.8769 0.64856 12.735L2.16689 9.65247V6.46839ZM6.55689 14.0818C6.70318 14.3389 6.91357 14.5525 7.16693 14.701C7.42029 14.8495 7.70768 14.9276 8.00023 14.9276C8.29277 14.9276 8.58017 14.8495 8.83352 14.701C9.08688 14.5525 9.29727 14.3389 9.44356 14.0818H6.55689ZM8.00023 2.23874C6.89516 2.23874 5.83535 2.68436 5.05395 3.47757C4.27255 4.27079 3.83356 5.34661 3.83356 6.46839V9.65247C3.83354 9.91499 3.77334 10.1739 3.65773 10.4087L2.68273 12.3899H13.3186L12.3436 10.4087C12.2277 10.174 12.1672 9.91506 12.1669 9.65247V6.46839C12.1669 5.34661 11.7279 4.27079 10.9465 3.47757C10.1651 2.68436 9.1053 2.23874 8.00023 2.23874Z" fill="#667185"/>
</svg>
