<svg width="16" height="16" viewBox="0 0 16 16" fill="none" xmlns="http://www.w3.org/2000/svg">
<path d="M14.6668 7.16658C14.463 5.7001 13.7827 4.3413 12.7307 3.2995C11.6787 2.25769 10.3133 1.59068 8.84489 1.40121C7.37648 1.21174 5.88651 1.51032 4.6045 2.25096C3.32248 2.99159 2.31954 4.1332 1.75016 5.49992M1.3335 2.16658V5.49992H4.66683M1.3335 8.83325C1.5373 10.2997 2.21761 11.6585 3.26963 12.7003C4.32166 13.7421 5.68703 14.4092 7.15544 14.5986C8.62384 14.7881 10.1138 14.4895 11.3958 13.7489C12.6778 13.0082 13.6808 11.8666 14.2502 10.4999M14.6668 13.8333V10.4999H11.3335" stroke="#1CBD5D" stroke-width="1.66667" stroke-linecap="round" stroke-linejoin="round"/>
</svg>
