<svg width="16" height="16" viewBox="0 0 16 16" fill="none" xmlns="http://www.w3.org/2000/svg">
    <path d="M7.66683 14.5C3.90016 14.5 0.833496 11.4333 0.833496 7.66665C0.833496 3.89998 3.90016 0.833313 7.66683 0.833313C11.4335 0.833313 14.5002 3.89998 14.5002 7.66665C14.5002 11.4333 11.4335 14.5 7.66683 14.5ZM7.66683 1.83331C4.44683 1.83331 1.8335 4.45331 1.8335 7.66665C1.8335 10.88 4.44683 13.5 7.66683 13.5C10.8868 13.5 13.5002 10.88 13.5002 7.66665C13.5002 4.45331 10.8868 1.83331 7.66683 1.83331Z" fill="#596980"/>
    <path d="M14.6671 15.1666C14.5404 15.1666 14.4138 15.12 14.3138 15.02L12.9804 13.6866C12.7871 13.4933 12.7871 13.1733 12.9804 12.98C13.1738 12.7866 13.4938 12.7866 13.6871 12.98L15.0205 14.3133C15.2138 14.5066 15.2138 14.8266 15.0205 15.02C14.9205 15.12 14.7938 15.1666 14.6671 15.1666Z" fill="#596980"/>
    </svg>
    