<svg width="16" height="16" viewBox="0 0 16 16" fill="none" xmlns="http://www.w3.org/2000/svg">
<mask id="path-1-inside-1_8603_406" fill="white">
<path d="M7.66634 14.5C3.89967 14.5 0.833008 11.4333 0.833008 7.66665C0.833008 3.89998 3.89967 0.833313 7.66634 0.833313C11.433 0.833313 14.4997 3.89998 14.4997 7.66665C14.4997 11.4333 11.433 14.5 7.66634 14.5ZM7.66634 1.83331C4.44634 1.83331 1.83301 4.45331 1.83301 7.66665C1.83301 10.88 4.44634 13.5 7.66634 13.5C10.8863 13.5 13.4997 10.88 13.4997 7.66665C13.4997 4.45331 10.8863 1.83331 7.66634 1.83331Z"/>
</mask>
<path d="M7.66634 14.5C3.89967 14.5 0.833008 11.4333 0.833008 7.66665C0.833008 3.89998 3.89967 0.833313 7.66634 0.833313C11.433 0.833313 14.4997 3.89998 14.4997 7.66665C14.4997 11.4333 11.433 14.5 7.66634 14.5ZM7.66634 1.83331C4.44634 1.83331 1.83301 4.45331 1.83301 7.66665C1.83301 10.88 4.44634 13.5 7.66634 13.5C10.8863 13.5 13.4997 10.88 13.4997 7.66665C13.4997 4.45331 10.8863 1.83331 7.66634 1.83331Z" fill="#292D32"/>
<path d="M7.66634 13.5C4.45196 13.5 1.83301 10.881 1.83301 7.66665H-0.166992C-0.166992 11.9856 3.34739 15.5 7.66634 15.5V13.5ZM1.83301 7.66665C1.83301 4.45226 4.45196 1.83331 7.66634 1.83331V-0.166687C3.34739 -0.166687 -0.166992 3.34769 -0.166992 7.66665H1.83301ZM7.66634 1.83331C10.8807 1.83331 13.4997 4.45226 13.4997 7.66665H15.4997C15.4997 3.34769 11.9853 -0.166687 7.66634 -0.166687V1.83331ZM13.4997 7.66665C13.4997 10.881 10.8807 13.5 7.66634 13.5V15.5C11.9853 15.5 15.4997 11.9856 15.4997 7.66665H13.4997ZM7.66634 0.833313C3.89331 0.833313 0.833008 3.90177 0.833008 7.66665H2.83301C2.83301 5.00485 4.99937 2.83331 7.66634 2.83331V0.833313ZM0.833008 7.66665C0.833008 11.4315 3.89331 14.5 7.66634 14.5V12.5C4.99937 12.5 2.83301 10.3284 2.83301 7.66665H0.833008ZM7.66634 14.5C11.4394 14.5 14.4997 11.4315 14.4997 7.66665H12.4997C12.4997 10.3284 10.3333 12.5 7.66634 12.5V14.5ZM14.4997 7.66665C14.4997 3.90177 11.4394 0.833313 7.66634 0.833313V2.83331C10.3333 2.83331 12.4997 5.00485 12.4997 7.66665H14.4997Z" fill="white" mask="url(#path-1-inside-1_8603_406)"/>
<mask id="path-3-inside-2_8603_406" fill="white">
<path d="M14.6666 15.1666C14.54 15.1666 14.4133 15.12 14.3133 15.02L12.98 13.6866C12.7866 13.4933 12.7866 13.1733 12.98 12.98C13.1733 12.7866 13.4933 12.7866 13.6866 12.98L15.02 14.3133C15.2133 14.5066 15.2133 14.8266 15.02 15.02C14.92 15.12 14.7933 15.1666 14.6666 15.1666Z"/>
</mask>
<path d="M14.6666 15.1666C14.54 15.1666 14.4133 15.12 14.3133 15.02L12.98 13.6866C12.7866 13.4933 12.7866 13.1733 12.98 12.98C13.1733 12.7866 13.4933 12.7866 13.6866 12.98L15.02 14.3133C15.2133 14.5066 15.2133 14.8266 15.02 15.02C14.92 15.12 14.7933 15.1666 14.6666 15.1666Z" fill="#292D32"/>
<path d="M14.3133 15.02L13.6062 15.7271L14.3133 15.02ZM12.98 13.6866L13.6871 12.9795L12.98 13.6866ZM13.6866 12.98L12.9795 13.6871L13.6866 12.98ZM15.02 14.3133L15.7271 13.6062L15.02 14.3133ZM14.6666 14.1666C14.7909 14.1666 14.923 14.2154 15.0204 14.3129L13.6062 15.7271C13.9036 16.0245 14.2891 16.1666 14.6666 16.1666V14.1666ZM15.0204 14.3129L13.6871 12.9795L12.2729 14.3937L13.6062 15.7271L15.0204 14.3129ZM13.6871 12.9795C13.8843 13.1767 13.8843 13.4899 13.6871 13.6871L12.2729 12.2729C11.689 12.8567 11.689 13.8099 12.2729 14.3937L13.6871 12.9795ZM13.6871 13.6871C13.4899 13.8843 13.1767 13.8843 12.9795 13.6871L14.3937 12.2729C13.8099 11.689 12.8567 11.689 12.2729 12.2729L13.6871 13.6871ZM12.9795 13.6871L14.3129 15.0204L15.7271 13.6062L14.3937 12.2729L12.9795 13.6871ZM14.3129 15.0204C14.1157 14.8232 14.1157 14.51 14.3129 14.3129L15.7271 15.7271C16.3109 15.1432 16.3109 14.19 15.7271 13.6062L14.3129 15.0204ZM14.3129 14.3129C14.4103 14.2154 14.5424 14.1666 14.6666 14.1666V16.1666C15.0442 16.1666 15.4296 16.0245 15.7271 15.7271L14.3129 14.3129Z" fill="white" mask="url(#path-3-inside-2_8603_406)"/>
</svg>
