<svg width="18" height="14" viewBox="0 0 18 14" fill="none" xmlns="http://www.w3.org/2000/svg">
<path d="M3.16699 11.0465C3.16699 11.4886 3.34259 11.9125 3.65515 12.2251C3.96771 12.5376 4.39163 12.7132 4.83366 12.7132C5.27569 12.7132 5.69961 12.5376 6.01217 12.2251C6.32473 11.9125 6.50033 11.4886 6.50033 11.0465C6.50033 10.6045 6.32473 10.1806 6.01217 9.86804C5.69961 9.55548 5.27569 9.37988 4.83366 9.37988C4.39163 9.37988 3.96771 9.55548 3.65515 9.86804C3.34259 10.1806 3.16699 10.6045 3.16699 11.0465ZM11.5003 11.0465C11.5003 11.4886 11.6759 11.9125 11.9885 12.2251C12.301 12.5376 12.725 12.7132 13.167 12.7132C13.609 12.7132 14.0329 12.5376 14.3455 12.2251C14.6581 11.9125 14.8337 11.4886 14.8337 11.0465C14.8337 10.6045 14.6581 10.1806 14.3455 9.86804C14.0329 9.55548 13.609 9.37988 13.167 9.37988C12.725 9.37988 12.301 9.55548 11.9885 9.86804C11.6759 10.1806 11.5003 10.6045 11.5003 11.0465Z" stroke="#667185" stroke-width="1.66667" stroke-linecap="round" stroke-linejoin="round"/>
<path d="M3.16667 11.0469H1.5V1.88021C1.5 1.65919 1.5878 1.44723 1.74408 1.29095C1.90036 1.13467 2.11232 1.04688 2.33333 1.04688H9.83333V11.0469M6.5 11.0469H11.5M14.8333 11.0469H16.5V6.04687M16.5 6.04687H9.83333M16.5 6.04687L14 1.88021H9.83333" stroke="#667185" stroke-width="1.66667" stroke-linecap="round" stroke-linejoin="round"/>
</svg>
