<svg width="32" height="32" viewBox="0 0 32 32" fill="none" xmlns="http://www.w3.org/2000/svg">
    <path opacity="0.4" d="M16.0003 29.3337C23.3641 29.3337 29.3337 23.3641 29.3337 16.0003C29.3337 8.63653 23.3641 2.66699 16.0003 2.66699C8.63653 2.66699 2.66699 8.63653 2.66699 16.0003C2.66699 23.3641 8.63653 29.3337 16.0003 29.3337Z" fill="#186048"/>
    <path d="M14.1069 20.7735C13.8402 20.7735 13.5869 20.6668 13.4002 20.4801L9.62691 16.7068C9.24025 16.3201 9.24025 15.6801 9.62691 15.2935C10.0136 14.9068 10.6536 14.9068 11.0402 15.2935L14.1069 18.3601L20.9602 11.5068C21.3469 11.1201 21.9869 11.1201 22.3736 11.5068C22.7602 11.8935 22.7602 12.5335 22.3736 12.9201L14.8136 20.4801C14.6269 20.6668 14.3736 20.7735 14.1069 20.7735Z" fill="#186048"/>
    </svg>
    