<svg width="16" height="19" viewBox="0 0 16 19" fill="none" xmlns="http://www.w3.org/2000/svg">
<path d="M14.6667 3.16602C14.8877 3.16602 15.0996 3.25381 15.2559 3.41009C15.4122 3.56637 15.5 3.77834 15.5 3.99935C15.5 4.22036 15.4122 4.43232 15.2559 4.5886C15.0996 4.74488 14.8877 4.83268 14.6667 4.83268H13.8333L13.8308 4.89185L13.0533 15.7843C13.0234 16.2048 12.8352 16.5984 12.5268 16.8857C12.2183 17.173 11.8124 17.3327 11.3908 17.3327H4.60833C4.18678 17.3327 3.78089 17.173 3.4724 16.8857C3.16392 16.5984 2.97576 16.2048 2.94583 15.7843L2.16833 4.89268L2.16667 4.83268H1.33333C1.11232 4.83268 0.900358 4.74488 0.744078 4.5886C0.587797 4.43232 0.5 4.22036 0.5 3.99935C0.5 3.77834 0.587797 3.56637 0.744078 3.41009C0.900358 3.25381 1.11232 3.16602 1.33333 3.16602H14.6667ZM12.1642 4.83268H3.83583L4.60917 15.666H11.3908L12.1642 4.83268ZM9.66667 0.666016C9.88768 0.666016 10.0996 0.753813 10.2559 0.910093C10.4122 1.06637 10.5 1.27834 10.5 1.49935C10.5 1.72036 10.4122 1.93232 10.2559 2.0886C10.0996 2.24488 9.88768 2.33268 9.66667 2.33268H6.33333C6.11232 2.33268 5.90036 2.24488 5.74408 2.0886C5.5878 1.93232 5.5 1.72036 5.5 1.49935C5.5 1.27834 5.5878 1.06637 5.74408 0.910093C5.90036 0.753813 6.11232 0.666016 6.33333 0.666016H9.66667Z" fill="#FF001C"/>
</svg>
