<svg width="34" height="30" viewBox="0 0 34 30" fill="none" xmlns="http://www.w3.org/2000/svg">
<path d="M17.0002 6.66667V3.33333C17.0002 1.5 15.5002 0 13.6668 0H3.66683C1.8335 0 0.333496 1.5 0.333496 3.33333V26.6667C0.333496 28.5 1.8335 30 3.66683 30H30.3335C32.1668 30 33.6668 28.5 33.6668 26.6667V10C33.6668 8.16667 32.1668 6.66667 30.3335 6.66667H17.0002ZM7.00016 26.6667H3.66683V23.3333H7.00016V26.6667ZM7.00016 20H3.66683V16.6667H7.00016V20ZM7.00016 13.3333H3.66683V10H7.00016V13.3333ZM7.00016 6.66667H3.66683V3.33333H7.00016V6.66667ZM13.6668 26.6667H10.3335V23.3333H13.6668V26.6667ZM13.6668 20H10.3335V16.6667H13.6668V20ZM13.6668 13.3333H10.3335V10H13.6668V13.3333ZM13.6668 6.66667H10.3335V3.33333H13.6668V6.66667ZM28.6668 26.6667H17.0002V23.3333H20.3335V20H17.0002V16.6667H20.3335V13.3333H17.0002V10H28.6668C29.5835 10 30.3335 10.75 30.3335 11.6667V25C30.3335 25.9167 29.5835 26.6667 28.6668 26.6667ZM27.0002 13.3333H23.6668V16.6667H27.0002V13.3333ZM27.0002 20H23.6668V23.3333H27.0002V20Z" fill="#A9B5CB"/>
</svg>
