<svg width="26" height="26" viewBox="0 0 26 26" fill="none" xmlns="http://www.w3.org/2000/svg">
<path d="M23.6225 10.8786H22.7498V10.8337H12.9998V15.167H19.1223C18.2291 17.6895 15.829 19.5003 12.9998 19.5003C9.41021 19.5003 6.49984 16.59 6.49984 13.0003C6.49984 9.4107 9.41021 6.50033 12.9998 6.50033C14.6568 6.50033 16.1643 7.12541 17.312 8.14645L20.3763 5.08224C18.4414 3.27903 15.8533 2.16699 12.9998 2.16699C7.01713 2.16699 2.1665 7.01762 2.1665 13.0003C2.1665 18.983 7.01713 23.8337 12.9998 23.8337C18.9825 23.8337 23.8332 18.983 23.8332 13.0003C23.8332 12.274 23.7584 11.5649 23.6225 10.8786Z" fill="#FFC107"/>
<path d="M3.41553 7.95795L6.97482 10.5682C7.9379 8.18383 10.2703 6.50033 12.9998 6.50033C14.6567 6.50033 16.1642 7.12541 17.312 8.14645L20.3762 5.08224C18.4414 3.27903 15.8533 2.16699 12.9998 2.16699C8.83869 2.16699 5.23011 4.5162 3.41553 7.95795Z" fill="#FF3D00"/>
<path d="M12.9998 23.8337C15.7981 23.8337 18.3407 22.7628 20.2631 21.0214L16.9101 18.1841C15.7861 19.0394 14.4123 19.5019 12.9998 19.5004C10.1821 19.5004 7.78955 17.7037 6.88822 15.1963L3.35547 17.9182C5.14839 21.4265 8.78947 23.8337 12.9998 23.8337Z" fill="#4CAF50"/>
<path d="M23.6226 10.878H22.75V10.833H13V15.1663H19.1225C18.6952 16.3669 17.9256 17.416 16.9087 18.184L16.9103 18.1829L20.2632 21.0201C20.026 21.2357 23.8333 18.4163 23.8333 12.9997C23.8333 12.2733 23.7586 11.5643 23.6226 10.878Z" fill="#1976D2"/>
</svg>
