<svg width="24" height="24" viewBox="0 0 24 24" fill="none" xmlns="http://www.w3.org/2000/svg">
<path d="M12.0002 11.642C10.6157 11.642 9.43627 11.1548 8.46183 10.1803C7.48739 9.20588 7.00016 8.02644 7.00016 6.64199V2.05866C7.00016 1.53533 7.17905 1.08921 7.53683 0.720325C7.89461 0.351436 8.33572 0.166992 8.86016 0.166992C9.19127 0.166992 9.49072 0.243103 9.7585 0.395326C10.0263 0.546437 10.2502 0.749214 10.4302 1.00366C10.6091 0.749214 10.8329 0.546437 11.1018 0.395326C11.3696 0.243103 11.6691 0.166992 12.0002 0.166992C12.3313 0.166992 12.6313 0.243103 12.9002 0.395326C13.1691 0.547548 13.3924 0.750325 13.5702 1.00366C13.7502 0.749214 13.9741 0.546437 14.2418 0.395326C14.5096 0.243103 14.8096 0.166992 15.1418 0.166992C15.6641 0.166992 16.1046 0.351436 16.4635 0.720325C16.8213 1.08921 17.0002 1.53533 17.0002 2.05866V6.64199C17.0002 8.02644 16.5129 9.20588 15.5385 10.1803C14.5641 11.1548 13.3846 11.642 12.0002 11.642ZM0.333496 23.692V20.9503C0.333496 20.2625 0.533496 19.6192 0.933496 19.0203C1.33461 18.4203 1.8735 17.9548 2.55016 17.6237C4.1235 16.8692 5.69794 16.3037 7.2735 15.927C8.84794 15.5492 10.4235 15.3603 12.0002 15.3603C13.5768 15.3603 15.1529 15.5492 16.7285 15.927C18.3041 16.3048 19.8774 16.8703 21.4485 17.6237C22.1263 17.9548 22.6652 18.4203 23.0652 19.0203C23.4663 19.6192 23.6668 20.2625 23.6668 20.9503V23.6937L0.333496 23.692Z" fill="#1CBD5D"/>
</svg>
