<svg width="19" height="19" viewBox="0 0 19 19" fill="none" xmlns="http://www.w3.org/2000/svg">
<path d="M10.3081 13.1302L10.3841 12.0662L11.3111 11.5372C12.2014 11.0218 13.0192 10.3902 13.7431 9.65915C16.3831 7.01816 17.1891 3.91316 16.2181 2.94116C15.2461 1.97116 12.1411 2.77516 9.50005 5.41616C8.74005 6.17616 8.10305 7.00616 7.62205 7.84816L7.09205 8.77516L6.02905 8.85116C5.15666 8.91212 4.3288 9.25943 3.67405 9.83916C4.92382 10.3895 6.06019 11.1678 7.02505 12.1342C8.00505 13.1142 8.77705 14.2512 9.32005 15.4852C9.89978 14.8304 10.2471 14.0025 10.3081 13.1302ZM7.33505 15.9592C7.13303 16.2319 6.91145 16.4896 6.67205 16.7302C5.50005 17.9022 3.73205 18.2555 1.36805 17.7902C0.904717 15.4268 1.25805 13.6592 2.42805 12.4872C2.67605 12.2405 2.93338 12.0195 3.20005 11.8242C2.38011 11.424 1.5041 11.1509 0.602051 11.0142C0.893414 10.1029 1.39846 9.27454 2.07505 8.59816C3.09361 7.57744 4.44668 6.95915 5.88505 6.85716C6.48847 5.8121 7.2283 4.852 8.08505 4.00216C11.4051 0.682155 15.6791 -0.424845 17.6321 1.52716C19.5841 3.48016 18.476 7.75415 15.1571 11.0732C14.3072 11.9299 13.3471 12.6697 12.3021 13.2732C12.2001 14.7115 11.5818 16.0646 10.5611 17.0832C9.88575 17.7613 9.05705 18.2669 8.14505 18.5572C8.0083 17.6551 7.73517 16.7791 7.33505 15.9592ZM5.61005 13.5492C5.44903 13.3877 5.26747 13.2482 5.07005 13.1342C4.63805 13.2842 4.13005 13.6142 3.66505 14.0782C3.44605 14.2982 3.17805 15.0372 3.17505 15.9832C4.12105 15.9802 4.86305 15.7092 5.08005 15.4932C5.54505 15.0272 5.87505 14.5202 6.02405 14.0882C5.9103 13.8908 5.77111 13.7092 5.61005 13.5482V13.5492ZM13.3881 5.76916C13.2904 5.67743 13.2121 5.56701 13.158 5.44445C13.1038 5.32189 13.0748 5.1897 13.0727 5.05572C13.0706 4.92174 13.0955 4.78871 13.1458 4.66453C13.1962 4.54035 13.271 4.42755 13.3657 4.33283C13.4605 4.23812 13.5734 4.16342 13.6976 4.11317C13.8218 4.06292 13.9549 4.03815 14.0888 4.04032C14.2228 4.0425 14.355 4.07158 14.4775 4.12583C14.6 4.18009 14.7104 4.25841 14.8021 4.35616C14.9745 4.54632 15.0672 4.79551 15.0609 5.05213C15.0547 5.30875 14.95 5.55315 14.7686 5.73473C14.5871 5.9163 14.3428 6.02115 14.0862 6.02756C13.8296 6.03397 13.5803 5.94145 13.3901 5.76916H13.3881Z" fill="#667185"/>
</svg>
