<svg width="146" height="41" viewBox="0 0 146 41" fill="none" xmlns="http://www.w3.org/2000/svg">
<g clip-path="url(#clip0_1134_14080)">
<path d="M29.1574 9.14659C32.5012 11.7798 34.4121 15.3782 34.9974 19.5813C35.2567 23.7973 33.7042 27.7625 30.9179 30.9178C27.0867 34.1508 23.493 35.1107 18.5777 34.7717C15.0715 34.4027 11.8407 32.3636 9.57081 29.7168C6.8799 26.0026 5.9801 22.1505 6.67362 17.5886C7.60891 13.5318 10.2891 10.3717 13.7535 8.13748C18.6939 5.46597 24.561 6.03618 29.1574 9.14659Z" fill="#C2F1D9"/>
<path d="M1.71765 22.6729C1.94438 22.6729 2.17111 22.6729 2.40471 22.6729C2.85022 23.2136 2.85022 23.2136 3.34941 23.9396C4.03894 24.8992 4.69729 25.6764 5.62529 26.4087C5.92288 26.6496 6.22046 26.8905 6.52706 27.1387C6.52706 27.3655 6.52706 27.5922 6.52706 27.8258C5.84687 27.9392 5.16668 28.0525 4.46588 28.1693C7.71992 32.5311 11.2708 36.0467 16.8329 37.1011C23.1789 37.7047 28.2442 36.5049 33.215 32.399C36.1087 29.7044 37.5486 26.3547 38.8188 22.6729C39.1589 22.8429 39.1589 22.8429 39.5059 23.0164C39.376 28.2479 36.9361 32.7728 33.2096 36.3429C28.7279 40.0449 23.6414 41.3875 17.8635 40.8799C13.2568 40.1683 8.34346 37.8587 5.49647 34.0093C2.74824 29.796 2.74824 29.796 2.74824 28.1693C1.38786 28.8495 1.38786 28.8495 0 29.5434C0.493343 27.2285 1.07871 24.9517 1.71765 22.6729Z" fill="#1CBD5D"/>
<path d="M31.2616 3.09218C32.4921 4.0464 33.6043 5.0757 34.6968 6.18395C34.8944 6.37791 35.0919 6.57187 35.2953 6.7717C36.9122 8.48907 37.8363 10.5885 38.8192 12.711C39.0247 12.5339 39.2301 12.3567 39.4418 12.1742C39.6898 12.0113 39.9378 11.8483 40.1933 11.6804C40.7035 11.8505 40.7035 11.8505 41.2239 12.0239C41.1287 12.3264 41.0335 12.6289 40.9354 12.9405C40.811 13.3395 40.6865 13.7385 40.5583 14.1495C40.4348 14.5441 40.3112 14.9387 40.1839 15.3452C39.9056 16.2987 39.681 17.2308 39.5063 18.2075C38.3553 17.8238 38.0809 17.5054 37.3163 16.5972C37.1077 16.3514 36.8991 16.1056 36.6842 15.8524C36.4818 15.6093 36.2795 15.3662 36.071 15.1157C35.8934 14.9045 35.7158 14.6933 35.5329 14.4756C35.1375 14.0037 34.7451 13.5294 34.3533 13.0545C35.0335 12.9412 35.7137 12.8278 36.4145 12.711C33.7853 8.25681 30.1505 5.76114 25.3062 4.06507C20.4432 2.96079 15.3797 3.61067 11.0403 6.04975C10.1735 6.62324 9.38199 7.23081 8.58861 7.90159C8.34993 8.09821 8.11124 8.29483 7.86532 8.4974C5.07795 11.0206 3.19814 14.6556 2.06155 18.2075C1.94819 18.2075 1.83483 18.2075 1.71803 18.2075C1.39837 13.4126 3.54697 9.4042 6.54891 5.79748C13.0392 -1.08226 23.3664 -1.82627 31.2616 3.09218Z" fill="#1CBD5D"/>
<path d="M18.5508 12.7104C18.6641 12.9372 18.7775 13.1639 18.8943 13.3975C19.8209 13.6009 20.7169 13.737 21.6667 13.7531C22.394 13.784 22.394 13.784 23.7037 14.0846C24.3264 15.201 24.3264 15.201 24.7343 16.4893C24.9256 16.8081 25.1169 17.1269 25.314 17.4554C25.7649 18.2069 25.7649 18.2069 25.7649 18.894C26.2183 19.0073 26.6718 19.1207 27.139 19.2375C26.9902 19.4328 26.8414 19.6281 26.6881 19.8293C25.4177 21.5021 25.4177 21.5021 25.0993 23.5102C25.0617 25.6544 23.4654 27.377 21.9861 28.8563C21.0843 28.8993 21.0843 28.8993 20.2684 28.8563C19.5343 26.9294 19.2378 25.433 19.2378 23.3599C18.9536 22.3059 18.5957 21.2878 18.2072 20.2681C17.2303 20.0382 16.4667 19.9265 15.459 20.0104C14.4284 19.9246 14.4284 19.9246 13.4408 19.1946C12.7108 18.2069 12.7108 18.2069 12.4531 17.2622C12.8489 15.5474 13.8922 14.2982 15.1155 13.054C16.3086 12.6563 17.3006 12.6869 18.5508 12.7104Z" fill="#F3C61F"/>
<path d="M18.8942 6.52711C23.1283 6.22164 26.7193 7.2382 30.0777 9.86712C32.0192 11.6753 33.5566 13.9508 34.353 16.4895C34.2688 17.7252 34.0212 18.1895 33.3224 19.2377C33.0957 17.9907 32.869 16.7437 32.6354 15.4589C31.8418 15.3455 31.0483 15.2321 30.2307 15.1153C30.5708 15.3421 30.9108 15.5688 31.2612 15.8024C31.1968 16.5968 31.1968 16.5968 30.9177 17.52C29.923 18.2791 29.4297 18.5506 28.1695 18.5506C27.9956 18.1149 27.8243 17.6781 27.6542 17.2409C27.5585 16.9978 27.4629 16.7547 27.3643 16.5042C27.1389 15.8024 27.1389 15.8024 27.1389 14.7718C26.9122 14.7718 26.6854 14.7718 26.4518 14.7718C26.3385 14.4317 26.2251 14.0916 26.1083 13.7412C26.335 13.7412 26.5618 13.7412 26.7954 13.7412C26.9087 13.2878 27.0221 12.8343 27.1389 12.3671C26.5721 12.3671 26.0052 12.3671 25.4212 12.3671C25.4212 11.9136 25.4212 11.4602 25.4212 10.993C26.1014 10.8796 26.7816 10.7663 27.4824 10.6495C27.3691 10.3094 27.2557 9.96927 27.1389 9.61887C26.7988 9.73224 26.4587 9.8456 26.1083 9.9624C25.8816 9.84904 25.6548 9.73567 25.4212 9.61887C25.3079 10.0723 25.1945 10.5258 25.0777 10.993C24.7376 10.993 24.3975 10.993 24.0471 10.993C23.9338 11.3331 23.8204 11.6732 23.7036 12.0236C23.5902 11.5701 23.4769 11.1167 23.3601 10.6495C22.9066 10.5361 22.4531 10.4227 21.9859 10.3059C22.0993 10.5327 22.2127 10.7594 22.3295 10.993C21.4226 10.8796 20.5156 10.7663 19.5812 10.6495C19.4466 10.8762 19.312 11.1029 19.1733 11.3365C18.5507 12.0236 18.5507 12.0236 17.6274 12.1095C17.3653 12.0811 17.1031 12.0528 16.833 12.0236C16.833 11.4568 16.833 10.8899 16.833 10.3059C17.3998 10.3059 17.9667 10.3059 18.5507 10.3059C18.4373 9.73911 18.3239 9.17228 18.2071 8.58828C19.1183 8.2189 20.0222 7.86874 20.9554 7.55769C20.9554 7.33097 20.9554 7.10424 20.9554 6.87064C20.2752 6.984 19.595 7.09737 18.8942 7.21417C18.8942 6.98744 18.8942 6.76071 18.8942 6.52711Z" fill="#2DB674"/>
<path d="M130.885 12.7106C131.907 13.3207 132.75 14.0349 133.29 15.1153C133.441 16.5976 133.451 17.8453 132.839 19.2162C132.13 20.0821 131.561 20.5632 130.437 20.7272C129.019 20.7487 128.054 20.7506 126.784 20.075C125.905 19.0362 125.511 18.1085 125.045 16.8329C124.783 17.003 124.521 17.173 124.251 17.3482C123.327 17.8635 123.327 17.8635 122.297 17.8635C122.297 18.7704 122.297 19.6774 122.297 20.6118C121.73 20.6118 121.163 20.6118 120.579 20.6118C120.579 18.1177 120.579 15.6237 120.579 13.0541C124.358 13.0541 124.358 13.0541 125.281 13.9129C125.43 14.1963 125.579 14.4798 125.732 14.7718C125.994 14.4954 126.256 14.2191 126.526 13.9344C127.906 12.6195 129.022 12.5211 130.885 12.7106ZM127.45 15.1153C126.989 16.2519 127.087 16.7696 127.45 17.9494C128.074 19.0069 128.074 19.0069 129.339 19.2591C130.488 19.3273 130.488 19.3273 131.207 18.8941C131.79 17.7967 131.74 17.0225 131.572 15.8023C130.827 14.7711 130.827 14.7711 129.854 14.0847C128.626 14.0847 128.319 14.2749 127.45 15.1153ZM122.297 14.4282C122.297 15.1084 122.297 15.7886 122.297 16.4894C122.75 16.2627 123.204 16.0359 123.671 15.8023C123.558 15.3489 123.444 14.8954 123.327 14.4282C122.987 14.4282 122.647 14.4282 122.297 14.4282Z" fill="#1CBD5D"/>
<path d="M82.4474 2.40506C82.6741 2.51842 82.9008 2.63179 83.1344 2.74859C83.1344 3.31541 83.1344 3.88223 83.1344 4.46623C82.4523 4.35441 81.7702 4.24258 81.088 4.13075C80.2771 4.05545 80.2771 4.05545 79.3556 4.80976C78.9784 6.02205 78.9346 6.66131 79.3771 7.85859C79.9921 8.68685 79.9921 8.68685 81.0303 8.73888C82.1494 8.58221 82.839 8.46144 83.8215 7.90153C84.3759 7.078 84.7493 6.19595 85.1312 5.28211C85.2381 5.03944 85.3451 4.79677 85.4553 4.54675C85.7175 3.94964 85.9726 3.3494 86.2262 2.74859C86.793 2.74859 87.3598 2.74859 87.9438 2.74859C88.4049 3.81368 88.8618 4.88051 89.318 5.9477C89.449 6.25038 89.5801 6.55305 89.7152 6.8649C89.9012 7.30164 89.9012 7.30164 90.0909 7.74721C90.206 8.01526 90.3212 8.28331 90.4398 8.55948C90.6921 9.27564 90.6921 9.27564 90.6921 10.3062C90.1253 10.3062 89.5584 10.3062 88.9744 10.3062C88.7477 9.51268 88.521 8.71913 88.2874 7.90153C87.3805 7.90153 86.4735 7.90153 85.5391 7.90153C85.4258 8.58172 85.3124 9.2619 85.1956 9.9627C83.0525 10.4441 80.7443 10.72 78.6685 9.89829C77.6356 8.96215 76.9945 8.26297 76.9053 6.81995C76.9888 5.34069 77.1716 4.62142 78.1103 3.43564C79.5543 2.33545 80.6728 2.34053 82.4474 2.40506ZM86.9133 5.15329C86.6865 5.60675 86.4598 6.06021 86.2262 6.52741C86.6797 6.41404 87.1331 6.30068 87.6003 6.18388C87.3736 5.84379 87.1469 5.50369 86.9133 5.15329Z" fill="#1CBD5D"/>
<path d="M72.4852 35.3838C72.8253 35.4972 73.1654 35.6105 73.5158 35.7273C73.2891 36.2941 73.0623 36.861 72.8287 37.445C73.2266 37.0833 73.2266 37.0833 73.5158 36.4144C74.3133 36.2745 75.1156 36.1587 75.9205 36.0708C76.0905 36.751 76.0905 36.751 76.264 37.445C76.3916 37.2253 76.5191 37.0057 76.6505 36.7794C77.494 35.8515 78.1348 35.8358 79.3558 35.7273C79.3558 36.0674 79.3558 36.4075 79.3558 36.7579C79.6959 36.7579 80.036 36.7579 80.3864 36.7579C80.0765 37.2691 79.7604 37.7766 79.4417 38.2823C79.1786 38.7068 79.1786 38.7068 78.9103 39.1398C78.2636 39.9244 77.9419 40.0747 76.9511 40.1932C76.859 39.9736 76.7669 39.7539 76.672 39.5276C76.3029 38.7053 76.3029 38.7053 75.2334 38.4756C75.0634 38.1355 75.0634 38.1355 74.8899 37.7885C74.7765 38.1286 74.6632 38.4687 74.5464 38.8191C74.3622 38.7482 74.1779 38.6774 73.9881 38.6044C73.1331 38.4028 73.1331 38.4028 72.2061 38.8191C70.8983 39.2294 70.0398 39.0707 68.7064 38.8191C68.1407 38.8191 67.5743 38.8264 67.0102 38.8674C66.2943 38.9054 65.6381 38.9197 64.9275 38.8191C64.2405 38.132 64.2405 38.132 63.897 37.445C63.6702 37.8984 63.4435 38.3519 63.2099 38.8191C62.5374 38.8468 61.8645 38.8669 61.1917 38.8835C60.6297 38.9014 60.6297 38.9014 60.0564 38.9197C59.7367 38.8865 59.417 38.8533 59.0875 38.8191C58.8608 38.479 58.6341 38.1389 58.4005 37.7885C58.2871 38.1286 58.1738 38.4687 58.057 38.8191C57.7169 38.7057 57.3768 38.5924 57.0264 38.4756C57.0264 37.7954 57.0264 37.1152 57.0264 36.4144C57.882 36.1783 58.5306 36.0708 59.4311 36.0708C59.6578 36.2976 59.8845 36.5243 60.1181 36.7579C60.3449 36.5312 60.5716 36.3044 60.8052 36.0708C61.3794 36.1766 61.9519 36.292 62.5228 36.4144C62.9826 36.3071 63.4405 36.1917 63.897 36.0708C65.1423 36.0064 65.1423 36.0064 66.3017 36.0708C66.5284 36.2976 66.7551 36.5243 66.9887 36.7579C67.1021 36.5312 67.2155 36.3044 67.3323 36.0708C68.0124 36.0708 68.6926 36.0708 69.3934 36.0708C69.5635 36.581 69.5635 36.581 69.737 37.1014C69.9637 36.7613 70.1904 36.4212 70.424 36.0708C70.7641 36.1842 71.1042 36.2976 71.4546 36.4144C71.568 36.4144 71.6813 36.4144 71.7981 36.4144C72.0249 36.0743 72.2516 35.7342 72.4852 35.3838ZM60.8052 37.1014C60.9186 37.4415 61.0319 37.7816 61.1487 38.132C61.4888 37.7919 61.8289 37.4518 62.1793 37.1014C61.7258 37.1014 61.2724 37.1014 60.8052 37.1014ZM67.6758 37.1014C68.0193 37.7885 68.0193 37.7885 68.0193 37.7885L67.6758 37.1014ZM77.2946 37.1014C77.6381 37.7885 77.6381 37.7885 77.6381 37.7885L77.2946 37.1014Z" fill="#1CBD5D"/>
<path d="M57.7129 2.74805C58.2797 2.74805 58.8465 2.74805 59.4305 2.74805C60.3374 4.78861 61.2443 6.82918 62.1787 8.93158C62.2921 6.89101 62.4055 4.85045 62.5223 2.74805C63.996 2.74805 65.4698 2.74805 66.9882 2.74805C66.7614 3.31487 66.5347 3.88169 66.3011 4.46569C65.4509 4.29565 65.4509 4.29565 64.5834 4.12216C64.5834 4.46226 64.5834 4.80235 64.5834 5.15275C65.6037 5.3228 65.6037 5.3228 66.6446 5.49628C66.4179 6.06311 66.1912 6.62993 65.9576 7.21393C65.1073 7.04388 65.1073 7.04388 64.2399 6.8704C64.3533 7.89068 64.4666 8.91096 64.5834 9.96216C63.1912 10.2997 61.8907 10.3337 60.4611 10.3057C60.2344 9.51214 60.0076 8.71859 59.774 7.90099C58.8671 7.90099 57.9602 7.90099 57.0258 7.90099C56.9124 8.58118 56.7991 9.26136 56.6823 9.96216C56.1154 10.0755 55.5486 10.1889 54.9646 10.3057C54.8513 10.079 54.7379 9.85223 54.6211 9.61864C54.8659 8.90994 54.8659 8.90994 55.2639 8.0486C55.4748 7.58695 55.4748 7.58695 55.6899 7.11597C55.8403 6.79403 55.9906 6.47209 56.1455 6.1404C56.369 5.65351 56.369 5.65351 56.5971 5.15678C56.9666 4.35273 57.3386 3.54992 57.7129 2.74805ZM58.3999 5.15275C58.1732 5.60621 57.9465 6.05967 57.7129 6.52687C58.1663 6.41351 58.6198 6.30014 59.087 6.18334C58.8602 5.84325 58.6335 5.50315 58.3999 5.15275Z" fill="#1CBD5D"/>
<path d="M18.5508 12.7104C18.6641 12.9372 18.7775 13.1639 18.8943 13.3975C19.2344 13.6242 19.5745 13.851 19.9249 14.0846C19.6982 14.0846 19.4714 14.0846 19.2378 14.0846C19.2378 16.5786 19.2378 19.0726 19.2378 21.6422C19.0111 21.7556 18.7844 21.8689 18.5508 21.9857C18.3807 21.1355 18.3807 21.1355 18.2072 20.2681C17.2303 20.0382 16.4667 19.9265 15.459 20.0104C14.4284 19.9246 14.4284 19.9246 13.4408 19.1946C12.7108 18.2069 12.7108 18.2069 12.4531 17.2622C12.8489 15.5474 13.8922 14.2982 15.1155 13.054C16.3086 12.6563 17.3006 12.6869 18.5508 12.7104Z" fill="#E3BB4F"/>
<path d="M22.3299 14.0851C22.2165 14.1984 22.1031 14.3118 21.9863 14.4286C21.9601 15.4364 21.9552 16.4362 21.9649 17.4439C21.9662 17.7467 21.9675 18.0496 21.9688 18.3617C21.9744 19.6631 21.9841 20.9645 21.9934 22.2659C21.9996 23.2136 22.0037 24.1612 22.0078 25.1089C22.0106 25.4048 22.0135 25.7008 22.0164 26.0057C22.0251 28.0923 22.0251 28.0923 21.6428 28.8568C21.1893 28.8568 20.7359 28.8568 20.2687 28.8568C19.5434 26.9529 19.1588 25.4225 19.2381 23.3604C19.1814 23.0915 19.1248 22.8226 19.0664 22.5456C18.8858 21.5968 18.8855 20.7848 18.9362 19.8217C18.9528 19.4863 18.9694 19.1508 18.9865 18.8052C19.0057 18.4592 19.025 18.1131 19.0449 17.7565C19.0628 17.4038 19.0807 17.0511 19.0992 16.6877C19.1436 15.82 19.19 14.9525 19.2381 14.0851C20.4086 13.823 21.179 13.7014 22.3299 14.0851Z" fill="#ECC134"/>
<path d="M98.2499 34.6963C98.7034 34.6963 99.1568 34.6963 99.624 34.6963C99.7374 35.0364 99.8508 35.3765 99.9676 35.7269C100.421 35.6135 100.874 35.5001 101.342 35.3833C101.342 35.1566 101.342 34.9299 101.342 34.6963C101.908 34.6963 102.475 34.6963 103.059 34.6963C103.059 35.1497 103.059 35.6032 103.059 36.0704C103.399 36.1838 103.74 36.2971 104.09 36.4139C104.26 36.754 104.26 36.754 104.433 37.101C104.774 36.8743 105.114 36.6475 105.464 36.4139C105.327 37.4053 105.193 37.7269 104.412 38.3892C104.082 38.6018 104.082 38.6018 103.746 38.8186C103.52 38.4785 103.293 38.1385 103.059 37.7881C102.833 38.1281 102.606 38.4682 102.372 38.8186C101.539 38.9314 101.539 38.9314 100.547 38.9045C100.223 38.8992 99.8981 38.8939 99.5636 38.8884C98.6407 38.822 97.7813 38.6568 96.8758 38.4751C96.155 38.6123 96.155 38.6123 95.5017 38.8186C94.5237 38.8186 93.7067 38.6706 92.7534 38.4751C92.5267 38.4751 92.3 38.4751 92.0664 38.4751C91.6129 38.4751 91.1595 38.4751 90.6923 38.4751C90.2388 38.5885 89.7853 38.7018 89.3181 38.8186C89.2048 37.5716 89.0914 36.3246 88.9746 35.0398C90.0052 35.3833 90.0052 35.3833 90.3487 36.0704C90.6888 35.8437 91.0289 35.6169 91.3793 35.3833C91.4927 35.9502 91.606 36.517 91.7228 37.101C91.7228 36.5342 91.7228 35.9673 91.7228 35.3833C91.9141 35.4329 92.1055 35.4825 92.3026 35.5336C93.114 35.7418 93.114 35.7418 94.0202 35.8772C94.2824 35.9409 94.5445 36.0047 94.8146 36.0704C94.928 36.2971 95.0413 36.5239 95.1581 36.7575C95.3849 36.5307 95.6116 36.304 95.8452 36.0704C96.9187 36.0275 96.9187 36.0275 97.9064 36.0704C97.793 36.5239 97.6796 36.9773 97.5628 37.4445C97.7896 37.3312 98.0163 37.2178 98.2499 37.101C98.2499 36.3074 98.2499 35.5139 98.2499 34.6963ZM96.1887 36.7575C96.1887 37.7881 96.1887 37.7881 96.1887 37.7881V36.7575ZM99.2805 36.7575C99.3939 37.0976 99.5072 37.4377 99.624 37.7881C99.7374 37.448 99.8508 37.1079 99.9676 36.7575C99.7408 36.7575 99.5141 36.7575 99.2805 36.7575ZM100.998 36.7575C100.885 37.0976 100.771 37.4377 100.655 37.7881C100.995 37.6747 101.335 37.5613 101.685 37.4445C101.685 37.2178 101.685 36.9911 101.685 36.7575C101.458 36.7575 101.232 36.7575 100.998 36.7575Z" fill="#1CBD5D"/>
<path d="M58.0566 13.0546C59.8117 12.8125 59.8117 12.8125 60.8049 13.0546C61.6607 13.871 62.2674 14.787 62.8661 15.8028C63.0534 15.5053 63.0534 15.5053 63.2445 15.2017C63.5035 14.8191 63.5035 14.8191 63.7678 14.4287C63.9352 14.1736 64.1026 13.9186 64.2751 13.6558C64.9272 13.0546 64.9272 13.0546 66.9884 13.0546C66.875 15.5486 66.7617 18.0426 66.6449 20.6122C66.0781 20.6122 65.5112 20.6122 64.9272 20.6122C64.8139 19.3652 64.7005 18.1182 64.5837 16.8334C64.1302 17.4002 63.6768 17.9671 63.2096 18.5511C62.1236 18.0805 61.838 17.8678 61.1484 16.8334C61.035 18.0804 60.9217 19.3274 60.8049 20.6122C60.2381 20.6122 59.6712 20.6122 59.0872 20.6122C59.0804 20.4199 59.0736 20.2276 59.0666 20.0294C59.0339 19.1572 58.9962 18.2852 58.9584 17.4131C58.9478 17.1105 58.9371 16.8078 58.9262 16.4959C58.9129 16.2048 58.8996 15.9136 58.8859 15.6136C58.8751 15.3456 58.8644 15.0775 58.8532 14.8014C58.7795 13.9816 58.7795 13.9816 58.0566 13.0546Z" fill="#1CBD5D"/>
<path d="M100.311 14.4279C100.424 14.3145 100.538 14.2011 100.654 14.0843C101.234 14.0596 101.814 14.0555 102.394 14.0629C102.709 14.066 103.025 14.0691 103.35 14.0722C103.594 14.0762 103.838 14.0802 104.09 14.0843C104.203 14.6511 104.317 15.218 104.433 15.802C104.093 15.802 103.753 15.802 103.403 15.802C103.289 16.7089 103.176 17.6158 103.059 18.5502C103.484 18.784 103.484 18.784 103.918 19.0226C104.201 19.2068 104.485 19.391 104.777 19.5808C104.777 19.8075 104.777 20.0343 104.777 20.2679C103.811 20.4826 103.811 20.4826 102.716 20.6114C102.376 20.3847 102.035 20.1579 101.685 19.9243C101.345 20.1511 101.005 20.3778 100.654 20.6114C98.3183 20.7968 98.3183 20.7968 97.0474 20.2249C96.5321 19.5808 96.5321 19.5808 96.4033 18.6576C96.5587 17.2848 96.8011 16.0918 97.2192 14.7714C98.4914 13.9232 98.8697 14.1459 100.311 14.4279ZM98.5933 15.4584C98.5933 15.6852 98.5933 15.9119 98.5933 16.1455C98.82 16.1455 99.0468 16.1455 99.2804 16.1455C99.2804 15.9188 99.2804 15.692 99.2804 15.4584C99.0536 15.4584 98.8269 15.4584 98.5933 15.4584ZM100.805 15.9737C100.642 16.1438 100.479 16.3138 100.311 16.489C100.424 16.7158 100.538 16.9425 100.654 17.1761C100.995 17.1761 101.335 17.1761 101.685 17.1761C101.685 16.6093 101.685 16.0424 101.685 15.4584C101.259 15.4188 101.259 15.4188 100.805 15.9737ZM98.2498 17.5196C98.3632 18.0864 98.4765 18.6533 98.5933 19.2373C99.1601 19.2373 99.727 19.2373 100.311 19.2373C100.424 19.0105 100.538 18.7838 100.654 18.5502C99.8609 18.2101 99.0674 17.87 98.2498 17.5196Z" fill="#1CBD5D"/>
<path d="M97.9062 23.3598C99.631 23.0572 99.631 23.0572 100.654 23.3598C101.633 24.4023 102.351 25.5566 103.059 26.795C103.173 25.6614 103.286 24.5278 103.403 23.3598C103.97 23.3598 104.536 23.3598 105.12 23.3598C105.234 25.8538 105.347 28.3478 105.464 30.9174C104.784 30.9174 104.104 30.9174 103.403 30.9174C102.675 30.1659 102.675 30.1659 102.072 29.1998C101.867 28.8809 101.662 28.5621 101.452 28.2336C101.302 27.9856 101.152 27.7376 100.998 27.4821C100.885 28.6158 100.771 29.7494 100.654 30.9174C100.088 30.9174 99.5208 30.9174 98.9368 30.9174C98.93 30.7251 98.9232 30.5327 98.9162 30.3346C98.8835 29.4623 98.8458 28.5903 98.808 27.7183C98.7974 27.4156 98.7868 27.1129 98.7758 26.8011C98.7625 26.5099 98.7492 26.2188 98.7356 25.9188C98.7248 25.6507 98.714 25.3827 98.7028 25.1065C98.6291 24.2867 98.6291 24.2867 97.9062 23.3598Z" fill="#1CBD5D"/>
<path d="M90.3486 2.74843C92.0734 2.44584 92.0734 2.44584 93.0969 2.74843C94.0754 3.79098 94.7939 4.94526 95.5016 6.18372C95.6149 5.05007 95.7283 3.91643 95.8451 2.74843C96.4119 2.74843 96.9788 2.74843 97.5628 2.74843C97.7328 6.31942 97.7328 6.31942 97.9063 9.96255C97.3395 10.0759 96.7726 10.1893 96.1886 10.3061C95.2817 9.17243 94.3748 8.03878 93.4404 6.87078C93.327 7.89106 93.2137 8.91135 93.0969 9.96255C92.6434 10.0759 92.19 10.1893 91.7228 10.3061C90.9181 9.50142 91.2381 7.20224 91.2014 6.05087C91.1897 5.77676 91.1779 5.50265 91.1659 5.22023C91.1572 4.96876 91.1486 4.71728 91.1398 4.45819C91.0679 3.67025 91.0679 3.67025 90.3486 2.74843Z" fill="#1CBD5D"/>
<path d="M115.769 34.6963C116.109 34.8097 116.45 34.923 116.8 35.0398C116.8 35.2665 116.8 35.4933 116.8 35.7269C116.46 35.7269 116.12 35.7269 115.769 35.7269C115.769 35.9536 115.769 36.1803 115.769 36.4139C117.077 36.1832 118.295 35.8205 119.548 35.3833C119.484 35.603 119.421 35.8226 119.355 36.0489C119.305 36.2828 119.256 36.5166 119.205 36.7575C119.318 36.8708 119.431 36.9842 119.548 37.101C119.683 36.9239 119.817 36.7467 119.956 36.5642C120.162 36.4013 120.367 36.2383 120.579 36.0704C121.481 36.1992 121.481 36.1992 122.296 36.4139C122.41 36.3006 122.523 36.1872 122.64 36.0704C123.327 36.0564 124.014 36.0558 124.701 36.0704C124.701 36.5239 124.701 36.9773 124.701 37.4445C124.928 36.9911 125.155 36.5376 125.388 36.0704C126.762 36.0704 126.762 36.0704 127.793 36.4139C127.963 36.754 127.963 36.754 128.136 37.101C128.363 36.7609 128.59 36.4208 128.824 36.0704C129.05 36.0704 129.277 36.0704 129.511 36.0704C129.511 36.4105 129.511 36.7506 129.511 37.101C129.737 37.101 129.964 37.101 130.198 37.101C130.198 36.8743 130.198 36.6475 130.198 36.4139C130.424 36.4139 130.651 36.4139 130.885 36.4139C130.414 37.4288 129.858 38.2828 129.167 39.1622C128.473 38.9554 127.786 38.7248 127.106 38.4751C126.936 38.135 126.936 38.135 126.762 37.7881C126.536 38.1281 126.309 38.4682 126.075 38.8186C125.066 38.8831 125.066 38.8831 124.014 38.8186C123.674 38.8186 123.334 38.8186 122.984 38.8186C122.764 38.7549 122.544 38.6911 122.318 38.6254C121.497 38.4513 121.032 38.5873 120.235 38.8186C119.548 38.8186 118.861 38.8186 118.174 38.8186C118.061 38.4785 117.947 38.1385 117.831 37.7881C117.944 37.5613 118.057 37.3346 118.174 37.101C117.834 37.101 117.494 37.101 117.144 37.101C117.03 37.6678 116.917 38.2346 116.8 38.8186C116.46 38.8186 116.12 38.8186 115.769 38.8186C115.656 38.5919 115.543 38.3652 115.426 38.1316C115.313 38.585 115.199 39.0385 115.082 39.5057C114.742 39.3923 114.402 39.279 114.052 39.1622C114.052 38.2553 114.052 37.3483 114.052 36.4139C114.278 36.4139 114.505 36.4139 114.739 36.4139C114.781 36.1943 114.824 35.9746 114.868 35.7483C114.938 35.5145 115.009 35.2807 115.082 35.0398C115.309 34.9265 115.536 34.8131 115.769 34.6963ZM122.984 36.7575C123.327 37.4445 123.327 37.4445 123.327 37.4445L122.984 36.7575ZM120.579 37.101C120.692 37.4411 120.806 37.7812 120.922 38.1316C121.262 37.7915 121.603 37.4514 121.953 37.101C121.499 37.101 121.046 37.101 120.579 37.101Z" fill="#1CBD5D"/>
<path d="M78.3242 12.7105C79.383 13.2699 80.1326 13.7514 80.8578 14.7073C81.3277 16.3521 81.2736 17.4959 80.4498 19.0014C79.6984 19.9246 79.1633 20.5402 77.9512 20.715C76.3125 20.7234 75.1634 20.6884 73.8584 19.5811C72.9857 18.1349 72.9299 16.7641 73.1713 15.1152C74.4545 12.9613 75.8684 12.4565 78.3242 12.7105ZM75.5116 14.6214C74.656 15.7721 74.6886 16.4608 74.8889 17.8635C75.3688 18.7728 75.3688 18.7728 76.2631 19.2376C77.5322 19.1874 77.5322 19.1874 78.6678 18.8941C79.2633 17.2393 79.2633 17.2393 79.1401 15.5232C78.5981 14.6608 78.252 14.4041 77.2936 14.0846C76.2489 13.9848 76.2489 13.9848 75.5116 14.6214Z" fill="#1CBD5D"/>
<path d="M96.2737 23.6174C97.6027 24.7048 97.6027 24.7048 97.9054 25.7645C98.0618 27.4847 97.9436 28.5127 96.8748 29.8868C96.218 30.6194 95.7608 30.8818 94.7855 31.0154C93.1535 31.0776 91.9826 30.9825 90.6913 29.8868C89.8177 28.4391 89.7655 27.0712 90.0042 25.4209C90.6268 24.3372 91.1074 23.853 92.1942 23.2524C93.8218 22.8261 94.7685 22.8069 96.2737 23.6174ZM92.3016 24.9056C91.5111 26.0768 91.5239 26.7829 91.7219 28.1692C92.2303 29.0498 92.2303 29.0498 93.096 29.5433C94.1414 29.801 94.1414 29.801 95.1572 29.5433C96.0365 28.5789 96.197 28.0564 96.1448 26.7521C95.8347 25.733 95.6856 25.3255 94.8137 24.7339C93.6931 24.3029 93.3225 24.2435 92.3016 24.9056Z" fill="#1CBD5D"/>
<path d="M66.3015 23.3602C67.5019 24.5307 67.982 25.3928 68.148 27.0532C68.1396 28.2042 67.9353 28.8048 67.2033 29.6941C66.1238 30.7478 65.6175 30.982 64.1545 31.0467C63.0174 31.0265 62.2567 30.9136 61.3203 30.2523C60.2142 28.8973 59.9764 27.8395 60.118 26.1085C60.6059 24.9863 61.2386 24.144 62.1792 23.3602C63.6081 22.8839 64.85 22.9691 66.3015 23.3602ZM62.7803 24.7558C61.9586 25.6656 61.86 26.2641 61.8356 27.4826C62.2265 28.2821 62.5805 28.9146 63.2097 29.5438C64.6211 29.6683 64.6211 29.6683 65.915 29.1788C66.5241 28.1298 66.4264 27.2946 66.3015 26.1085C65.7975 25.1004 65.4846 24.8165 64.4336 24.4123C63.5436 24.3247 63.5436 24.3247 62.7803 24.7558Z" fill="#1CBD5D"/>
<path d="M134.32 13.0537C135.567 13.0537 136.814 13.0537 138.099 13.0537C139.13 14.0843 139.13 14.0843 139.259 15.2867C139.121 16.5732 139.016 16.724 138.099 17.5196C138.248 17.6852 138.397 17.8508 138.55 18.0215C138.741 18.2385 138.933 18.4554 139.13 18.679C139.417 19.0018 139.417 19.0018 139.709 19.3312C140.16 19.9243 140.16 19.9243 140.16 20.6114C139.43 20.7402 139.43 20.7402 138.443 20.6114C137.673 19.9953 137.026 19.2941 136.381 18.5502C136.268 19.2304 136.155 19.9106 136.038 20.6114C135.471 20.6114 134.904 20.6114 134.32 20.6114C134.32 18.1173 134.32 15.6233 134.32 13.0537ZM136.038 14.4278C136.038 14.9947 136.038 15.5615 136.038 16.1455C136.491 16.0321 136.945 15.9187 137.412 15.8019C137.299 15.3485 137.185 14.895 137.069 14.4278C136.728 14.4278 136.388 14.4278 136.038 14.4278Z" fill="#1CBD5D"/>
<path d="M74.2025 23.3604C74.7693 23.3604 75.3361 23.3604 75.9201 23.3604C76.0335 25.1742 76.1469 26.988 76.2637 28.8568C76.8305 28.9702 77.3973 29.0836 77.9813 29.2004C78.0947 27.2732 78.2081 25.346 78.3249 23.3604C78.8917 23.3604 79.4585 23.3604 80.0425 23.3604C80.2125 26.9313 80.2125 26.9313 80.386 30.5745C79.2279 30.8061 78.2583 30.9871 77.101 31.0254C76.7178 31.0446 76.7178 31.0446 76.3267 31.0643C75.1954 30.8437 74.8511 30.4985 74.2025 29.5439C74.0373 28.479 74.073 27.4405 74.1166 26.3662C74.1228 26.0775 74.129 25.7888 74.1354 25.4913C74.1516 24.7808 74.1762 24.0705 74.2025 23.3604Z" fill="#1CBD5D"/>
<path d="M82.1035 13.0537C85.5388 13.0537 85.5388 13.0537 86.462 13.6119C86.9129 14.4278 86.9129 14.4278 86.8915 15.4799C86.565 16.5028 86.3048 16.82 85.5388 17.5196C85.6876 17.6852 85.8364 17.8508 85.9897 18.0215C86.181 18.2385 86.3723 18.4554 86.5694 18.679C86.8564 19.0018 86.8564 19.0018 87.1491 19.3312C87.6 19.9243 87.6 19.9243 87.6 20.6114C86.8485 20.7402 86.8485 20.7402 85.8823 20.6114C85.1986 19.9794 84.7178 19.3087 84.1647 18.5502C83.938 19.2304 83.7112 19.9106 83.4776 20.6114C83.0242 20.6114 82.5707 20.6114 82.1035 20.6114C82.1035 18.1173 82.1035 15.6233 82.1035 13.0537ZM83.8212 14.4278C83.8212 14.9947 83.8212 15.5615 83.8212 16.1455C84.2746 15.9187 84.7281 15.692 85.1953 15.4584C85.0819 15.1183 84.9686 14.7782 84.8518 14.4278C84.5117 14.4278 84.1716 14.4278 83.8212 14.4278Z" fill="#1CBD5D"/>
<path d="M113.021 13.0537C113.815 13.0537 114.609 13.0537 115.426 13.0537C115.653 13.6205 115.88 14.1874 116.113 14.7714C116.34 14.7714 116.567 14.7714 116.8 14.7714C117.027 14.2045 117.254 13.6377 117.487 13.0537C118.281 13.0537 119.074 13.0537 119.892 13.0537C119.735 13.257 119.579 13.4602 119.417 13.6696C119.22 13.9411 119.022 14.2126 118.819 14.4922C118.619 14.7593 118.42 15.0263 118.215 15.3014C117.728 16.1363 117.728 16.1363 118.067 17.0392C118.536 17.9253 118.536 17.9253 119.248 18.9581C119.892 19.9243 119.892 19.9243 119.892 20.6114C119.099 20.6114 118.305 20.6114 117.487 20.6114C117.147 19.9312 116.807 19.251 116.457 18.5502C116.273 18.8903 116.088 19.2304 115.899 19.5808C115.629 19.9209 115.36 20.261 115.083 20.6114C113.966 20.7402 113.966 20.7402 113.021 20.6114C113.56 19.1316 114.287 17.8419 115.083 16.489C114.402 15.3554 113.722 14.2217 113.021 13.0537Z" fill="#1CBD5D"/>
<path d="M68.0186 2.74805C69.2656 2.74805 70.5126 2.74805 71.7974 2.74805C72.828 4.12216 72.828 4.12216 72.9568 4.98099C72.8057 5.98824 72.4667 6.46094 71.7974 7.21393C71.9214 7.37955 72.0454 7.54517 72.1731 7.7158C72.3325 7.93279 72.492 8.14978 72.6562 8.37334C72.8156 8.58856 72.975 8.80377 73.1393 9.02551C73.515 9.61864 73.515 9.61864 73.515 10.3057C71.8549 10.1634 71.1698 9.45919 70.0797 8.24452C69.853 8.92471 69.6263 9.60489 69.3927 10.3057C68.9392 10.3057 68.4858 10.3057 68.0186 10.3057C68.0186 7.81167 68.0186 5.31765 68.0186 2.74805ZM69.7362 3.77864C69.7362 4.45882 69.7362 5.13901 69.7362 5.83981C70.1897 5.61308 70.6431 5.38635 71.1103 5.15275C70.997 4.81266 70.8836 4.47256 70.7668 4.12216C70.4267 4.0088 70.0866 3.89544 69.7362 3.77864Z" fill="#1CBD5D"/>
<path d="M46.377 11.3369C46.8304 11.3369 47.2839 11.3369 47.7511 11.3369C47.7511 18.0254 47.7511 24.714 47.7511 31.6052C47.2976 31.6052 46.8442 31.6052 46.377 31.6052C46.377 24.9166 46.377 18.2281 46.377 11.3369Z" fill="#1CBD5D"/>
<path d="M68.0186 13.0537C71.4538 13.0537 71.4538 13.0537 72.3771 13.5905C72.828 14.4278 72.828 14.4278 72.8494 15.6517C72.4844 16.8325 72.4844 16.8325 71.6686 17.4981C70.7668 17.8631 70.7668 17.8631 69.7362 17.8631C69.7362 18.77 69.7362 19.677 69.7362 20.6114C69.1694 20.6114 68.6026 20.6114 68.0186 20.6114C68.0186 18.1173 68.0186 15.6233 68.0186 13.0537ZM69.7362 14.4278C69.7362 15.108 69.7362 15.7882 69.7362 16.489C70.0763 16.3756 70.4164 16.2623 70.7668 16.1455C70.8802 15.8054 70.9935 15.4653 71.1103 15.1149C70.997 14.8882 70.8836 14.6614 70.7668 14.4278C70.4267 14.4278 70.0866 14.4278 69.7362 14.4278Z" fill="#1CBD5D"/>
<path d="M108.556 13.0537C109.916 13.0537 111.276 13.0537 112.678 13.0537C112.451 13.6205 112.225 14.1874 111.991 14.7714C111.537 14.658 111.084 14.5446 110.617 14.4278C110.503 14.9947 110.39 15.5615 110.273 16.1455C111.067 16.1455 111.86 16.1455 112.678 16.1455C112.451 16.5989 112.225 17.0524 111.991 17.5196C111.537 17.5196 111.084 17.5196 110.617 17.5196C110.503 18.0864 110.39 18.6532 110.273 19.2372C111.18 19.0105 112.087 18.7838 113.022 18.5502C112.795 19.2304 112.568 19.9106 112.334 20.6114C111.087 20.6114 109.84 20.6114 108.556 20.6114C108.556 18.1173 108.556 15.6233 108.556 13.0537Z" fill="#1CBD5D"/>
<path d="M110.273 23.3602C110.273 23.927 110.273 24.4938 110.273 25.0778C109.706 24.9645 109.139 24.8511 108.555 24.7343C108.555 25.0744 108.555 25.4145 108.555 25.7649C108.831 25.9633 109.108 26.1617 109.392 26.3661C110.273 27.139 110.273 27.139 110.638 28.3414C110.616 29.5437 110.616 29.5437 110.122 30.3811C108.856 31.1533 107.962 31.0157 106.494 30.9178C106.381 30.351 106.267 29.7842 106.15 29.2002C106.944 29.3136 107.737 29.4269 108.555 29.5437C108.185 28.3671 107.876 27.8329 106.945 26.9887C106.15 26.1084 106.15 26.1084 106.129 25.0349C106.494 24.0473 106.494 24.0473 107.052 23.3817C108.208 22.8645 109.059 23.1034 110.273 23.3602Z" fill="#1CBD5D"/>
<path d="M59.4309 23.3602C59.4309 23.927 59.4309 24.4938 59.4309 25.0778C58.8641 24.9645 58.2973 24.8511 57.7133 24.7343C57.7133 25.0744 57.7133 25.4145 57.7133 25.7649C57.9896 25.9633 58.266 26.1617 58.5507 26.3661C59.4309 27.139 59.4309 27.139 59.7959 28.3414C59.7745 29.5437 59.7745 29.5437 59.2807 30.3811C58.0142 31.1533 57.1205 31.0157 55.6521 30.9178C55.5388 30.351 55.4254 29.7842 55.3086 29.2002C56.1021 29.2002 56.8957 29.2002 57.7133 29.2002C57.183 28.2456 56.743 27.5344 55.9098 26.817C55.3086 26.1084 55.3086 26.1084 55.3086 25.0564C55.6521 24.0473 55.6521 24.0473 56.2104 23.3817C57.3663 22.8645 58.2168 23.1034 59.4309 23.3602Z" fill="#1CBD5D"/>
<path d="M140.16 13.0537C142.087 13.0537 144.014 13.0537 146 13.0537C145.887 13.6205 145.773 14.1874 145.656 14.7714C145.203 14.658 144.749 14.5446 144.282 14.4278C144.169 16.355 144.056 18.2822 143.939 20.2678C143.372 20.3812 142.805 20.4946 142.221 20.6114C141.878 20.2678 141.878 20.2678 141.844 18.9568C141.846 18.4133 141.85 17.8698 141.856 17.3264C141.858 17.0494 141.859 16.7724 141.861 16.487C141.865 15.8006 141.871 15.1142 141.878 14.4278C141.197 14.4278 140.517 14.4278 139.816 14.4278C139.93 13.9744 140.043 13.5209 140.16 13.0537Z" fill="#1CBD5D"/>
<path d="M81.073 23.3604C83.0002 23.3604 84.9274 23.3604 86.913 23.3604C86.7997 23.9272 86.6863 24.494 86.5695 25.078C85.8893 24.8513 85.2091 24.6245 84.5083 24.3909C84.5083 26.5449 84.5083 28.6988 84.5083 30.918C83.9415 30.918 83.3747 30.918 82.7907 30.918C82.7907 28.7641 82.7907 26.6101 82.7907 24.3909C82.1105 24.5043 81.4303 24.6177 80.7295 24.7345C80.8429 24.281 80.9562 23.8276 81.073 23.3604Z" fill="#1CBD5D"/>
<path d="M87.6004 13.0537C89.5276 13.0537 91.4548 13.0537 93.4404 13.0537C93.2136 13.6205 92.9869 14.1874 92.7533 14.7714C91.9031 14.4313 91.9031 14.4313 91.0357 14.0843C91.0357 16.2382 91.0357 18.3922 91.0357 20.6114C90.4688 20.6114 89.902 20.6114 89.318 20.6114C89.318 18.4574 89.318 16.3035 89.318 14.0843C88.6378 14.1977 87.9576 14.311 87.2568 14.4278C87.3702 13.9744 87.4836 13.5209 87.6004 13.0537Z" fill="#1CBD5D"/>
<path d="M82.4469 34.6963C82.9004 34.6963 83.3538 34.6963 83.821 34.6963C83.821 35.1497 83.821 35.6032 83.821 36.0704C84.1611 36.0704 84.5012 36.0704 84.8516 36.0704C84.8516 36.5239 84.8516 36.9773 84.8516 37.4445C85.0784 37.4445 85.3051 37.4445 85.5387 37.4445C85.7654 36.9911 85.9921 36.5376 86.2257 36.0704C86.4312 36.1271 86.6367 36.1838 86.8484 36.2422C87.6388 36.4522 87.6388 36.4522 88.6304 36.4139C88.5097 37.2894 88.3322 37.7356 87.7502 38.4107C86.4767 39.0311 85.5429 38.7278 84.1646 38.4751C84.0512 38.135 83.9378 37.7949 83.821 37.4445C83.5943 37.898 83.3676 38.3514 83.134 38.8186C82.4538 38.8186 81.7736 38.8186 81.0728 38.8186C80.3857 36.8433 80.3857 36.8433 80.3857 36.0704C81.4163 35.3833 81.4163 35.3833 82.4469 35.3833C82.4469 35.1566 82.4469 34.9299 82.4469 34.6963ZM81.7599 36.7575C81.8732 37.0976 81.9866 37.4377 82.1034 37.7881C82.3301 37.448 82.5568 37.1079 82.7904 36.7575C82.4504 36.7575 82.1103 36.7575 81.7599 36.7575Z" fill="#1CBD5D"/>
<path d="M16.1461 13.3975C16.1421 13.8111 16.1381 14.2247 16.134 14.6508C16.1308 15.192 16.1277 15.7333 16.1246 16.2745C16.1217 16.5473 16.1189 16.8201 16.1159 17.1011C16.0669 18.5586 16.0669 18.5586 16.4896 19.9245C15.1097 20.085 14.5779 20.035 13.4408 19.1945C12.7108 18.2069 12.7108 18.2069 12.4746 17.2407C12.9196 15.1775 13.9446 13.3975 16.1461 13.3975Z" fill="#DDB960"/>
<path d="M69.0498 23.3604C69.6166 23.3604 70.1835 23.3604 70.7675 23.3604C70.7675 25.4009 70.7675 27.4415 70.7675 29.5439C71.6744 29.3172 72.5813 29.0904 73.5157 28.8568C73.289 29.537 73.0622 30.2172 72.8286 30.918C71.5816 30.918 70.3346 30.918 69.0498 30.918C69.0498 28.424 69.0498 25.93 69.0498 23.3604Z" fill="#1CBD5D"/>
<path d="M21.6426 14.085C22.3228 14.085 23.003 14.085 23.7038 14.085C23.7038 14.4251 23.7038 14.7651 23.7038 15.1155C23.477 15.1155 23.2503 15.1155 23.0167 15.1155C23.0574 16.6134 23.1 18.1111 23.1446 19.6089C23.1595 20.1183 23.1738 20.6278 23.1876 21.1373C23.2074 21.8698 23.2293 22.6023 23.2515 23.3348C23.2641 23.7755 23.2767 24.2163 23.2897 24.6704C23.3141 25.7722 23.3141 25.7722 23.7038 26.7955C23.2213 27.5732 22.6056 28.1768 21.9861 28.8567C21.3959 27.6763 21.6015 26.32 21.609 25.0215C21.6095 24.7099 21.61 24.3982 21.6105 24.0771C21.6124 23.0795 21.6168 22.082 21.6211 21.0844C21.6228 20.4089 21.6244 19.7335 21.6258 19.0581C21.6296 17.4004 21.6355 15.7427 21.6426 14.085Z" fill="#F1C426"/>
<path d="M9.61914 29.2002C11.938 29.8014 11.938 29.8014 12.7109 30.5743C13.5447 30.8077 13.5447 30.8077 14.4715 30.9608C14.9405 31.0471 14.9405 31.0471 15.4189 31.1352C15.6589 31.1769 15.8989 31.2185 16.1462 31.2614C16.1896 31.4801 16.233 31.6989 16.2777 31.9243C16.4194 32.6918 16.4194 32.6918 17.1338 33.022C17.3747 33.1212 17.6156 33.2203 17.8638 33.3225C18.2039 33.5493 18.544 33.776 18.8944 34.0096C18.8944 34.2363 18.8944 34.4631 18.8944 34.6967C15.1264 34.2317 12.3345 32.4846 9.61914 29.8873C9.61914 29.6605 9.61914 29.4338 9.61914 29.2002Z" fill="#2CB574"/>
<path d="M87.2568 23.3604C87.8237 23.3604 88.3905 23.3604 88.9745 23.3604C88.9745 25.8544 88.9745 28.3484 88.9745 30.918C88.4077 30.918 87.8408 30.918 87.2568 30.918C87.2568 28.424 87.2568 25.93 87.2568 23.3604Z" fill="#1CBD5D"/>
<path d="M55.6514 13.0537C56.2182 13.0537 56.785 13.0537 57.369 13.0537C57.369 15.5477 57.369 18.0418 57.369 20.6114C56.8022 20.6114 56.2354 20.6114 55.6514 20.6114C55.6514 18.1173 55.6514 15.6233 55.6514 13.0537Z" fill="#1CBD5D"/>
<path d="M74.2021 2.74805C74.769 2.74805 75.3358 2.74805 75.9198 2.74805C75.9198 5.24207 75.9198 7.73609 75.9198 10.3057C75.353 10.1923 74.7861 10.079 74.2021 9.96216C74.2021 7.58151 74.2021 5.20085 74.2021 2.74805Z" fill="#1CBD5D"/>
<path d="M125.388 36.0703C126.762 36.0703 126.762 36.0703 127.792 36.4138C127.906 36.6406 128.019 36.8673 128.136 37.1009C128.363 36.7608 128.589 36.4207 128.823 36.0703C129.05 36.0703 129.277 36.0703 129.51 36.0703C129.51 36.4104 129.51 36.7505 129.51 37.1009C129.737 37.1009 129.964 37.1009 130.197 37.1009C130.197 36.8742 130.197 36.6474 130.197 36.4138C130.424 36.4138 130.651 36.4138 130.884 36.4138C130.413 37.4287 129.858 38.2827 129.167 39.1621C128.473 38.9553 127.785 38.7247 127.105 38.475C126.992 38.2483 126.879 38.0216 126.762 37.788C126.422 38.2981 126.422 38.2981 126.075 38.8185C125.395 38.5918 124.714 38.3651 124.014 38.1315C124.127 37.678 124.24 37.2246 124.357 36.7574C124.471 36.9841 124.584 37.2108 124.701 37.4444C124.927 36.991 125.154 36.5375 125.388 36.0703Z" fill="#1CBD5D"/>
<path d="M110.273 34.6963C110.5 34.8097 110.726 34.923 110.96 35.0398C110.96 35.2665 110.96 35.4933 110.96 35.7269C110.62 35.7269 110.28 35.7269 109.929 35.7269C109.929 35.9536 109.929 36.1803 109.929 36.4139C110.27 36.4139 110.61 36.4139 110.96 36.4139C110.96 36.6407 110.96 36.8674 110.96 37.101C110.507 37.101 110.053 37.101 109.586 37.101C109.473 37.8945 109.359 38.6881 109.242 39.5057C108.902 39.3923 108.562 39.279 108.212 39.1622C108.212 38.8221 108.212 38.482 108.212 38.1316C107.985 38.3583 107.758 38.585 107.525 38.8186C106.623 38.6898 106.623 38.6898 105.807 38.4751C105.743 37.6592 105.743 37.6592 105.807 36.7575C106.838 36.0704 106.838 36.0704 107.933 36.1992C108.252 36.2701 108.57 36.3409 108.899 36.4139C108.934 36.1943 108.97 35.9746 109.006 35.7483C109.084 35.5145 109.162 35.2807 109.242 35.0398C109.582 34.9265 109.923 34.8131 110.273 34.6963ZM106.838 37.101C106.951 37.4411 107.064 37.7812 107.181 38.1316C107.295 37.7915 107.408 37.4514 107.525 37.101C107.298 37.101 107.071 37.101 106.838 37.101Z" fill="#1CBD5D"/>
<path d="M62.5221 2.74805C63.9959 2.74805 65.4696 2.74805 66.988 2.74805C66.988 2.86141 66.988 2.97478 66.988 3.09158C65.741 3.09158 64.494 3.09158 63.2092 3.09158C63.2092 5.24551 63.2092 7.39944 63.2092 9.61864C63.4359 9.61864 63.6626 9.61864 63.8962 9.61864C63.8962 8.71172 63.8962 7.8048 63.8962 6.8704C64.0096 6.8704 64.123 6.8704 64.2398 6.8704C64.3531 7.89068 64.4665 8.91096 64.5833 9.96216C63.1911 10.2997 61.8905 10.3337 60.4609 10.3057C60.4609 10.079 60.4609 9.85223 60.4609 9.61864C60.801 9.61864 61.1411 9.61864 61.4915 9.61864C61.3782 8.93845 61.2648 8.25826 61.148 7.55746C61.4881 8.01092 61.8282 8.46438 62.1786 8.93158C62.3486 5.87073 62.3486 5.87073 62.5221 2.74805Z" fill="#1CBD5D"/>
<path d="M108.556 13.0537C109.916 13.0537 111.276 13.0537 112.678 13.0537C112.451 13.6205 112.225 14.1874 111.991 14.7714C111.537 14.658 111.084 14.5446 110.617 14.4278C110.503 14.9947 110.39 15.5615 110.273 16.1455C110.16 16.1455 110.047 16.1455 109.93 16.1455C109.93 15.3519 109.93 14.5584 109.93 13.7408C110.95 13.9108 110.95 13.9108 111.991 14.0843C111.991 13.8576 111.991 13.6308 111.991 13.3972C110.971 13.3972 109.95 13.3972 108.899 13.3972C108.899 15.6645 108.899 17.9318 108.899 20.2678C109.919 20.1545 110.94 20.0411 111.991 19.9243C112.104 19.6976 112.218 19.4708 112.334 19.2372C112.108 19.1239 111.881 19.0105 111.647 18.8937C112.101 18.7803 112.554 18.667 113.022 18.5502C112.795 19.2304 112.568 19.9106 112.334 20.6114C111.087 20.6114 109.84 20.6114 108.556 20.6114C108.556 18.1173 108.556 15.6233 108.556 13.0537Z" fill="#1CBD5D"/>
<path d="M18.2066 13.3975C18.7735 13.5108 19.3403 13.6242 19.9243 13.741C19.5842 13.911 19.5842 13.911 19.2372 14.0845C19.2372 16.5785 19.2372 19.0726 19.2372 21.6422C19.0105 21.7555 18.7838 21.8689 18.5502 21.9857C17.8581 20.0178 17.8254 18.4056 17.9919 16.3389C18.0114 16.0549 18.0309 15.7708 18.051 15.4781C18.0991 14.7843 18.1523 14.0908 18.2066 13.3975Z" fill="#E7BE44"/>
<path d="M68.3623 13.0537C69.3826 13.2238 69.3826 13.2238 70.4235 13.3972C70.4235 13.624 70.4235 13.8507 70.4235 14.0843C70.0834 14.0843 69.7433 14.0843 69.3929 14.0843C69.4567 14.5307 69.5204 14.977 69.5861 15.4369C69.7772 17.1092 69.6304 18.605 69.3929 20.2678C69.0528 20.2678 68.7127 20.2678 68.3623 20.2678C68.3623 17.8872 68.3623 15.5065 68.3623 13.0537Z" fill="#1CBD5D"/>
<path d="M95.1572 23.0165C96.1999 23.5779 96.9722 24.0662 97.6907 25.0132C97.9941 26.075 97.9476 27.0726 97.9054 28.1694C97.7921 28.1694 97.6787 28.1694 97.5619 28.1694C97.4485 27.4892 97.3352 26.809 97.2184 26.1082C97.105 26.1082 96.9916 26.1082 96.8748 26.1082C96.7615 26.6751 96.6481 27.2419 96.5313 27.8259C95.8443 26.7953 95.8443 26.7953 95.6725 25.8935C95.6158 25.6243 95.5591 25.3551 95.5007 25.0777C95.274 24.9643 95.0473 24.8509 94.8137 24.7341C95.0404 24.7341 95.2671 24.7341 95.5007 24.7341C95.274 24.394 95.0473 24.0539 94.8137 23.7035C94.1343 23.5788 94.1343 23.5788 93.3966 23.6391C92.9573 23.6604 92.518 23.6816 92.0654 23.7035C93.2796 22.8941 93.7266 22.8482 95.1572 23.0165Z" fill="#1CBD5D"/>
<path d="M120.579 13.0537C120.692 13.0537 120.806 13.0537 120.923 13.0537C120.923 15.4344 120.923 17.815 120.923 20.2678C121.263 20.2678 121.603 20.2678 121.953 20.2678C121.953 18.2273 121.953 16.1867 121.953 14.0843C122.407 14.1977 122.86 14.311 123.327 14.4278C122.987 14.4278 122.647 14.4278 122.297 14.4278C122.41 14.9947 122.523 15.5615 122.64 16.1455C122.867 16.1455 123.094 16.1455 123.327 16.1455C123.327 16.3722 123.327 16.5989 123.327 16.8325C123.667 17.0593 124.008 17.286 124.358 17.5196C123.678 17.633 122.998 17.7463 122.297 17.8631C122.297 18.77 122.297 19.677 122.297 20.6114C121.73 20.6114 121.163 20.6114 120.579 20.6114C120.579 18.1173 120.579 15.6233 120.579 13.0537Z" fill="#1CBD5D"/>
<path d="M68.0186 13.0537C68.1319 13.0537 68.2453 13.0537 68.3621 13.0537C68.3621 15.4344 68.3621 17.815 68.3621 20.2678C68.7022 20.2678 69.0423 20.2678 69.3927 20.2678C69.3927 18.2273 69.3927 16.1867 69.3927 14.0843C69.7328 14.1977 70.0729 14.311 70.4233 14.4278C70.1965 14.4278 69.9698 14.4278 69.7362 14.4278C69.7362 15.108 69.7362 15.7882 69.7362 16.489C70.5298 16.6024 71.3233 16.7157 72.1409 16.8325C72.0275 17.0593 71.9142 17.286 71.7974 17.5196C70.7453 17.7343 70.7453 17.7343 69.7362 17.8631C69.7362 18.77 69.7362 19.677 69.7362 20.6114C69.1694 20.6114 68.6026 20.6114 68.0186 20.6114C68.0186 18.1173 68.0186 15.6233 68.0186 13.0537Z" fill="#1CBD5D"/>
<path d="M142.221 14.085C142.334 14.085 142.448 14.085 142.564 14.085C142.564 16.0122 142.564 17.9394 142.564 19.925C142.791 19.925 143.018 19.925 143.251 19.925C143.251 17.9978 143.251 16.0706 143.251 14.085C143.365 14.085 143.478 14.085 143.595 14.085C143.595 16.2389 143.595 18.3928 143.595 20.612C143.028 20.4987 142.461 20.3853 141.877 20.2685C141.868 19.3023 141.861 18.3362 141.856 17.37C141.853 17.0943 141.85 16.8186 141.847 16.5346C141.844 15.8325 141.859 15.1304 141.877 14.4285C141.991 14.3151 142.104 14.2018 142.221 14.085Z" fill="#1CBD5D"/>
<path d="M38.819 22.6729C39.0457 22.7862 39.2724 22.8996 39.506 23.0164C39.3654 25.3394 38.9669 27.3695 38.1319 29.5434C38.0186 29.09 37.9052 28.6365 37.7884 28.1693C37.2783 28.5094 37.2783 28.5094 36.7578 28.8564C36.9928 27.4219 37.4496 26.1491 37.9816 24.7984C38.2161 24.2 38.2161 24.2 38.4553 23.5894C38.5753 23.2869 38.6953 22.9845 38.819 22.6729Z" fill="#1CBD5D"/>
<path d="M82.4473 13.0537C83.4675 13.0537 84.4878 13.0537 85.539 13.0537C84.5084 13.7408 84.5084 13.7408 83.4779 14.0843C83.4779 14.4598 83.4779 14.8353 83.4779 15.2222C83.4779 16.8359 83.3754 18.3269 83.1343 19.9243C82.9076 19.9243 82.6809 19.9243 82.4473 19.9243C82.4473 17.657 82.4473 15.3897 82.4473 13.0537Z" fill="#1CBD5D"/>
<path d="M74.2021 2.74805C74.769 2.74805 75.3358 2.74805 75.9198 2.74805C75.5797 2.86141 75.2396 2.97478 74.8892 3.09158C74.8892 5.24551 74.8892 7.39944 74.8892 9.61864C75.2293 9.61864 75.5694 9.61864 75.9198 9.61864C75.9198 9.84537 75.9198 10.0721 75.9198 10.3057C75.353 10.1923 74.7861 10.079 74.2021 9.96216C74.2021 7.58151 74.2021 5.20085 74.2021 2.74805Z" fill="#1CBD5D"/>
<path d="M113.708 35.3838C113.822 36.5174 113.935 37.6511 114.052 38.8191C113.712 38.7057 113.372 38.5924 113.021 38.4756C113.021 38.2488 113.021 38.0221 113.021 37.7885C112.681 37.7885 112.341 37.7885 111.991 37.7885C111.991 38.1286 111.991 38.4687 111.991 38.8191C111.65 38.7057 111.31 38.5924 110.96 38.4756C111.118 37.0508 112.168 35.3838 113.708 35.3838Z" fill="#1CBD5D"/>
<path d="M24.3906 16.833C24.8632 17.276 25.3208 17.7354 25.7647 18.2071C25.7647 18.4339 25.7647 18.6606 25.7647 18.8942C26.2182 19.0075 26.6717 19.1209 27.1389 19.2377C26.9157 19.5366 26.9157 19.5366 26.688 19.8416C25.1836 21.8993 25.1836 21.8993 25.0777 24.3907C24.2063 23.0836 24.4555 22.8038 24.7342 21.2989C24.8093 19.753 24.8172 18.3294 24.3906 16.833Z" fill="#F9C80B"/>
<path d="M142.221 13.3975C143.128 13.3975 144.035 13.3975 144.969 13.3975C144.856 13.6242 144.742 13.8509 144.625 14.0845C144.285 14.0845 143.945 14.0845 143.595 14.0845C143.481 16.0117 143.368 17.9389 143.251 19.9245C143.025 19.9245 142.798 19.9245 142.564 19.9245C142.451 17.7706 142.338 15.6167 142.221 13.3975Z" fill="#1CBD5D"/>
<path d="M59.4307 14.085C59.544 14.085 59.6574 14.085 59.7742 14.085C59.7742 14.6518 59.7742 15.2186 59.7742 15.8026C60.0009 15.8026 60.2277 15.8026 60.4613 15.8026C60.4613 17.2763 60.4613 18.7501 60.4613 20.2685C60.1212 20.2685 59.7811 20.2685 59.4307 20.2685C59.4307 18.2279 59.4307 16.1874 59.4307 14.085Z" fill="#1CBD5D"/>
<path d="M54.9646 35.3838C55.6448 35.3838 56.325 35.3838 57.0258 35.3838C57.0258 35.6105 57.0258 35.8372 57.0258 36.0708C56.7991 36.0708 56.5723 36.0708 56.3387 36.0708C56.3105 37.1165 56.347 37.8131 56.6823 38.8191C56.0021 38.8191 55.3219 38.8191 54.6211 38.8191C54.7345 37.6854 54.8478 36.5518 54.9646 35.3838Z" fill="#1CBD5D"/>
<path d="M62.5221 2.74805C62.6355 2.74805 62.7488 2.74805 62.8656 2.74805C62.8656 5.12871 62.8656 7.50937 62.8656 9.96216C62.0721 10.0755 61.2785 10.1889 60.4609 10.3057C60.4609 10.079 60.4609 9.85224 60.4609 9.61864C60.801 9.61864 61.1411 9.61864 61.4915 9.61864C61.3782 8.93845 61.2648 8.25826 61.148 7.55746C61.4881 8.01092 61.8282 8.46438 62.1786 8.93158C62.3486 5.87073 62.3486 5.87073 62.5221 2.74805Z" fill="#1CBD5D"/>
<path d="M100.998 14.4287C102.018 14.4287 103.039 14.4287 104.09 14.4287C104.09 14.7688 104.09 15.1089 104.09 15.4593C103.75 15.4593 103.41 15.4593 103.059 15.4593C102.946 16.0261 102.832 16.5929 102.716 17.1769C102.489 17.1769 102.262 17.1769 102.029 17.1769C102.029 16.6101 102.029 16.0433 102.029 15.4593C101.689 15.4593 101.348 15.4593 100.998 15.4593C100.998 15.1192 100.998 14.7791 100.998 14.4287Z" fill="#1CBD5D"/>
<path d="M67.3318 36.0703C68.012 36.0703 68.6922 36.0703 69.393 36.0703C69.2796 36.5238 69.1663 36.9772 69.0495 37.4444C69.0495 37.1043 69.0495 36.7642 69.0495 36.4138C68.9361 36.9807 68.8227 37.5475 68.7059 38.1315C69.3861 37.9048 70.0663 37.678 70.7671 37.4444C70.427 37.8979 70.0869 38.3513 69.7365 38.8185C68.7489 38.7541 68.7489 38.7541 67.6753 38.475C67.1815 37.6377 67.1815 37.6377 66.9883 36.7574C67.1016 36.5306 67.215 36.3039 67.3318 36.0703ZM67.6753 37.1009C68.0189 37.788 68.0189 37.788 68.0189 37.788L67.6753 37.1009Z" fill="#1CBD5D"/>
<path d="M77.9813 36.7578C78.5377 37.6414 78.6835 38.0209 78.5396 39.0766C78.4687 39.3317 78.3978 39.5868 78.3248 39.8496C77.8714 39.9629 77.4179 40.0763 76.9507 40.1931C76.724 39.5129 76.4973 38.8327 76.2637 38.1319C76.7171 38.1319 77.1706 38.1319 77.6378 38.1319C77.7512 37.6785 77.8645 37.225 77.9813 36.7578Z" fill="#1CBD5D"/>
<path d="M128.824 36.0703C129.051 36.0703 129.277 36.0703 129.511 36.0703C129.511 36.4104 129.511 36.7505 129.511 37.1009C129.738 37.1009 129.964 37.1009 130.198 37.1009C130.198 36.8742 130.198 36.6474 130.198 36.4138C130.425 36.4138 130.651 36.4138 130.885 36.4138C130.471 37.2705 130.042 38.0221 129.511 38.8185C129.284 38.8185 129.057 38.8185 128.824 38.8185C128.824 38.5918 128.824 38.3651 128.824 38.1315C128.597 38.1315 128.37 38.1315 128.137 38.1315C128.437 36.4568 128.437 36.4568 128.824 36.0703Z" fill="#1CBD5D"/>
<path d="M13.398 15.1152C13.6247 15.2286 13.8514 15.342 14.085 15.4588C14.085 16.479 14.085 17.4993 14.085 18.5505C13.7449 18.5505 13.4048 18.5505 13.0544 18.5505C12.7109 18.207 12.7109 18.207 12.6465 17.2194C12.7109 16.1458 12.7109 16.1458 13.398 15.1152Z" fill="#D9B96F"/>
<path d="M15.8025 7.21387C16.0292 7.32723 16.2559 7.4406 16.4895 7.5574C16.2699 7.76287 16.0503 7.96834 15.824 8.18004C15.0457 8.89995 15.0457 8.89995 14.7719 9.9621C14.4318 9.9621 14.0917 9.9621 13.7413 9.9621C13.7413 9.73537 13.7413 9.50864 13.7413 9.27504C13.2878 9.38841 12.8344 9.50177 12.3672 9.61857C13.3917 8.47584 14.3815 7.80078 15.8025 7.21387Z" fill="#73C99F"/>
<path d="M97.2188 2.74805C97.3322 2.74805 97.4456 2.74805 97.5624 2.74805C97.6757 5.12871 97.7891 7.50937 97.9059 9.96216C97.3391 10.0755 96.7723 10.1889 96.1883 10.3057C96.0749 10.079 95.9615 9.85224 95.8447 9.61864C96.2982 9.61864 96.7516 9.61864 97.2188 9.61864C97.2188 7.35134 97.2188 5.08405 97.2188 2.74805Z" fill="#1CBD5D"/>
<path d="M25.421 9.61914C25.9878 9.61914 26.5546 9.61914 27.1386 9.61914C27.3654 10.0726 27.5921 10.5261 27.8257 10.9933C27.4431 11.0358 27.0605 11.0783 26.6663 11.1221C25.4103 11.2154 25.4103 11.2154 24.7339 12.0238C24.7339 11.7971 24.7339 11.5704 24.7339 11.3368C24.5072 11.2234 24.2805 11.1101 24.0469 10.9933C24.387 10.9933 24.7271 10.9933 25.0775 10.9933C25.1908 10.5398 25.3042 10.0863 25.421 9.61914Z" fill="#AEE9CB"/>
<path d="M66.6452 37.1016C66.8719 37.1016 67.0986 37.1016 67.3322 37.1016C67.4456 37.6684 67.5589 38.2352 67.6757 38.8192C66.7688 38.8192 65.8619 38.8192 64.9275 38.8192C64.8141 38.3658 64.7008 37.9123 64.584 37.4451C64.9985 37.4557 64.9985 37.4557 65.4213 37.4666C66.2788 37.5469 66.2788 37.5469 66.6452 37.1016Z" fill="#1CBD5D"/>
<path d="M80.3857 36.0703C80.6125 36.0703 80.8392 36.0703 81.0728 36.0703C81.4163 36.5284 81.7599 36.9864 82.1034 37.4444C82.3301 37.4444 82.5568 37.4444 82.7904 37.4444C82.9038 37.8979 83.0172 38.3513 83.134 38.8185C82.4538 38.8185 81.7736 38.8185 81.0728 38.8185C80.3857 36.8433 80.3857 36.8433 80.3857 36.0703Z" fill="#1CBD5D"/>
<path d="M88.9746 35.04C89.3147 35.1534 89.6548 35.2668 90.0052 35.3836C90.1186 36.4039 90.2319 37.4241 90.3487 38.4753C90.0086 38.5887 89.6685 38.7021 89.3181 38.8189C89.2048 37.5719 89.0914 36.3248 88.9746 35.04Z" fill="#1CBD5D"/>
<path d="M126.762 36.0703C127.103 36.1837 127.443 36.297 127.793 36.4138C127.915 36.87 128.028 37.3284 128.137 37.788C128.645 38.3824 128.645 38.3824 129.167 38.8185C128.137 38.8185 128.137 38.8185 127.106 38.475C126.698 37.423 126.698 37.423 126.419 36.4138C126.532 36.3005 126.646 36.1871 126.762 36.0703Z" fill="#1CBD5D"/>
<path d="M9.61914 29.2002C10.4127 29.4269 11.2062 29.6537 12.0238 29.8873C12.0734 30.0998 12.123 30.3124 12.1741 30.5314C12.3439 31.2726 12.3439 31.2726 12.7109 31.9484C11.53 31.4236 10.5846 30.7455 9.61914 29.8873C9.61914 29.6605 9.61914 29.4338 9.61914 29.2002Z" fill="#37B47B"/>
<path d="M9.96232 11.3369C10.1891 11.4503 10.4158 11.5636 10.6494 11.6804C10.177 12.5393 10.177 12.5393 9.61879 13.3981C9.39206 13.3981 9.16533 13.3981 8.93173 13.3981C8.83254 13.7311 8.73335 14.0641 8.63115 14.4072C8.24468 15.4593 8.24468 15.4593 7.55762 15.8028C7.77538 14.601 8.26246 13.7963 8.95321 12.7969C9.14141 12.5224 9.32961 12.2478 9.52352 11.9649C9.66832 11.7577 9.81313 11.5504 9.96232 11.3369Z" fill="#56BC8D"/>
<path d="M18.8945 6.52671C19.51 6.51745 20.1255 6.51078 20.741 6.50524C21.0838 6.50126 21.4265 6.49727 21.7796 6.49316C22.6734 6.52671 22.6734 6.52671 23.3604 6.87024C23.3604 7.09697 23.3604 7.3237 23.3604 7.5573C22.5669 7.5573 21.7733 7.5573 20.9557 7.5573C20.9557 7.33057 20.9557 7.10384 20.9557 6.87024C20.2755 6.98361 19.5953 7.09697 18.8945 7.21377C18.8945 6.98704 18.8945 6.76031 18.8945 6.52671Z" fill="#7DCEA5"/>
<path d="M75.9203 36.4143C75.807 36.5276 75.6936 36.641 75.5768 36.7578C75.8035 37.438 76.0303 38.1182 76.2639 38.819C75.1073 38.4335 74.6681 37.9912 73.8592 37.1013C73.7458 36.8746 73.6324 36.6479 73.5156 36.4143C74.5498 36.0933 74.8439 36.0555 75.9203 36.4143Z" fill="#1CBD5D"/>
<path d="M38.8189 22.6729C39.0456 22.7862 39.2724 22.8996 39.506 23.0164C39.3926 24.15 39.2792 25.2837 39.1624 26.4517C38.8223 26.2249 38.4822 25.9982 38.1318 25.7646C38.3586 24.7443 38.5853 23.7241 38.8189 22.6729Z" fill="#1CBD5D"/>
<path d="M26.7954 23.7031C27.0221 23.7031 27.2489 23.7031 27.4825 23.7031C27.3691 24.4967 27.2557 25.2902 27.1389 26.1078C26.7988 26.2212 26.4587 26.3346 26.1083 26.4514C26.0393 25.1748 26.0561 24.812 26.7954 23.7031Z" fill="#EBC33A"/>
<path d="M33.6661 15.459C34.3532 16.4896 34.3532 16.4896 34.2673 17.3484C34.0097 18.2072 34.0097 18.2072 33.3226 19.2378C33.3134 18.6724 33.3067 18.107 33.3011 17.5416C33.2972 17.2268 33.2932 16.9119 33.2891 16.5875C33.3226 15.8025 33.3226 15.8025 33.6661 15.459Z" fill="#2BB375"/>
<path d="M113.022 18.5508C112.795 19.231 112.568 19.9112 112.334 20.612C111.087 20.612 109.84 20.612 108.556 20.612C108.556 20.4986 108.556 20.3852 108.556 20.2684C108.8 20.2516 109.044 20.2348 109.295 20.2174C109.611 20.1918 109.927 20.1661 110.252 20.1396C110.567 20.1157 110.882 20.0918 111.206 20.0671C111.595 19.9967 111.595 19.9967 111.991 19.9249C112.104 19.6982 112.218 19.4714 112.334 19.2378C112.108 19.1245 111.881 19.0111 111.647 18.8943C112.334 18.5508 112.334 18.5508 113.022 18.5508Z" fill="#1CBD5D"/>
<path d="M113.365 36.0703C113.252 36.5238 113.138 36.9772 113.021 37.4444C112.568 37.4444 112.114 37.4444 111.647 37.4444C111.534 37.6712 111.421 37.8979 111.304 38.1315C111.304 37.1009 111.304 37.1009 111.755 36.5212C112.334 36.0703 112.334 36.0703 113.365 36.0703Z" fill="#1CBD5D"/>
<path d="M61.148 7.55762C62.0494 8.60922 62.1786 8.83958 62.1786 10.3059C61.6118 10.3059 61.0449 10.3059 60.4609 10.3059C60.4609 10.0791 60.4609 9.85239 60.4609 9.61879C60.801 9.61879 61.1411 9.61879 61.4915 9.61879C61.3782 8.93861 61.2648 8.25842 61.148 7.55762Z" fill="#1CBD5D"/>
<path d="M108.212 37.1016C108.665 37.2149 109.119 37.3283 109.586 37.4451C109.473 38.1253 109.359 38.8055 109.243 39.5063C108.902 39.3929 108.562 39.2795 108.212 39.1627C108.212 38.4826 108.212 37.8024 108.212 37.1016Z" fill="#1CBD5D"/>
<path d="M28.8564 9.96191C29.5435 10.3913 29.5435 10.3913 30.2306 10.9925C30.2306 11.446 30.2306 11.8994 30.2306 12.3666C29.8905 12.2533 29.5504 12.1399 29.2 12.0231C29.0866 11.3429 28.9732 10.6627 28.8564 9.96191Z" fill="#8BE2B9"/>
</g>
<defs>
<clipPath id="clip0_1134_14080">
<rect width="146" height="40.88" fill="white"/>
</clipPath>
</defs>
</svg>
