<svg width="46" height="45" viewBox="0 0 46 45" fill="none" xmlns="http://www.w3.org/2000/svg">
<path d="M32.328 10.1063C35.9781 12.9923 38.0641 16.9363 38.703 21.5429C38.9861 26.1638 37.2913 30.5096 34.2498 33.9679C30.0676 37.5113 26.1447 38.5634 20.7791 38.1919C16.9517 37.7874 13.425 35.5526 10.9471 32.6515C8.00969 28.5808 7.02746 24.3588 7.78451 19.3588C8.80548 14.9126 11.7312 11.4491 15.513 9.0003C20.9059 6.07228 27.3105 6.69724 32.328 10.1063Z" fill="#C2F1D9"/>
<path d="M2.375 24.9316C2.6225 24.9316 2.87 24.9316 3.125 24.9316C3.61133 25.5244 3.61133 25.5244 4.15625 26.32C4.90894 27.3717 5.62761 28.2236 6.64062 29.0262C6.96547 29.2903 7.29031 29.5543 7.625 29.8263C7.625 30.0748 7.625 30.3233 7.625 30.5793C6.8825 30.7036 6.14 30.8278 5.375 30.9559C8.92714 35.7365 12.8033 39.5896 18.875 40.7452C25.8023 41.4068 31.3317 40.0918 36.7578 35.5917C39.9166 32.6383 41.4884 28.967 42.875 24.9316C43.2462 25.118 43.2462 25.118 43.625 25.3082C43.4832 31.042 40.8198 36.0013 36.7519 39.9142C31.8597 43.9717 26.3071 45.4432 20 44.8869C14.9713 44.1069 9.6078 41.5756 6.5 37.3566C3.5 32.7388 3.5 32.7388 3.5 30.9559C2.015 31.7014 2.015 31.7014 0.5 32.4619C1.03854 29.9247 1.67753 27.4293 2.375 24.9316Z" fill="#1CBD5D"/>
<path d="M34.6252 3.47043C35.9685 4.51627 37.1825 5.6444 38.3752 6.85905C38.5908 7.07164 38.8064 7.28422 39.0285 7.50324C40.7935 9.38551 41.8023 11.6865 42.8752 14.0128C43.0995 13.8187 43.3238 13.6245 43.5549 13.4245C43.8256 13.2459 44.0963 13.0673 44.3752 12.8833C44.9321 13.0696 44.9321 13.0696 45.5002 13.2598C45.3963 13.5913 45.2923 13.9228 45.1853 14.2643C45.0494 14.7016 44.9136 15.1389 44.7736 15.5895C44.6388 16.0219 44.5039 16.4544 44.3649 16.8999C44.0611 17.945 43.8159 18.9666 43.6252 20.037C42.3688 19.6165 42.0693 19.2676 41.2346 18.2721C41.0069 18.0028 40.7792 17.7334 40.5446 17.4559C40.3237 17.1894 40.1028 16.9229 39.8752 16.6484C39.6814 16.4169 39.4875 16.1854 39.2878 15.9469C38.8563 15.4296 38.4278 14.9098 38.0002 14.3893C38.7427 14.2651 39.4852 14.1408 40.2502 14.0128C37.3801 9.13095 33.4123 6.39565 28.1242 4.53673C22.8158 3.32642 17.2884 4.0387 12.5515 6.71198C11.6053 7.34053 10.7413 8.00644 9.87521 8.74162C9.61465 8.95712 9.3541 9.17261 9.08566 9.39464C6.04294 12.1601 3.99091 16.1442 2.75021 20.037C2.62646 20.037 2.50271 20.037 2.37521 20.037C2.02626 14.7817 4.3717 10.3885 7.64864 6.43547C14.7335 -1.10483 26.0068 -1.92028 34.6252 3.47043Z" fill="#1CBD5D"/>
<path d="M20.75 14.0134C20.8737 14.2619 20.9975 14.5104 21.125 14.7664C22.1365 14.9893 23.1146 15.1385 24.1514 15.1562C24.9453 15.19 24.9453 15.19 26.375 15.5194C27.0547 16.7431 27.0547 16.7431 27.5 18.155C27.7088 18.5045 27.9177 18.8539 28.1328 19.214C28.625 20.0376 28.625 20.0376 28.625 20.7906C29.12 20.9149 29.615 21.0391 30.125 21.1671C29.9626 21.3812 29.8002 21.5952 29.6328 21.8157C28.246 23.6492 28.246 23.6492 27.8984 25.85C27.8574 28.2001 26.1148 30.0882 24.5 31.7095C23.5156 31.7566 23.5156 31.7566 22.625 31.7095C21.8237 29.5976 21.5 27.9576 21.5 25.6853C21.1898 24.5302 20.799 23.4143 20.375 22.2967C19.3086 22.0447 18.475 21.9223 17.375 22.0143C16.25 21.9202 16.25 21.9202 15.1719 21.1201C14.375 20.0376 14.375 20.0376 14.0938 19.0022C14.5257 17.1227 15.6647 15.7535 17 14.3899C18.3025 13.954 19.3853 13.9875 20.75 14.0134Z" fill="#F3C61F"/>
<path d="M21.125 7.23527C25.747 6.90047 29.667 8.01465 33.333 10.896C35.4524 12.8778 37.1306 15.3718 38 18.1542C37.908 19.5086 37.6378 20.0174 36.875 21.1663C36.6275 19.7995 36.38 18.4328 36.125 17.0246C35.2587 16.9004 34.3925 16.7761 33.5 16.6481C33.8712 16.8966 34.2425 17.1451 34.625 17.4011C34.5547 18.2718 34.5547 18.2718 34.25 19.2837C33.1642 20.1157 32.6257 20.4133 31.25 20.4133C31.0602 19.9357 30.8732 19.457 30.6875 18.9778C30.5831 18.7113 30.4787 18.4449 30.3711 18.1704C30.125 17.4011 30.125 17.4011 30.125 16.2716C29.8775 16.2716 29.63 16.2716 29.375 16.2716C29.2512 15.8989 29.1275 15.5261 29 15.1421C29.2475 15.1421 29.495 15.1421 29.75 15.1421C29.8737 14.6451 29.9975 14.1481 30.125 13.636C29.5062 13.636 28.8875 13.636 28.25 13.636C28.25 13.139 28.25 12.642 28.25 12.13C28.9925 12.0057 29.735 11.8815 30.5 11.7534C30.3762 11.3807 30.2525 11.0079 30.125 10.6239C29.7537 10.7481 29.3825 10.8724 29 11.0004C28.7525 10.8762 28.505 10.7519 28.25 10.6239C28.1262 11.1209 28.0025 11.6179 27.875 12.13C27.5037 12.13 27.1325 12.13 26.75 12.13C26.6262 12.5027 26.5025 12.8755 26.375 13.2595C26.2512 12.7625 26.1275 12.2655 26 11.7534C25.505 11.6292 25.01 11.5049 24.5 11.3769C24.6237 11.6254 24.7475 11.8739 24.875 12.13C23.885 12.0057 22.895 11.8815 21.875 11.7534C21.728 12.0019 21.5811 12.2504 21.4297 12.5065C20.75 13.2595 20.75 13.2595 19.7422 13.3536C19.456 13.3226 19.1698 13.2915 18.875 13.2595C18.875 12.6382 18.875 12.017 18.875 11.3769C19.4937 11.3769 20.1125 11.3769 20.75 11.3769C20.6262 10.7557 20.5025 10.1344 20.375 9.49436C21.3696 9.08951 22.3564 8.70572 23.375 8.36481C23.375 8.11631 23.375 7.86782 23.375 7.61179C22.6325 7.73604 21.89 7.86028 21.125 7.9883C21.125 7.7398 21.125 7.4913 21.125 7.23527Z" fill="#2DB674"/>
<path d="M20.75 14.0134C20.8737 14.2619 20.9975 14.5104 21.125 14.7664C21.4962 15.0149 21.8675 15.2634 22.25 15.5194C22.0025 15.5194 21.755 15.5194 21.5 15.5194C21.5 18.2529 21.5 20.9864 21.5 23.8027C21.2525 23.927 21.005 24.0512 20.75 24.1793C20.5644 23.2474 20.5644 23.2474 20.375 22.2967C19.3086 22.0447 18.475 21.9223 17.375 22.0143C16.25 21.9202 16.25 21.9202 15.1719 21.1201C14.375 20.0376 14.375 20.0376 14.0938 19.0022C14.5257 17.1227 15.6647 15.7535 17 14.3899C18.3025 13.954 19.3853 13.9875 20.75 14.0134Z" fill="#E3BB4F"/>
<path d="M24.8748 15.5187C24.7511 15.6429 24.6273 15.7672 24.4998 15.8952C24.4712 16.9998 24.4658 18.0956 24.4764 19.2C24.4778 19.5319 24.4792 19.8639 24.4807 20.2059C24.4869 21.6323 24.4974 23.0587 24.5075 24.485C24.5143 25.5237 24.5188 26.5623 24.5233 27.6009C24.5264 27.9253 24.5295 28.2497 24.5327 28.5839C24.5421 30.8708 24.5421 30.8708 24.1248 31.7088C23.6298 31.7088 23.1348 31.7088 22.6248 31.7088C21.8331 29.622 21.4133 27.9446 21.4998 25.6845C21.438 25.3898 21.3762 25.0951 21.3124 24.7915C21.1153 23.7516 21.1149 22.8617 21.1703 21.8062C21.1884 21.4385 21.2065 21.0708 21.2252 20.6921C21.2462 20.3128 21.2672 19.9335 21.2889 19.5427C21.3085 19.1561 21.3281 18.7695 21.3482 18.3712C21.3967 17.4202 21.4473 16.4694 21.4998 15.5187C22.7776 15.2314 23.6186 15.0982 24.8748 15.5187Z" fill="#ECC134"/>
<path d="M18.125 14.7656C18.1206 15.2189 18.1163 15.6723 18.1118 16.1393C18.1083 16.7325 18.1049 17.3257 18.1016 17.9189C18.0984 18.2179 18.0953 18.5169 18.092 18.8249C18.0386 20.4223 18.0386 20.4223 18.5 21.9194C16.9937 22.0953 16.4131 22.0404 15.1719 21.1193C14.375 20.0368 14.375 20.0368 14.1172 18.9779C14.603 16.7166 15.7219 14.7656 18.125 14.7656Z" fill="#DDB960"/>
<path d="M24.125 15.5186C24.8675 15.5186 25.61 15.5186 26.375 15.5186C26.375 15.8913 26.375 16.2641 26.375 16.6481C26.1275 16.6481 25.88 16.6481 25.625 16.6481C25.6693 18.2897 25.7159 19.9313 25.7646 21.5728C25.7808 22.1312 25.7965 22.6896 25.8115 23.248C25.8332 24.0509 25.857 24.8537 25.8813 25.6565C25.8951 26.1396 25.9088 26.6226 25.923 27.1204C25.9496 28.328 25.9496 28.328 26.375 29.4496C25.8483 30.3019 25.1762 30.9635 24.5 31.7087C23.8557 30.4149 24.0801 28.9283 24.0884 27.5052C24.0889 27.1637 24.0894 26.8221 24.09 26.4701C24.0921 25.3768 24.0968 24.2834 24.1015 23.19C24.1034 22.4497 24.1051 21.7095 24.1067 20.9692C24.1108 19.1523 24.1173 17.3354 24.125 15.5186Z" fill="#F1C426"/>
<path d="M11 32.0859C13.5312 32.7448 13.5312 32.7448 14.375 33.592C15.2852 33.8478 15.2852 33.8478 16.2969 34.0156C16.8088 34.1102 16.8088 34.1102 17.3311 34.2068C17.5931 34.2524 17.8551 34.298 18.125 34.345C18.1724 34.5848 18.2197 34.8245 18.2686 35.0716C18.4233 35.9128 18.4233 35.9128 19.2031 36.2747C19.4661 36.3834 19.7291 36.4921 20 36.6041C20.3712 36.8526 20.7425 37.1011 21.125 37.3571C21.125 37.6056 21.125 37.8541 21.125 38.1102C17.0118 37.6005 13.9641 35.6857 11 32.839C11 32.5905 11 32.342 11 32.0859Z" fill="#2CB574"/>
<path d="M20.3751 14.7656C20.9938 14.8899 21.6126 15.0141 22.2501 15.1421C21.8788 15.3285 21.8788 15.3285 21.5001 15.5187C21.5001 18.2521 21.5001 20.9856 21.5001 23.802C21.2526 23.9262 21.0051 24.0505 20.7501 24.1785C19.9946 22.0217 19.9589 20.2546 20.1407 17.9895C20.162 17.6782 20.1833 17.3668 20.2052 17.046C20.2577 16.2856 20.3158 15.5256 20.3751 14.7656Z" fill="#E7BE44"/>
<path d="M42.875 24.9316C43.1225 25.0559 43.37 25.1801 43.625 25.3082C43.4715 27.8542 43.0364 30.0792 42.125 32.4619C42.0012 31.9649 41.8775 31.4679 41.75 30.9559C41.1931 31.3286 41.1931 31.3286 40.625 31.7089C40.8816 30.1367 41.3801 28.7417 41.9609 27.2613C42.2169 26.6054 42.2169 26.6054 42.478 25.9362C42.609 25.6047 42.74 25.2732 42.875 24.9316Z" fill="#1CBD5D"/>
<path d="M27.125 18.5312C27.6409 19.0168 28.1404 19.5203 28.625 20.0373C28.625 20.2858 28.625 20.5343 28.625 20.7903C29.12 20.9146 29.615 21.0388 30.125 21.1668C29.8814 21.4945 29.8814 21.4945 29.6328 21.8287C27.9906 24.084 27.9906 24.084 27.875 26.8146C26.9238 25.382 27.1958 25.0753 27.5 23.4259C27.582 21.7317 27.5906 20.1713 27.125 18.5312Z" fill="#F9C80B"/>
<path d="M15.125 16.6484C15.3725 16.7727 15.62 16.8969 15.875 17.025C15.875 18.1432 15.875 19.2614 15.875 20.4136C15.5037 20.4136 15.1325 20.4136 14.75 20.4136C14.375 20.0371 14.375 20.0371 14.3047 18.9546C14.375 17.778 14.375 17.778 15.125 16.6484Z" fill="#D9B96F"/>
<path d="M17.75 7.98828C17.9975 8.11253 18.245 8.23678 18.5 8.3648C18.2602 8.59 18.0205 8.8152 17.7734 9.04723C16.9238 9.83625 16.9238 9.83625 16.625 11.0004C16.2537 11.0004 15.8825 11.0004 15.5 11.0004C15.5 10.7519 15.5 10.5034 15.5 10.2474C15.005 10.3716 14.51 10.4959 14 10.6239C15.1184 9.37143 16.1989 8.63154 17.75 7.98828Z" fill="#73C99F"/>
<path d="M28.25 10.624C28.8687 10.624 29.4875 10.624 30.125 10.624C30.3725 11.121 30.62 11.618 30.875 12.1301C30.4573 12.1767 30.0397 12.2233 29.6094 12.2713C28.2384 12.3735 28.2384 12.3735 27.5 13.2596C27.5 13.0111 27.5 12.7626 27.5 12.5066C27.2525 12.3823 27.005 12.2581 26.75 12.1301C27.1212 12.1301 27.4925 12.1301 27.875 12.1301C27.9987 11.6331 28.1225 11.1361 28.25 10.624Z" fill="#AEE9CB"/>
<path d="M11 32.0859C11.8662 32.3344 12.7325 32.5829 13.625 32.839C13.6791 33.0719 13.7333 33.3049 13.7891 33.5449C13.9743 34.3573 13.9743 34.3573 14.375 35.098C13.0859 34.5228 12.0539 33.7796 11 32.839C11 32.5905 11 32.342 11 32.0859Z" fill="#37B47B"/>
<path d="M11.375 12.5068C11.6225 12.6311 11.87 12.7553 12.125 12.8833C11.6094 13.8246 11.6094 13.8246 11 14.7659C10.7525 14.7659 10.505 14.7659 10.25 14.7659C10.1417 15.1309 10.0334 15.4959 9.92187 15.8719C9.5 17.025 9.5 17.025 8.75 17.4015C8.98771 16.0843 9.51942 15.2023 10.2734 14.107C10.4789 13.8061 10.6843 13.5052 10.896 13.1952C11.0541 12.968 11.2121 12.7409 11.375 12.5068Z" fill="#56BC8D"/>
<path d="M21.125 7.23599C21.7968 7.22584 22.4687 7.21853 23.1406 7.21246C23.5148 7.20809 23.8889 7.20372 24.2744 7.19922C25.25 7.23599 25.25 7.23599 26 7.6125C26 7.861 26 8.1095 26 8.36553C25.1337 8.36553 24.2675 8.36553 23.375 8.36553C23.375 8.11703 23.375 7.86853 23.375 7.6125C22.6325 7.73675 21.89 7.861 21.125 7.98902C21.125 7.74052 21.125 7.49202 21.125 7.23599Z" fill="#7DCEA5"/>
<path d="M42.875 24.9316C43.1225 25.0559 43.37 25.1801 43.625 25.3082C43.5012 26.5507 43.3775 27.7931 43.25 29.0733C42.8787 28.8248 42.5075 28.5763 42.125 28.3203C42.3725 27.202 42.62 26.0838 42.875 24.9316Z" fill="#1CBD5D"/>
<path d="M29.7499 26.0615C29.9974 26.0615 30.2449 26.0615 30.4999 26.0615C30.3762 26.9313 30.2524 27.801 30.1249 28.6971C29.7537 28.8214 29.3824 28.9456 28.9999 29.0736C28.9246 27.6745 28.9429 27.2769 29.7499 26.0615Z" fill="#EBC33A"/>
<path d="M37.25 17.0254C38 18.1549 38 18.1549 37.9062 19.0962C37.625 20.0375 37.625 20.0375 36.875 21.167C36.8649 20.5474 36.8576 19.9277 36.8516 19.308C36.8472 18.9629 36.8429 18.6178 36.8384 18.2623C36.875 17.4019 36.875 17.4019 37.25 17.0254Z" fill="#2BB375"/>
<path d="M32 11.001C32.75 11.4716 32.75 11.4716 33.5 12.1305C33.5 12.6275 33.5 13.1245 33.5 13.6366C33.1287 13.5123 32.7575 13.3881 32.375 13.2601C32.2512 12.5146 32.1275 11.7691 32 11.001Z" fill="#8BE2B9"/>
</svg>
