<svg width="19" height="18" viewBox="0 0 19 18" fill="none" xmlns="http://www.w3.org/2000/svg">
<path d="M9.5 10.5C9.89782 10.5 10.2794 10.342 10.5607 10.0607C10.842 9.77936 11 9.39782 11 9C11 8.60218 10.842 8.22064 10.5607 7.93934C10.2794 7.65804 9.89782 7.5 9.5 7.5C9.10218 7.5 8.72064 7.65804 8.43934 7.93934C8.15804 8.22064 8 8.60218 8 9C8 9.39782 8.15804 9.77936 8.43934 10.0607C8.72064 10.342 9.10218 10.5 9.5 10.5ZM5 10.5C5.39782 10.5 5.77936 10.342 6.06066 10.0607C6.34196 9.77936 6.5 9.39782 6.5 9C6.5 8.60218 6.34196 8.22064 6.06066 7.93934C5.77936 7.65804 5.39782 7.5 5 7.5C4.60218 7.5 4.22064 7.65804 3.93934 7.93934C3.65804 8.22064 3.5 8.60218 3.5 9C3.5 9.39782 3.65804 9.77936 3.93934 10.0607C4.22064 10.342 4.60218 10.5 5 10.5ZM14 10.5C14.3978 10.5 14.7794 10.342 15.0607 10.0607C15.342 9.77936 15.5 9.39782 15.5 9C15.5 8.60218 15.342 8.22064 15.0607 7.93934C14.7794 7.65804 14.3978 7.5 14 7.5C13.6022 7.5 13.2206 7.65804 12.9393 7.93934C12.658 8.22064 12.5 8.60218 12.5 9C12.5 9.39782 12.658 9.77936 12.9393 10.0607C13.2206 10.342 13.6022 10.5 14 10.5Z" fill="#1C2B3F"/>
</svg>
