<svg width="7" height="7" viewBox="0 0 7 7" fill="none" xmlns="http://www.w3.org/2000/svg">
<path d="M0.406821 3.88435L3.11515 6.59269C3.16667 6.642 3.22741 6.68066 3.2939 6.70644C3.42578 6.76061 3.5737 6.76061 3.70557 6.70644C3.77206 6.68066 3.83281 6.642 3.88432 6.59269L6.59265 3.88435C6.64316 3.83385 6.68322 3.77389 6.71055 3.70791C6.73789 3.64192 6.75195 3.5712 6.75195 3.49977C6.75195 3.35552 6.69465 3.21719 6.59265 3.11519C6.49066 3.01319 6.35232 2.95589 6.20807 2.95589C6.06382 2.95589 5.92548 3.01319 5.82349 3.11519L4.0414 4.90269L4.0414 0.791439C4.0414 0.647779 3.98433 0.510004 3.88275 0.408422C3.78117 0.30684 3.6434 0.249772 3.49974 0.249772C3.35608 0.249772 3.2183 0.30684 3.11672 0.408422C3.01514 0.510004 2.95807 0.647779 2.95807 0.791439L2.95807 4.90269L1.17599 3.11519C1.12563 3.06442 1.06572 3.02412 0.999716 2.99662C0.933709 2.96912 0.86291 2.95496 0.791403 2.95496C0.719897 2.95496 0.649098 2.96912 0.583091 2.99662C0.517084 3.02412 0.457176 3.06442 0.406821 3.11519C0.356051 3.16554 0.315753 3.22545 0.288254 3.29146C0.260754 3.35747 0.246596 3.42827 0.246596 3.49977C0.246596 3.57128 0.260754 3.64208 0.288254 3.70808C0.315753 3.77409 0.356051 3.834 0.406821 3.88435Z" fill="#FE293B"/>
</svg>
