<svg width="7" height="7" viewBox="0 0 7 7" fill="none" xmlns="http://www.w3.org/2000/svg">
<path d="M6.59318 3.11565L3.88485 0.407312C3.83333 0.357998 3.77259 0.319342 3.7061 0.293562C3.57422 0.239386 3.4263 0.239386 3.29443 0.293562C3.22794 0.319342 3.16719 0.357998 3.11568 0.407312L0.407347 3.11565C0.356842 3.16615 0.31678 3.22611 0.289448 3.29209C0.262115 3.35808 0.248047 3.4288 0.248047 3.50023C0.248047 3.64448 0.305349 3.78281 0.407347 3.88481C0.509344 3.98681 0.647683 4.04411 0.79193 4.04411C0.936177 4.04411 1.07452 3.98681 1.17651 3.88481L2.9586 2.09731V6.20856C2.9586 6.35222 3.01567 6.49 3.11725 6.59158C3.21883 6.69316 3.3566 6.75023 3.50026 6.75023C3.64392 6.75023 3.7817 6.69316 3.88328 6.59158C3.98486 6.49 4.04193 6.35222 4.04193 6.20856V2.09731L5.82401 3.88481C5.87437 3.93558 5.93428 3.97588 6.00028 4.00338C6.06629 4.03088 6.13709 4.04504 6.2086 4.04504C6.2801 4.04504 6.3509 4.03088 6.41691 4.00338C6.48292 3.97588 6.54282 3.93558 6.59318 3.88481C6.64395 3.83446 6.68425 3.77455 6.71175 3.70854C6.73925 3.64253 6.7534 3.57173 6.7534 3.50023C6.7534 3.42872 6.73925 3.35792 6.71175 3.29192C6.68425 3.22591 6.64395 3.166 6.59318 3.11565Z" fill="#12B768"/>
</svg>
