<svg width="17" height="14" viewBox="0 0 17 14" fill="none" xmlns="http://www.w3.org/2000/svg">
<path d="M3.25 10.75C3.25 11.1478 3.40804 11.5294 3.68934 11.8107C3.97064 12.092 4.35218 12.25 4.75 12.25C5.14782 12.25 5.52936 12.092 5.81066 11.8107C6.09196 11.5294 6.25 11.1478 6.25 10.75C6.25 10.3522 6.09196 9.97064 5.81066 9.68934C5.52936 9.40804 5.14782 9.25 4.75 9.25C4.35218 9.25 3.97064 9.40804 3.68934 9.68934C3.40804 9.97064 3.25 10.3522 3.25 10.75ZM10.75 10.75C10.75 11.1478 10.908 11.5294 11.1893 11.8107C11.4706 12.092 11.8522 12.25 12.25 12.25C12.6478 12.25 13.0294 12.092 13.3107 11.8107C13.592 11.5294 13.75 11.1478 13.75 10.75C13.75 10.3522 13.592 9.97064 13.3107 9.68934C13.0294 9.40804 12.6478 9.25 12.25 9.25C11.8522 9.25 11.4706 9.40804 11.1893 9.68934C10.908 9.97064 10.75 10.3522 10.75 10.75Z" stroke="#1C2B3F" stroke-width="1.66667" stroke-linecap="round" stroke-linejoin="round"/>
<path d="M3.25 10.75H1.75V2.5C1.75 2.30109 1.82902 2.11032 1.96967 1.96967C2.11032 1.82902 2.30109 1.75 2.5 1.75H9.25V10.75M6.25 10.75H10.75M13.75 10.75H15.25V6.25M15.25 6.25H9.25M15.25 6.25L13 2.5H9.25" stroke="#1C2B3F" stroke-width="1.66667" stroke-linecap="round" stroke-linejoin="round"/>
</svg>
