<svg width="251" height="180" viewBox="0 0 251 180" fill="none" xmlns="http://www.w3.org/2000/svg">
<path d="M67.5 50.001C75.7076 50.001 83.8349 51.6176 91.4177 54.7585C99.0006 57.8994 105.891 62.5031 111.694 68.3068C117.498 74.1105 122.102 81.0004 125.242 88.5833C128.383 96.1661 130 104.293 130 112.501C130 120.709 128.383 128.836 125.242 136.419C122.102 144.002 117.498 150.892 111.694 156.695C105.89 162.499 99.0005 167.103 91.4177 170.243C83.8348 173.384 75.7076 175.001 67.5 175.001C59.2924 175.001 51.1651 173.384 43.5823 170.243C35.9994 167.103 29.1095 162.499 23.3058 156.695C17.5021 150.891 12.8984 144.002 9.75752 136.419C6.6166 128.836 5 120.709 5 112.501C5 104.293 6.61662 96.1661 9.75754 88.5832C12.8985 81.0004 17.5022 74.1104 23.3059 68.3068C29.1095 62.5031 35.9995 57.8994 43.5823 54.7585C51.1652 51.6176 59.2924 50.001 67.5 50.001L67.5 50.001Z" stroke="#243A5A" stroke-width="9.61539" stroke-linecap="round" stroke-linejoin="round"/>
<path d="M52.3185 51.8728C66.3451 48.3605 81.1557 49.8204 94.2266 56.0037C107.298 62.1871 117.82 72.7113 124.001 85.7832C130.183 98.8551 131.64 113.666 128.126 127.692C124.611 141.718 116.342 154.092 104.727 162.704C93.1125 171.317 78.8706 175.636 64.4284 174.925C49.9862 174.215 36.2371 168.519 25.524 158.807C14.8108 149.096 7.79632 135.97 5.67575 121.667C3.55519 107.363 6.45972 92.7673 13.8945 80.3654" stroke="#480CA8" stroke-width="9.61539" stroke-linecap="round" stroke-linejoin="round"/>
<path d="M67.5003 62.0195C74.1295 62.0195 80.6938 63.3253 86.8185 65.8622C92.9431 68.399 98.508 72.1174 103.196 76.805C107.883 81.4926 111.602 87.0575 114.138 93.1822C116.675 99.3068 117.981 105.871 117.981 112.5C117.981 119.13 116.675 125.694 114.138 131.818C111.602 137.943 107.883 143.508 103.196 148.196C98.508 152.883 92.943 156.602 86.8184 159.138C80.6938 161.675 74.1295 162.981 67.5003 162.981C60.8711 162.981 54.3067 161.675 48.1821 159.138C42.0575 156.602 36.4926 152.883 31.805 148.196C27.1174 143.508 23.399 137.943 20.8621 131.818C18.3252 125.694 17.0195 119.13 17.0195 112.5C17.0195 105.871 18.3253 99.3067 20.8622 93.1821C23.3991 87.0575 27.1175 81.4926 31.805 76.805C36.4926 72.1174 42.0576 68.399 48.1822 65.8621C54.3068 63.3252 60.8711 62.0195 67.5003 62.0195L67.5003 62.0195Z" stroke="#243A5A" stroke-width="9.61539" stroke-linecap="round" stroke-linejoin="round"/>
<path d="M67.5003 62.0195C77.2636 62.0195 86.8174 64.8507 95.0043 70.1702C103.191 75.4896 109.66 83.069 113.627 91.9901C117.593 100.911 118.888 110.791 117.354 120.433C115.82 130.075 111.522 139.065 104.982 146.315C98.4424 153.564 89.9406 158.761 80.5069 161.277C71.0733 163.792 61.1126 163.518 51.8315 160.488C42.5504 157.457 34.3473 151.801 28.2159 144.203C22.0844 136.605 18.2878 127.392 17.286 117.68" stroke="#5DCA07" stroke-width="9.61539" stroke-linecap="round" stroke-linejoin="round"/>
<path d="M67.4996 74.0381C72.5505 74.0381 77.5519 75.0329 82.2182 76.9658C86.8846 78.8987 91.1246 81.7317 94.6961 85.3032C98.2675 88.8747 101.101 93.1147 103.033 97.781C104.966 102.447 105.961 107.449 105.961 112.5C105.961 117.55 104.966 122.552 103.033 127.218C101.101 131.885 98.2675 136.125 94.696 139.696C91.1246 143.268 86.8846 146.101 82.2182 148.033C77.5518 149.966 72.5505 150.961 67.4996 150.961C62.4488 150.961 57.4474 149.966 52.781 148.033C48.1147 146.101 43.8747 143.268 40.3032 139.696C36.7317 136.125 33.8987 131.885 31.9658 127.218C30.0329 122.552 29.0381 117.55 29.0381 112.5C29.0381 107.449 30.0329 102.447 31.9658 97.781C33.8987 93.1146 36.7317 88.8747 40.3032 85.3032C43.8747 81.7317 48.1147 78.8987 52.7811 76.9658C57.4474 75.0329 62.4488 74.0381 67.4997 74.0381L67.4996 74.0381Z" stroke="#243A5A" stroke-width="9.61539" stroke-linecap="round" stroke-linejoin="round"/>
<path d="M67.4996 74.0381C73.5066 74.0381 79.4301 75.4451 84.7955 78.1464C90.1608 80.8477 94.8189 84.7682 98.3964 89.5937C101.974 94.4192 104.371 100.016 105.397 105.934C106.422 111.853 106.047 117.93 104.301 123.678C102.555 129.425 99.4873 134.684 95.3433 139.033C91.1992 143.382 86.0942 146.699 80.4372 148.72C74.7803 150.741 68.7287 151.408 62.7673 150.669C56.806 149.93 51.1006 147.805 46.1084 144.464" stroke="#02B5D3" stroke-width="9.61539" stroke-linecap="round" stroke-linejoin="round"/>
<path d="M67.5 86.5C70.98 86.5 74.426 87.1725 77.6411 88.4791C80.8562 89.7858 83.7776 91.7009 86.2383 94.1152C88.6991 96.5295 90.6511 99.3958 91.9828 102.55C93.3146 105.705 94 109.086 94 112.5C94 115.914 93.3146 119.295 91.9828 122.45C90.6511 125.604 88.6991 128.47 86.2383 130.885C83.7776 133.299 80.8562 135.214 77.6411 136.521C74.426 137.827 70.98 138.5 67.5 138.5C64.02 138.5 60.574 137.827 57.3589 136.521C54.1438 135.214 51.2224 133.299 48.7617 130.885C46.3009 128.47 44.3489 125.604 43.0172 122.45C41.6854 119.295 41 115.914 41 112.5C41 109.086 41.6854 105.705 43.0172 102.55C44.3489 99.3958 46.3009 96.5295 48.7617 94.1152C51.2224 91.7009 54.1438 89.7857 57.3589 88.4791C60.574 87.1725 64.02 86.5 67.5 86.5L67.5 86.5Z" stroke="#243A5A" stroke-width="9.61539" stroke-linecap="round" stroke-linejoin="round"/>
<path d="M55.1929 89.474C58.4604 87.7928 62.0498 86.7996 65.7311 86.558C69.4125 86.3164 73.1047 86.8316 76.5713 88.0708C80.038 89.3099 83.2028 91.2457 85.8629 93.7541C88.5231 96.2625 90.6201 99.2883 92.0196 102.638C93.4191 105.987 94.0903 109.586 93.9903 113.205C93.8902 116.824 93.0211 120.382 91.4385 123.652C89.856 126.922 87.5949 129.832 84.8 132.195C82.0051 134.558 78.7381 136.323 75.208 137.376" stroke="#F1C426" stroke-width="9.61539" stroke-linecap="round" stroke-linejoin="round"/>
<path d="M163 6C163 3.79086 164.791 2 167 2C169.209 2 171 3.79086 171 6C171 8.20914 169.209 10 167 10C164.791 10 163 8.20914 163 6Z" fill="#480CA8"/>
<path d="M176.179 10H175.256L177.926 2.72727H178.835L181.506 10H180.582L178.409 3.87784H178.352L176.179 10ZM176.52 7.15909H180.241V7.94034H176.52V7.15909ZM184.954 4.54545V5.25568H182.013V4.54545H184.954ZM182.894 10V3.79261C182.894 3.48011 182.968 3.2197 183.114 3.01136C183.261 2.80303 183.452 2.64678 183.686 2.54261C183.92 2.43845 184.168 2.38636 184.428 2.38636C184.634 2.38636 184.802 2.40294 184.933 2.43608C185.063 2.46922 185.16 2.5 185.224 2.52841L184.982 3.25284C184.94 3.23864 184.88 3.22088 184.805 3.19957C184.731 3.17827 184.634 3.16761 184.513 3.16761C184.237 3.16761 184.036 3.23745 183.913 3.37713C183.793 3.51681 183.732 3.72159 183.732 3.99148V10H182.894ZM186.128 10V4.54545H186.938V5.36932H186.995C187.094 5.09943 187.274 4.88045 187.535 4.71236C187.795 4.54427 188.089 4.46023 188.415 4.46023C188.477 4.46023 188.554 4.46141 188.646 4.46378C188.738 4.46615 188.808 4.4697 188.856 4.47443V5.3267C188.827 5.3196 188.762 5.30895 188.66 5.29474C188.561 5.27817 188.456 5.26989 188.344 5.26989C188.079 5.26989 187.842 5.32552 187.634 5.43679C187.428 5.54569 187.265 5.69721 187.144 5.89134C187.026 6.0831 186.966 6.30208 186.966 6.5483V10H186.128ZM193.074 10H192.15L194.821 2.72727H195.73L198.4 10H197.477L195.304 3.87784H195.247L193.074 10ZM193.414 7.15909H197.136V7.94034H193.414V7.15909ZM199.478 10V4.54545H200.316V10H199.478ZM199.904 3.63636C199.741 3.63636 199.6 3.58073 199.482 3.46946C199.366 3.35819 199.308 3.22443 199.308 3.06818C199.308 2.91193 199.366 2.77817 199.482 2.6669C199.6 2.55563 199.741 2.5 199.904 2.5C200.067 2.5 200.207 2.55563 200.323 2.6669C200.442 2.77817 200.501 2.91193 200.501 3.06818C200.501 3.22443 200.442 3.35819 200.323 3.46946C200.207 3.58073 200.067 3.63636 199.904 3.63636ZM201.851 10V4.54545H202.661V5.36932H202.718C202.817 5.09943 202.997 4.88045 203.257 4.71236C203.518 4.54427 203.811 4.46023 204.138 4.46023C204.2 4.46023 204.276 4.46141 204.369 4.46378C204.461 4.46615 204.531 4.4697 204.578 4.47443V5.3267C204.55 5.3196 204.485 5.30895 204.383 5.29474C204.284 5.27817 204.178 5.26989 204.067 5.26989C203.802 5.26989 203.565 5.32552 203.357 5.43679C203.151 5.54569 202.987 5.69721 202.867 5.89134C202.748 6.0831 202.689 6.30208 202.689 6.5483V10H201.851ZM208.498 10V2.72727H211.04C211.547 2.72727 211.965 2.81487 212.294 2.99006C212.623 3.16288 212.868 3.39607 213.029 3.68963C213.19 3.98082 213.271 4.30398 213.271 4.65909C213.271 4.97159 213.215 5.22964 213.104 5.43324C212.995 5.63684 212.85 5.79782 212.67 5.91619C212.493 6.03456 212.3 6.12216 212.092 6.17898V6.25C212.314 6.2642 212.538 6.34233 212.763 6.48438C212.988 6.62642 213.176 6.83002 213.327 7.09517C213.479 7.36032 213.555 7.68466 213.555 8.06818C213.555 8.43277 213.472 8.76065 213.306 9.05185C213.14 9.34304 212.879 9.57386 212.521 9.74432C212.164 9.91477 211.699 10 211.126 10H208.498ZM209.379 9.21875H211.126C211.701 9.21875 212.109 9.10748 212.351 8.88494C212.595 8.66004 212.717 8.38778 212.717 8.06818C212.717 7.82197 212.654 7.5947 212.528 7.38636C212.403 7.17566 212.224 7.00758 211.992 6.8821C211.76 6.75426 211.486 6.69034 211.168 6.69034H209.379V9.21875ZM209.379 5.9233H211.012C211.277 5.9233 211.516 5.87121 211.729 5.76705C211.945 5.66288 212.115 5.5161 212.241 5.3267C212.369 5.13731 212.433 4.91477 212.433 4.65909C212.433 4.33949 212.321 4.06842 212.099 3.84588C211.876 3.62098 211.523 3.50852 211.04 3.50852H209.379V5.9233ZM216.493 10.1278C216.148 10.1278 215.834 10.0627 215.552 9.93253C215.27 9.79995 215.047 9.60938 214.881 9.3608C214.715 9.10985 214.632 8.80682 214.632 8.4517C214.632 8.1392 214.694 7.88589 214.817 7.69176C214.94 7.49527 215.105 7.34138 215.311 7.23011C215.517 7.11884 215.744 7.03598 215.993 6.98153C216.243 6.92472 216.496 6.87973 216.749 6.84659C217.08 6.80398 217.349 6.77202 217.555 6.75071C217.763 6.72704 217.915 6.68797 218.01 6.63352C218.107 6.57907 218.155 6.48437 218.155 6.34943V6.32102C218.155 5.97064 218.059 5.69839 217.868 5.50426C217.678 5.31013 217.391 5.21307 217.005 5.21307C216.605 5.21307 216.291 5.30066 216.064 5.47585C215.836 5.65104 215.676 5.83807 215.584 6.03693L214.789 5.75284C214.931 5.4214 215.12 5.16335 215.357 4.97869C215.596 4.79167 215.856 4.66146 216.138 4.58807C216.422 4.51231 216.702 4.47443 216.976 4.47443C217.151 4.47443 217.353 4.49574 217.58 4.53835C217.81 4.5786 218.031 4.66264 218.244 4.79048C218.459 4.91832 218.638 5.11127 218.78 5.36932C218.922 5.62737 218.993 5.97301 218.993 6.40625V10H218.155V9.26136H218.113C218.056 9.37973 217.961 9.50639 217.828 9.64134C217.696 9.77628 217.52 9.8911 217.299 9.9858C217.079 10.0805 216.81 10.1278 216.493 10.1278ZM216.621 9.375C216.953 9.375 217.232 9.3099 217.459 9.17969C217.689 9.04948 217.862 8.88139 217.978 8.67543C218.096 8.46946 218.155 8.25284 218.155 8.02557V7.25852C218.12 7.30114 218.042 7.3402 217.921 7.37571C217.802 7.40885 217.665 7.43845 217.509 7.46449C217.355 7.48816 217.205 7.50947 217.058 7.52841C216.913 7.54498 216.796 7.55919 216.706 7.57102C216.489 7.59943 216.285 7.6456 216.096 7.70952C215.908 7.77107 215.757 7.86458 215.641 7.99006C215.527 8.11316 215.471 8.28125 215.471 8.49432C215.471 8.78551 215.578 9.00568 215.794 9.15483C216.011 9.30161 216.287 9.375 216.621 9.375ZM224.387 5.76705L223.634 5.98011C223.586 5.85464 223.517 5.73272 223.424 5.61435C223.334 5.49361 223.211 5.39418 223.055 5.31605C222.899 5.23793 222.699 5.19886 222.455 5.19886C222.121 5.19886 221.843 5.2758 221.62 5.42969C221.4 5.5812 221.29 5.77415 221.29 6.00852C221.29 6.21686 221.366 6.38139 221.517 6.50213C221.669 6.62287 221.905 6.72348 222.227 6.80398L223.037 7.00284C223.525 7.12121 223.888 7.30232 224.127 7.54616C224.366 7.78764 224.486 8.09896 224.486 8.48011C224.486 8.79261 224.396 9.07197 224.216 9.31818C224.039 9.56439 223.79 9.75852 223.47 9.90057C223.151 10.0426 222.779 10.1136 222.355 10.1136C221.799 10.1136 221.338 9.9929 220.974 9.75142C220.609 9.50994 220.378 9.1572 220.281 8.69318L221.077 8.49432C221.153 8.78788 221.296 9.00805 221.507 9.15483C221.72 9.30161 221.998 9.375 222.341 9.375C222.732 9.375 223.042 9.29214 223.271 9.12642C223.503 8.95833 223.619 8.7571 223.619 8.52273C223.619 8.33333 223.553 8.17472 223.421 8.04688C223.288 7.91667 223.084 7.8196 222.81 7.75568L221.901 7.54261C221.401 7.42424 221.034 7.24077 220.8 6.99219C220.568 6.74124 220.452 6.42756 220.452 6.05114C220.452 5.74337 220.538 5.47112 220.711 5.23438C220.886 4.99763 221.124 4.81179 221.425 4.67685C221.728 4.5419 222.071 4.47443 222.455 4.47443C222.994 4.47443 223.418 4.5928 223.726 4.82955C224.036 5.06629 224.256 5.37879 224.387 5.76705ZM225.748 10V4.54545H226.586V10H225.748ZM226.174 3.63636C226.01 3.63636 225.869 3.58073 225.751 3.46946C225.635 3.35819 225.577 3.22443 225.577 3.06818C225.577 2.91193 225.635 2.77817 225.751 2.6669C225.869 2.55563 226.01 2.5 226.174 2.5C226.337 2.5 226.477 2.55563 226.593 2.6669C226.711 2.77817 226.77 2.91193 226.77 3.06818C226.77 3.22443 226.711 3.35819 226.593 3.46946C226.477 3.58073 226.337 3.63636 226.174 3.63636ZM230.336 10.1136C229.825 10.1136 229.385 9.9929 229.015 9.75142C228.646 9.50994 228.362 9.17732 228.163 8.75355C227.964 8.32978 227.865 7.84564 227.865 7.30114C227.865 6.74716 227.967 6.25829 228.17 5.83452C228.376 5.40838 228.663 5.07576 229.03 4.83665C229.399 4.59517 229.83 4.47443 230.322 4.47443C230.706 4.47443 231.051 4.54545 231.359 4.6875C231.667 4.82955 231.919 5.02841 232.116 5.28409C232.312 5.53977 232.434 5.83807 232.481 6.17898H231.643C231.579 5.9304 231.437 5.71023 231.217 5.51847C230.999 5.32434 230.706 5.22727 230.336 5.22727C230.01 5.22727 229.723 5.3125 229.477 5.48295C229.233 5.65104 229.043 5.88897 228.905 6.19673C228.77 6.50213 228.703 6.8608 228.703 7.27273C228.703 7.69413 228.769 8.06108 228.902 8.37358C229.037 8.68608 229.226 8.92874 229.47 9.10156C229.716 9.27438 230.005 9.3608 230.336 9.3608C230.554 9.3608 230.752 9.32292 230.93 9.24716C231.107 9.1714 231.257 9.0625 231.381 8.92045C231.504 8.77841 231.591 8.60795 231.643 8.40909H232.481C232.434 8.73106 232.317 9.02107 232.13 9.27912C231.945 9.5348 231.7 9.7384 231.395 9.88991C231.092 10.0391 230.739 10.1136 230.336 10.1136Z" fill="white"/>
<path d="M199.835 34.2216C198.9 34.2216 198.097 33.9848 197.426 33.5114C196.759 33.0341 196.246 32.3466 195.886 31.4489C195.53 30.5473 195.352 29.4621 195.352 28.1932C195.356 26.9242 195.536 25.8447 195.892 24.9545C196.252 24.0606 196.765 23.3788 197.432 22.9091C198.102 22.4394 198.903 22.2045 199.835 22.2045C200.767 22.2045 201.568 22.4394 202.239 22.9091C202.909 23.3788 203.422 24.0606 203.778 24.9545C204.138 25.8485 204.318 26.928 204.318 28.1932C204.318 29.4659 204.138 30.553 203.778 31.4545C203.422 32.3523 202.909 33.0379 202.239 33.5114C201.572 33.9848 200.771 34.2216 199.835 34.2216ZM199.835 32.4432C200.563 32.4432 201.136 32.0852 201.557 31.3693C201.981 30.6496 202.193 29.5909 202.193 28.1932C202.193 27.2689 202.097 26.4924 201.903 25.8636C201.71 25.2348 201.438 24.7614 201.085 24.4432C200.733 24.1212 200.316 23.9602 199.835 23.9602C199.112 23.9602 198.54 24.3201 198.119 25.0398C197.699 25.7557 197.487 26.8068 197.483 28.1932C197.479 29.1212 197.572 29.9015 197.761 30.5341C197.955 31.1667 198.227 31.6439 198.58 31.9659C198.932 32.2841 199.35 32.4432 199.835 32.4432ZM212.428 31.8182V31.2045C212.428 30.7538 212.522 30.339 212.712 29.9602C212.905 29.5814 213.185 29.2765 213.553 29.0455C213.92 28.8144 214.365 28.6989 214.888 28.6989C215.426 28.6989 215.876 28.8144 216.24 29.0455C216.604 29.2727 216.878 29.5758 217.064 29.9545C217.253 30.3333 217.348 30.75 217.348 31.2045V31.8182C217.348 32.2689 217.253 32.6837 217.064 33.0625C216.875 33.4413 216.596 33.7462 216.229 33.9773C215.865 34.2083 215.418 34.3239 214.888 34.3239C214.357 34.3239 213.909 34.2083 213.541 33.9773C213.174 33.7462 212.895 33.4413 212.706 33.0625C212.52 32.6837 212.428 32.2689 212.428 31.8182ZM213.911 31.2045V31.8182C213.911 32.1174 213.982 32.392 214.126 32.642C214.27 32.892 214.524 33.017 214.888 33.017C215.255 33.017 215.507 32.8939 215.643 32.6477C215.784 32.3977 215.854 32.1212 215.854 31.8182V31.2045C215.854 30.9015 215.787 30.625 215.655 30.375C215.522 30.1212 215.267 29.9943 214.888 29.9943C214.532 29.9943 214.28 30.1212 214.132 30.375C213.984 30.625 213.911 30.9015 213.911 31.2045ZM206.513 25.1591V24.5455C206.513 24.0909 206.609 23.6742 206.803 23.2955C206.996 22.9167 207.276 22.6136 207.643 22.3864C208.011 22.1553 208.456 22.0398 208.979 22.0398C209.513 22.0398 209.962 22.1553 210.325 22.3864C210.693 22.6136 210.969 22.9167 211.155 23.2955C211.34 23.6742 211.433 24.0909 211.433 24.5455V25.1591C211.433 25.6136 211.339 26.0303 211.149 26.4091C210.964 26.7841 210.687 27.0852 210.32 27.3125C209.952 27.5398 209.505 27.6534 208.979 27.6534C208.445 27.6534 207.994 27.5398 207.626 27.3125C207.263 27.0852 206.986 26.7822 206.797 26.4034C206.607 26.0246 206.513 25.6098 206.513 25.1591ZM208.007 24.5455V25.1591C208.007 25.4621 208.077 25.7386 208.217 25.9886C208.361 26.2348 208.615 26.358 208.979 26.358C209.342 26.358 209.592 26.2348 209.729 25.9886C209.869 25.7386 209.939 25.4621 209.939 25.1591V24.5455C209.939 24.2424 209.873 23.9659 209.74 23.7159C209.607 23.4621 209.354 23.3352 208.979 23.3352C208.619 23.3352 208.367 23.4621 208.223 23.7159C208.079 23.9697 208.007 24.2462 208.007 24.5455ZM207.161 34L215.161 22.3636H216.581L208.581 34H207.161Z" fill="white"/>
<path d="M163 51C163 48.7909 164.791 47 167 47C169.209 47 171 48.7909 171 51C171 53.2091 169.209 55 167 55C164.791 55 163 53.2091 163 51Z" fill="#5DCA07"/>
<path d="M176.179 55H175.256L177.926 47.7273H178.835L181.506 55H180.582L178.409 48.8778H178.352L176.179 55ZM176.52 52.1591H180.241V52.9403H176.52V52.1591ZM184.954 49.5455V50.2557H182.013V49.5455H184.954ZM182.894 55V48.7926C182.894 48.4801 182.968 48.2197 183.114 48.0114C183.261 47.803 183.452 47.6468 183.686 47.5426C183.92 47.4384 184.168 47.3864 184.428 47.3864C184.634 47.3864 184.802 47.4029 184.933 47.4361C185.063 47.4692 185.16 47.5 185.224 47.5284L184.982 48.2528C184.94 48.2386 184.88 48.2209 184.805 48.1996C184.731 48.1783 184.634 48.1676 184.513 48.1676C184.237 48.1676 184.036 48.2375 183.913 48.3771C183.793 48.5168 183.732 48.7216 183.732 48.9915V55H182.894ZM186.128 55V49.5455H186.938V50.3693H186.995C187.094 50.0994 187.274 49.8804 187.535 49.7124C187.795 49.5443 188.089 49.4602 188.415 49.4602C188.477 49.4602 188.554 49.4614 188.646 49.4638C188.738 49.4661 188.808 49.4697 188.856 49.4744V50.3267C188.827 50.3196 188.762 50.3089 188.66 50.2947C188.561 50.2782 188.456 50.2699 188.344 50.2699C188.079 50.2699 187.842 50.3255 187.634 50.4368C187.428 50.5457 187.265 50.6972 187.144 50.8913C187.026 51.0831 186.966 51.3021 186.966 51.5483V55H186.128ZM193.074 55H192.15L194.821 47.7273H195.73L198.4 55H197.477L195.304 48.8778H195.247L193.074 55ZM193.414 52.1591H197.136V52.9403H193.414V52.1591ZM199.478 55V49.5455H200.316V55H199.478ZM199.904 48.6364C199.741 48.6364 199.6 48.5807 199.482 48.4695C199.366 48.3582 199.308 48.2244 199.308 48.0682C199.308 47.9119 199.366 47.7782 199.482 47.6669C199.6 47.5556 199.741 47.5 199.904 47.5C200.067 47.5 200.207 47.5556 200.323 47.6669C200.442 47.7782 200.501 47.9119 200.501 48.0682C200.501 48.2244 200.442 48.3582 200.323 48.4695C200.207 48.5807 200.067 48.6364 199.904 48.6364ZM201.851 55V49.5455H202.661V50.3693H202.718C202.817 50.0994 202.997 49.8804 203.257 49.7124C203.518 49.5443 203.811 49.4602 204.138 49.4602C204.2 49.4602 204.276 49.4614 204.369 49.4638C204.461 49.4661 204.531 49.4697 204.578 49.4744V50.3267C204.55 50.3196 204.485 50.3089 204.383 50.2947C204.284 50.2782 204.178 50.2699 204.067 50.2699C203.802 50.2699 203.565 50.3255 203.357 50.4368C203.151 50.5457 202.987 50.6972 202.867 50.8913C202.748 51.0831 202.689 51.3021 202.689 51.5483V55H201.851ZM212.475 49.5455C212.433 49.1856 212.26 48.9062 211.957 48.7074C211.654 48.5085 211.282 48.4091 210.842 48.4091C210.52 48.4091 210.238 48.4612 209.996 48.5653C209.757 48.6695 209.57 48.8127 209.435 48.995C209.303 49.1773 209.237 49.3845 209.237 49.6165C209.237 49.8106 209.283 49.9775 209.375 50.1172C209.47 50.2545 209.59 50.3693 209.737 50.4616C209.884 50.5516 210.038 50.6262 210.199 50.6854C210.36 50.7422 210.508 50.7884 210.643 50.8239L211.381 51.0227C211.571 51.0724 211.781 51.1411 212.013 51.2287C212.248 51.3163 212.472 51.4358 212.685 51.5874C212.9 51.7365 213.078 51.9283 213.217 52.1626C213.357 52.397 213.427 52.6847 213.427 53.0256C213.427 53.4186 213.324 53.7737 213.118 54.0909C212.914 54.4081 212.616 54.6603 212.223 54.8473C211.832 55.0343 211.358 55.1278 210.799 55.1278C210.278 55.1278 209.827 55.0438 209.446 54.8757C209.067 54.7076 208.769 54.4732 208.551 54.1726C208.336 53.8719 208.214 53.5227 208.185 53.125H209.094C209.118 53.3996 209.21 53.6269 209.371 53.8068C209.535 53.9844 209.741 54.117 209.989 54.2045C210.24 54.2898 210.51 54.3324 210.799 54.3324C211.135 54.3324 211.437 54.2779 211.705 54.169C211.972 54.0578 212.184 53.9039 212.34 53.7074C212.496 53.5085 212.575 53.2765 212.575 53.0114C212.575 52.7699 212.507 52.5734 212.372 52.4219C212.237 52.2704 212.06 52.1473 211.839 52.0526C211.619 51.9579 211.381 51.875 211.126 51.804L210.231 51.5483C209.663 51.3849 209.213 51.1518 208.881 50.8487C208.55 50.5457 208.384 50.1491 208.384 49.6591C208.384 49.2519 208.494 48.8968 208.714 48.5938C208.937 48.2884 209.235 48.0516 209.609 47.8835C209.986 47.7131 210.406 47.6278 210.87 47.6278C211.339 47.6278 211.755 47.7119 212.12 47.88C212.485 48.0457 212.773 48.273 212.987 48.5618C213.202 48.8506 213.316 49.1785 213.327 49.5455H212.475ZM217.133 49.5455V50.2557H214.307V49.5455H217.133ZM215.131 48.2386H215.969V53.4375C215.969 53.6742 216.003 53.8518 216.072 53.9702C216.143 54.0862 216.233 54.1643 216.341 54.2045C216.453 54.2424 216.57 54.2614 216.693 54.2614C216.785 54.2614 216.861 54.2566 216.92 54.2472C216.979 54.2353 217.027 54.2259 217.062 54.2188L217.233 54.9716C217.176 54.9929 217.097 55.0142 216.995 55.0355C216.893 55.0592 216.764 55.071 216.608 55.071C216.371 55.071 216.139 55.0201 215.912 54.9183C215.687 54.8165 215.5 54.6615 215.351 54.4531C215.204 54.2448 215.131 53.982 215.131 53.6648V48.2386ZM219.999 55.1278C219.653 55.1278 219.34 55.0627 219.058 54.9325C218.776 54.8 218.553 54.6094 218.387 54.3608C218.221 54.1098 218.138 53.8068 218.138 53.4517C218.138 53.1392 218.2 52.8859 218.323 52.6918C218.446 52.4953 218.611 52.3414 218.817 52.2301C219.023 52.1188 219.25 52.036 219.498 51.9815C219.749 51.9247 220.001 51.8797 220.255 51.8466C220.586 51.804 220.855 51.772 221.061 51.7507C221.269 51.727 221.421 51.688 221.515 51.6335C221.613 51.5791 221.661 51.4844 221.661 51.3494V51.321C221.661 50.9706 221.565 50.6984 221.373 50.5043C221.184 50.3101 220.896 50.2131 220.51 50.2131C220.11 50.2131 219.797 50.3007 219.569 50.4759C219.342 50.651 219.182 50.8381 219.09 51.0369L218.295 50.7528C218.437 50.4214 218.626 50.1634 218.863 49.9787C219.102 49.7917 219.362 49.6615 219.644 49.5881C219.928 49.5123 220.207 49.4744 220.482 49.4744C220.657 49.4744 220.858 49.4957 221.086 49.5384C221.315 49.5786 221.537 49.6626 221.75 49.7905C221.965 49.9183 222.144 50.1113 222.286 50.3693C222.428 50.6274 222.499 50.973 222.499 51.4062V55H221.661V54.2614H221.618C221.562 54.3797 221.467 54.5064 221.334 54.6413C221.202 54.7763 221.025 54.8911 220.805 54.9858C220.585 55.0805 220.316 55.1278 219.999 55.1278ZM220.127 54.375C220.458 54.375 220.738 54.3099 220.965 54.1797C221.195 54.0495 221.367 53.8814 221.483 53.6754C221.602 53.4695 221.661 53.2528 221.661 53.0256V52.2585C221.626 52.3011 221.547 52.3402 221.427 52.3757C221.308 52.4089 221.171 52.4384 221.015 52.4645C220.861 52.4882 220.711 52.5095 220.564 52.5284C220.419 52.545 220.302 52.5592 220.212 52.571C219.994 52.5994 219.791 52.6456 219.601 52.7095C219.414 52.7711 219.263 52.8646 219.147 52.9901C219.033 53.1132 218.976 53.2812 218.976 53.4943C218.976 53.7855 219.084 54.0057 219.3 54.1548C219.517 54.3016 219.793 54.375 220.127 54.375ZM224.867 51.7188V55H224.029V49.5455H224.838V50.3977H224.909C225.037 50.1207 225.231 49.8982 225.492 49.7301C225.752 49.5597 226.088 49.4744 226.5 49.4744C226.87 49.4744 227.193 49.5502 227.47 49.7017C227.747 49.8509 227.962 50.0781 228.116 50.3835C228.27 50.6866 228.347 51.0701 228.347 51.5341V55H227.509V51.5909C227.509 51.1624 227.398 50.8286 227.175 50.5895C226.953 50.348 226.647 50.2273 226.259 50.2273C225.991 50.2273 225.752 50.2853 225.542 50.4013C225.333 50.5173 225.169 50.6866 225.048 50.9091C224.927 51.1316 224.867 51.4015 224.867 51.7188ZM231.938 55.1136C231.483 55.1136 231.082 54.9988 230.734 54.7692C230.386 54.5372 230.114 54.2105 229.917 53.7891C229.721 53.3653 229.623 52.8646 229.623 52.2869C229.623 51.714 229.721 51.2169 229.917 50.7955C230.114 50.3741 230.387 50.0485 230.738 49.8189C231.088 49.5893 231.493 49.4744 231.952 49.4744C232.307 49.4744 232.588 49.5336 232.794 49.652C233.002 49.768 233.161 49.9006 233.27 50.0497C233.381 50.1965 233.467 50.3172 233.529 50.4119H233.6V47.7273H234.438V55H233.628V54.1619H233.529C233.467 54.2614 233.38 54.3868 233.266 54.5384C233.153 54.6875 232.99 54.8213 232.78 54.9396C232.569 55.0556 232.288 55.1136 231.938 55.1136ZM232.052 54.3608C232.388 54.3608 232.672 54.2732 232.904 54.098C233.136 53.9205 233.312 53.6754 233.433 53.3629C233.554 53.0481 233.614 52.6847 233.614 52.2727C233.614 51.8655 233.555 51.5092 233.437 51.2038C233.318 50.8961 233.143 50.657 232.911 50.4865C232.679 50.3137 232.393 50.2273 232.052 50.2273C231.697 50.2273 231.401 50.3184 231.164 50.5007C230.93 50.6806 230.753 50.9257 230.635 51.2358C230.519 51.5436 230.461 51.8892 230.461 52.2727C230.461 52.661 230.52 53.0137 230.638 53.331C230.759 53.6458 230.937 53.8968 231.171 54.0838C231.408 54.2685 231.701 54.3608 232.052 54.3608ZM237.694 55.1278C237.349 55.1278 237.035 55.0627 236.753 54.9325C236.472 54.8 236.248 54.6094 236.082 54.3608C235.916 54.1098 235.834 53.8068 235.834 53.4517C235.834 53.1392 235.895 52.8859 236.018 52.6918C236.141 52.4953 236.306 52.3414 236.512 52.2301C236.718 52.1188 236.945 52.036 237.194 51.9815C237.445 51.9247 237.697 51.8797 237.95 51.8466C238.282 51.804 238.55 51.772 238.756 51.7507C238.965 51.727 239.116 51.688 239.211 51.6335C239.308 51.5791 239.356 51.4844 239.356 51.3494V51.321C239.356 50.9706 239.26 50.6984 239.069 50.5043C238.879 50.3101 238.592 50.2131 238.206 50.2131C237.806 50.2131 237.492 50.3007 237.265 50.4759C237.037 50.651 236.878 50.8381 236.785 51.0369L235.99 50.7528C236.132 50.4214 236.321 50.1634 236.558 49.9787C236.797 49.7917 237.058 49.6615 237.339 49.5881C237.623 49.5123 237.903 49.4744 238.177 49.4744C238.353 49.4744 238.554 49.4957 238.781 49.5384C239.011 49.5786 239.232 49.6626 239.445 49.7905C239.661 49.9183 239.839 50.1113 239.981 50.3693C240.123 50.6274 240.194 50.973 240.194 51.4062V55H239.356V54.2614H239.314C239.257 54.3797 239.162 54.5064 239.03 54.6413C238.897 54.7763 238.721 54.8911 238.501 54.9858C238.28 55.0805 238.012 55.1278 237.694 55.1278ZM237.822 54.375C238.154 54.375 238.433 54.3099 238.66 54.1797C238.89 54.0495 239.063 53.8814 239.179 53.6754C239.297 53.4695 239.356 53.2528 239.356 53.0256V52.2585C239.321 52.3011 239.243 52.3402 239.122 52.3757C239.004 52.4089 238.866 52.4384 238.71 52.4645C238.556 52.4882 238.406 52.5095 238.259 52.5284C238.115 52.545 237.997 52.5592 237.907 52.571C237.69 52.5994 237.486 52.6456 237.297 52.7095C237.11 52.7711 236.958 52.8646 236.842 52.9901C236.729 53.1132 236.672 53.2812 236.672 53.4943C236.672 53.7855 236.779 54.0057 236.995 54.1548C237.213 54.3016 237.488 54.375 237.822 54.375ZM241.724 55V49.5455H242.534V50.3693H242.591C242.69 50.0994 242.87 49.8804 243.13 49.7124C243.391 49.5443 243.684 49.4602 244.011 49.4602C244.073 49.4602 244.15 49.4614 244.242 49.4638C244.334 49.4661 244.404 49.4697 244.451 49.4744V50.3267C244.423 50.3196 244.358 50.3089 244.256 50.2947C244.157 50.2782 244.051 50.2699 243.94 50.2699C243.675 50.2699 243.438 50.3255 243.23 50.4368C243.024 50.5457 242.86 50.6972 242.74 50.8913C242.621 51.0831 242.562 51.3021 242.562 51.5483V55H241.724ZM247.338 55.1136C246.884 55.1136 246.483 54.9988 246.135 54.7692C245.787 54.5372 245.514 54.2105 245.318 53.7891C245.121 53.3653 245.023 52.8646 245.023 52.2869C245.023 51.714 245.121 51.2169 245.318 50.7955C245.514 50.3741 245.788 50.0485 246.138 49.8189C246.489 49.5893 246.893 49.4744 247.353 49.4744C247.708 49.4744 247.988 49.5336 248.194 49.652C248.403 49.768 248.561 49.9006 248.67 50.0497C248.781 50.1965 248.868 50.3172 248.929 50.4119H249V47.7273H249.838V55H249.029V54.1619H248.929C248.868 54.2614 248.78 54.3868 248.667 54.5384C248.553 54.6875 248.391 54.8213 248.18 54.9396C247.969 55.0556 247.689 55.1136 247.338 55.1136ZM247.452 54.3608C247.788 54.3608 248.072 54.2732 248.304 54.098C248.536 53.9205 248.713 53.6754 248.833 53.3629C248.954 53.0481 249.015 52.6847 249.015 52.2727C249.015 51.8655 248.955 51.5092 248.837 51.2038C248.719 50.8961 248.543 50.657 248.311 50.4865C248.079 50.3137 247.793 50.2273 247.452 50.2273C247.097 50.2273 246.801 50.3184 246.564 50.5007C246.33 50.6806 246.154 50.9257 246.035 51.2358C245.919 51.5436 245.861 51.8892 245.861 52.2727C245.861 52.661 245.92 53.0137 246.039 53.331C246.159 53.6458 246.337 53.8968 246.571 54.0838C246.808 54.2685 247.102 54.3608 247.452 54.3608Z" fill="white"/>
<path d="M199.835 79.2216C198.9 79.2216 198.097 78.9848 197.426 78.5114C196.759 78.0341 196.246 77.3466 195.886 76.4489C195.53 75.5473 195.352 74.4621 195.352 73.1932C195.356 71.9242 195.536 70.8447 195.892 69.9545C196.252 69.0606 196.765 68.3788 197.432 67.9091C198.102 67.4394 198.903 67.2045 199.835 67.2045C200.767 67.2045 201.568 67.4394 202.239 67.9091C202.909 68.3788 203.422 69.0606 203.778 69.9545C204.138 70.8485 204.318 71.928 204.318 73.1932C204.318 74.4659 204.138 75.553 203.778 76.4545C203.422 77.3523 202.909 78.0379 202.239 78.5114C201.572 78.9848 200.771 79.2216 199.835 79.2216ZM199.835 77.4432C200.563 77.4432 201.136 77.0852 201.557 76.3693C201.981 75.6496 202.193 74.5909 202.193 73.1932C202.193 72.2689 202.097 71.4924 201.903 70.8636C201.71 70.2348 201.438 69.7614 201.085 69.4432C200.733 69.1212 200.316 68.9602 199.835 68.9602C199.112 68.9602 198.54 69.3201 198.119 70.0398C197.699 70.7557 197.487 71.8068 197.483 73.1932C197.479 74.1212 197.572 74.9015 197.761 75.5341C197.955 76.1667 198.227 76.6439 198.58 76.9659C198.932 77.2841 199.35 77.4432 199.835 77.4432ZM212.428 76.8182V76.2045C212.428 75.7538 212.522 75.339 212.712 74.9602C212.905 74.5814 213.185 74.2765 213.553 74.0455C213.92 73.8144 214.365 73.6989 214.888 73.6989C215.426 73.6989 215.876 73.8144 216.24 74.0455C216.604 74.2727 216.878 74.5758 217.064 74.9545C217.253 75.3333 217.348 75.75 217.348 76.2045V76.8182C217.348 77.2689 217.253 77.6837 217.064 78.0625C216.875 78.4413 216.596 78.7462 216.229 78.9773C215.865 79.2083 215.418 79.3239 214.888 79.3239C214.357 79.3239 213.909 79.2083 213.541 78.9773C213.174 78.7462 212.895 78.4413 212.706 78.0625C212.52 77.6837 212.428 77.2689 212.428 76.8182ZM213.911 76.2045V76.8182C213.911 77.1174 213.982 77.392 214.126 77.642C214.27 77.892 214.524 78.017 214.888 78.017C215.255 78.017 215.507 77.8939 215.643 77.6477C215.784 77.3977 215.854 77.1212 215.854 76.8182V76.2045C215.854 75.9015 215.787 75.625 215.655 75.375C215.522 75.1212 215.267 74.9943 214.888 74.9943C214.532 74.9943 214.28 75.1212 214.132 75.375C213.984 75.625 213.911 75.9015 213.911 76.2045ZM206.513 70.1591V69.5455C206.513 69.0909 206.609 68.6742 206.803 68.2955C206.996 67.9167 207.276 67.6136 207.643 67.3864C208.011 67.1553 208.456 67.0398 208.979 67.0398C209.513 67.0398 209.962 67.1553 210.325 67.3864C210.693 67.6136 210.969 67.9167 211.155 68.2955C211.34 68.6742 211.433 69.0909 211.433 69.5455V70.1591C211.433 70.6136 211.339 71.0303 211.149 71.4091C210.964 71.7841 210.687 72.0852 210.32 72.3125C209.952 72.5398 209.505 72.6534 208.979 72.6534C208.445 72.6534 207.994 72.5398 207.626 72.3125C207.263 72.0852 206.986 71.7822 206.797 71.4034C206.607 71.0246 206.513 70.6098 206.513 70.1591ZM208.007 69.5455V70.1591C208.007 70.4621 208.077 70.7386 208.217 70.9886C208.361 71.2348 208.615 71.358 208.979 71.358C209.342 71.358 209.592 71.2348 209.729 70.9886C209.869 70.7386 209.939 70.4621 209.939 70.1591V69.5455C209.939 69.2424 209.873 68.9659 209.74 68.7159C209.607 68.4621 209.354 68.3352 208.979 68.3352C208.619 68.3352 208.367 68.4621 208.223 68.7159C208.079 68.9697 208.007 69.2462 208.007 69.5455ZM207.161 79L215.161 67.3636H216.581L208.581 79H207.161Z" fill="white"/>
<path d="M163 96C163 93.7909 164.791 92 167 92C169.209 92 171 93.7909 171 96C171 98.2091 169.209 100 167 100C164.791 100 163 98.2091 163 96Z" fill="#02B5D3"/>
<path d="M176.179 100H175.256L177.926 92.7273H178.835L181.506 100H180.582L178.409 93.8778H178.352L176.179 100ZM176.52 97.1591H180.241V97.9403H176.52V97.1591ZM184.954 94.5455V95.2557H182.013V94.5455H184.954ZM182.894 100V93.7926C182.894 93.4801 182.968 93.2197 183.114 93.0114C183.261 92.803 183.452 92.6468 183.686 92.5426C183.92 92.4384 184.168 92.3864 184.428 92.3864C184.634 92.3864 184.802 92.4029 184.933 92.4361C185.063 92.4692 185.16 92.5 185.224 92.5284L184.982 93.2528C184.94 93.2386 184.88 93.2209 184.805 93.1996C184.731 93.1783 184.634 93.1676 184.513 93.1676C184.237 93.1676 184.036 93.2375 183.913 93.3771C183.793 93.5168 183.732 93.7216 183.732 93.9915V100H182.894ZM186.128 100V94.5455H186.938V95.3693H186.995C187.094 95.0994 187.274 94.8804 187.535 94.7124C187.795 94.5443 188.089 94.4602 188.415 94.4602C188.477 94.4602 188.554 94.4614 188.646 94.4638C188.738 94.4661 188.808 94.4697 188.856 94.4744V95.3267C188.827 95.3196 188.762 95.3089 188.66 95.2947C188.561 95.2782 188.456 95.2699 188.344 95.2699C188.079 95.2699 187.842 95.3255 187.634 95.4368C187.428 95.5457 187.265 95.6972 187.144 95.8913C187.026 96.0831 186.966 96.3021 186.966 96.5483V100H186.128ZM198.912 96.3636C198.912 97.1307 198.773 97.7936 198.496 98.3523C198.219 98.911 197.839 99.3419 197.356 99.6449C196.873 99.9479 196.322 100.099 195.701 100.099C195.081 100.099 194.529 99.9479 194.047 99.6449C193.564 99.3419 193.184 98.911 192.907 98.3523C192.63 97.7936 192.491 97.1307 192.491 96.3636C192.491 95.5966 192.63 94.9337 192.907 94.375C193.184 93.8163 193.564 93.3854 194.047 93.0824C194.529 92.7794 195.081 92.6278 195.701 92.6278C196.322 92.6278 196.873 92.7794 197.356 93.0824C197.839 93.3854 198.219 93.8163 198.496 94.375C198.773 94.9337 198.912 95.5966 198.912 96.3636ZM198.059 96.3636C198.059 95.7339 197.954 95.2024 197.743 94.7692C197.535 94.3359 197.252 94.008 196.895 93.7855C196.539 93.563 196.142 93.4517 195.701 93.4517C195.261 93.4517 194.862 93.563 194.505 93.7855C194.15 94.008 193.867 94.3359 193.656 94.7692C193.448 95.2024 193.343 95.7339 193.343 96.3636C193.343 96.9934 193.448 97.5249 193.656 97.9581C193.867 98.3913 194.15 98.7192 194.505 98.9418C194.862 99.1643 195.261 99.2756 195.701 99.2756C196.142 99.2756 196.539 99.1643 196.895 98.9418C197.252 98.7192 197.535 98.3913 197.743 97.9581C197.954 97.5249 198.059 96.9934 198.059 96.3636ZM202.495 100.114C201.983 100.114 201.543 99.9929 201.174 99.7514C200.804 99.5099 200.52 99.1773 200.321 98.7536C200.123 98.3298 200.023 97.8456 200.023 97.3011C200.023 96.7472 200.125 96.2583 200.328 95.8345C200.534 95.4084 200.821 95.0758 201.188 94.8366C201.557 94.5952 201.988 94.4744 202.48 94.4744C202.864 94.4744 203.21 94.5455 203.517 94.6875C203.825 94.8295 204.077 95.0284 204.274 95.2841C204.47 95.5398 204.592 95.8381 204.64 96.179H203.801C203.738 95.9304 203.596 95.7102 203.375 95.5185C203.158 95.3243 202.864 95.2273 202.495 95.2273C202.168 95.2273 201.882 95.3125 201.635 95.483C201.391 95.651 201.201 95.889 201.064 96.1967C200.929 96.5021 200.861 96.8608 200.861 97.2727C200.861 97.6941 200.927 98.0611 201.06 98.3736C201.195 98.6861 201.384 98.9287 201.628 99.1016C201.874 99.2744 202.163 99.3608 202.495 99.3608C202.712 99.3608 202.91 99.3229 203.088 99.2472C203.265 99.1714 203.416 99.0625 203.539 98.9205C203.662 98.7784 203.749 98.608 203.801 98.4091H204.64C204.592 98.7311 204.475 99.0211 204.288 99.2791C204.103 99.5348 203.858 99.7384 203.553 99.8899C203.25 100.039 202.897 100.114 202.495 100.114ZM208.152 100.114C207.626 100.114 207.173 99.9976 206.792 99.7656C206.413 99.5312 206.12 99.2045 205.914 98.7855C205.711 98.3641 205.609 97.8741 205.609 97.3153C205.609 96.7566 205.711 96.2642 205.914 95.8381C206.12 95.4096 206.407 95.0758 206.774 94.8366C207.143 94.5952 207.574 94.4744 208.066 94.4744C208.35 94.4744 208.631 94.5218 208.908 94.6165C209.185 94.7112 209.437 94.8651 209.664 95.0781C209.892 95.2888 210.073 95.5682 210.208 95.9162C210.343 96.2642 210.41 96.6927 210.41 97.2017V97.5568H206.206V96.8324H209.558C209.558 96.5246 209.496 96.25 209.373 96.0085C209.252 95.767 209.08 95.5765 208.855 95.4368C208.632 95.2971 208.369 95.2273 208.066 95.2273C207.733 95.2273 207.444 95.3101 207.2 95.4759C206.958 95.6392 206.773 95.8523 206.642 96.1151C206.512 96.3778 206.447 96.6596 206.447 96.9602V97.4432C206.447 97.8551 206.518 98.2043 206.66 98.4908C206.805 98.7749 207.005 98.9915 207.26 99.1406C207.516 99.2874 207.813 99.3608 208.152 99.3608C208.372 99.3608 208.571 99.33 208.748 99.2685C208.928 99.2045 209.083 99.1098 209.213 98.9844C209.344 98.8565 209.444 98.6979 209.515 98.5085L210.325 98.7358C210.24 99.0104 210.096 99.2519 209.895 99.4602C209.694 99.6662 209.445 99.8272 209.15 99.9432C208.854 100.057 208.521 100.114 208.152 100.114ZM213.29 100.128C212.944 100.128 212.631 100.063 212.349 99.9325C212.067 99.8 211.844 99.6094 211.678 99.3608C211.512 99.1098 211.429 98.8068 211.429 98.4517C211.429 98.1392 211.491 97.8859 211.614 97.6918C211.737 97.4953 211.902 97.3414 212.108 97.2301C212.314 97.1188 212.541 97.036 212.789 96.9815C213.04 96.9247 213.292 96.8797 213.546 96.8466C213.877 96.804 214.146 96.772 214.352 96.7507C214.56 96.727 214.712 96.688 214.806 96.6335C214.904 96.5791 214.952 96.4844 214.952 96.3494V96.321C214.952 95.9706 214.856 95.6984 214.664 95.5043C214.475 95.3101 214.187 95.2131 213.801 95.2131C213.401 95.2131 213.088 95.3007 212.86 95.4759C212.633 95.651 212.473 95.8381 212.381 96.0369L211.586 95.7528C211.728 95.4214 211.917 95.1634 212.154 94.9787C212.393 94.7917 212.653 94.6615 212.935 94.5881C213.219 94.5123 213.498 94.4744 213.773 94.4744C213.948 94.4744 214.15 94.4957 214.377 94.5384C214.606 94.5786 214.828 94.6626 215.041 94.7905C215.256 94.9183 215.435 95.1113 215.577 95.3693C215.719 95.6274 215.79 95.973 215.79 96.4062V100H214.952V99.2614H214.909C214.853 99.3797 214.758 99.5064 214.625 99.6413C214.493 99.7763 214.316 99.8911 214.096 99.9858C213.876 100.08 213.607 100.128 213.29 100.128ZM213.418 99.375C213.749 99.375 214.029 99.3099 214.256 99.1797C214.486 99.0495 214.658 98.8814 214.775 98.6754C214.893 98.4695 214.952 98.2528 214.952 98.0256V97.2585C214.917 97.3011 214.838 97.3402 214.718 97.3757C214.599 97.4089 214.462 97.4384 214.306 97.4645C214.152 97.4882 214.002 97.5095 213.855 97.5284C213.71 97.545 213.593 97.5592 213.503 97.571C213.285 97.5994 213.082 97.6456 212.892 97.7095C212.705 97.7711 212.554 97.8646 212.438 97.9901C212.324 98.1132 212.267 98.2812 212.267 98.4943C212.267 98.7855 212.375 99.0057 212.591 99.1548C212.808 99.3016 213.084 99.375 213.418 99.375ZM218.158 96.7188V100H217.32V94.5455H218.129V95.3977H218.2C218.328 95.1207 218.522 94.8982 218.783 94.7301C219.043 94.5597 219.379 94.4744 219.791 94.4744C220.161 94.4744 220.484 94.5502 220.761 94.7017C221.038 94.8509 221.253 95.0781 221.407 95.3835C221.561 95.6866 221.638 96.0701 221.638 96.5341V100H220.8V96.5909C220.8 96.1624 220.689 95.8286 220.466 95.5895C220.244 95.348 219.938 95.2273 219.55 95.2273C219.282 95.2273 219.043 95.2853 218.833 95.4013C218.624 95.5173 218.46 95.6866 218.339 95.9091C218.218 96.1316 218.158 96.4015 218.158 96.7188ZM226.096 100V92.7273H228.638C229.145 92.7273 229.563 92.8149 229.892 92.9901C230.221 93.1629 230.466 93.3961 230.627 93.6896C230.788 93.9808 230.868 94.304 230.868 94.6591C230.868 94.9716 230.813 95.2296 230.701 95.4332C230.592 95.6368 230.448 95.7978 230.268 95.9162C230.091 96.0346 229.898 96.1222 229.689 96.179V96.25C229.912 96.2642 230.136 96.3423 230.36 96.4844C230.585 96.6264 230.774 96.83 230.925 97.0952C231.077 97.3603 231.152 97.6847 231.152 98.0682C231.152 98.4328 231.069 98.7607 230.904 99.0518C230.738 99.343 230.476 99.5739 230.119 99.7443C229.761 99.9148 229.296 100 228.723 100H226.096ZM226.976 99.2188H228.723C229.299 99.2188 229.707 99.1075 229.949 98.8849C230.192 98.66 230.314 98.3878 230.314 98.0682C230.314 97.822 230.252 97.5947 230.126 97.3864C230.001 97.1757 229.822 97.0076 229.59 96.8821C229.358 96.7543 229.083 96.6903 228.766 96.6903H226.976V99.2188ZM226.976 95.9233H228.61C228.875 95.9233 229.114 95.8712 229.327 95.767C229.542 95.6629 229.713 95.5161 229.838 95.3267C229.966 95.1373 230.03 94.9148 230.03 94.6591C230.03 94.3395 229.919 94.0684 229.696 93.8459C229.474 93.621 229.121 93.5085 228.638 93.5085H226.976V95.9233ZM234.091 100.128C233.745 100.128 233.432 100.063 233.15 99.9325C232.868 99.8 232.644 99.6094 232.479 99.3608C232.313 99.1098 232.23 98.8068 232.23 98.4517C232.23 98.1392 232.292 97.8859 232.415 97.6918C232.538 97.4953 232.702 97.3414 232.908 97.2301C233.114 97.1188 233.342 97.036 233.59 96.9815C233.841 96.9247 234.093 96.8797 234.347 96.8466C234.678 96.804 234.947 96.772 235.153 96.7507C235.361 96.727 235.513 96.688 235.607 96.6335C235.704 96.5791 235.753 96.4844 235.753 96.3494V96.321C235.753 95.9706 235.657 95.6984 235.465 95.5043C235.276 95.3101 234.988 95.2131 234.602 95.2131C234.202 95.2131 233.888 95.3007 233.661 95.4759C233.434 95.651 233.274 95.8381 233.182 96.0369L232.386 95.7528C232.528 95.4214 232.718 95.1634 232.955 94.9787C233.194 94.7917 233.454 94.6615 233.736 94.5881C234.02 94.5123 234.299 94.4744 234.574 94.4744C234.749 94.4744 234.95 94.4957 235.178 94.5384C235.407 94.5786 235.629 94.6626 235.842 94.7905C236.057 94.9183 236.236 95.1113 236.378 95.3693C236.52 95.6274 236.591 95.973 236.591 96.4062V100H235.753V99.2614H235.71C235.653 99.3797 235.559 99.5064 235.426 99.6413C235.294 99.7763 235.117 99.8911 234.897 99.9858C234.677 100.08 234.408 100.128 234.091 100.128ZM234.219 99.375C234.55 99.375 234.83 99.3099 235.057 99.1797C235.286 99.0495 235.459 98.8814 235.575 98.6754C235.694 98.4695 235.753 98.2528 235.753 98.0256V97.2585C235.717 97.3011 235.639 97.3402 235.518 97.3757C235.4 97.4089 235.263 97.4384 235.107 97.4645C234.953 97.4882 234.802 97.5095 234.656 97.5284C234.511 97.545 234.394 97.5592 234.304 97.571C234.086 97.5994 233.883 97.6456 233.693 97.7095C233.506 97.7711 233.355 97.8646 233.239 97.9901C233.125 98.1132 233.068 98.2812 233.068 98.4943C233.068 98.7855 233.176 99.0057 233.391 99.1548C233.609 99.3016 233.885 99.375 234.219 99.375ZM241.984 95.767L241.231 95.9801C241.184 95.8546 241.114 95.7327 241.022 95.6143C240.932 95.4936 240.809 95.3942 240.653 95.3161C240.496 95.2379 240.296 95.1989 240.052 95.1989C239.719 95.1989 239.44 95.2758 239.218 95.4297C238.998 95.5812 238.888 95.7741 238.888 96.0085C238.888 96.2169 238.963 96.3814 239.115 96.5021C239.266 96.6229 239.503 96.7235 239.825 96.804L240.635 97.0028C241.122 97.1212 241.486 97.3023 241.725 97.5462C241.964 97.7876 242.084 98.099 242.084 98.4801C242.084 98.7926 241.994 99.072 241.814 99.3182C241.636 99.5644 241.388 99.7585 241.068 99.9006C240.748 100.043 240.377 100.114 239.953 100.114C239.397 100.114 238.936 99.9929 238.572 99.7514C238.207 99.5099 237.976 99.1572 237.879 98.6932L238.675 98.4943C238.75 98.7879 238.894 99.008 239.104 99.1548C239.317 99.3016 239.595 99.375 239.939 99.375C240.329 99.375 240.64 99.2921 240.869 99.1264C241.101 98.9583 241.217 98.7571 241.217 98.5227C241.217 98.3333 241.151 98.1747 241.018 98.0469C240.886 97.9167 240.682 97.8196 240.407 97.7557L239.498 97.5426C238.999 97.4242 238.632 97.2408 238.398 96.9922C238.166 96.7412 238.05 96.4276 238.05 96.0511C238.05 95.7434 238.136 95.4711 238.309 95.2344C238.484 94.9976 238.722 94.8118 239.023 94.6768C239.326 94.5419 239.669 94.4744 240.052 94.4744C240.592 94.4744 241.016 94.5928 241.324 94.8295C241.634 95.0663 241.854 95.3788 241.984 95.767ZM243.345 100V94.5455H244.183V100H243.345ZM243.771 93.6364C243.608 93.6364 243.467 93.5807 243.349 93.4695C243.233 93.3582 243.175 93.2244 243.175 93.0682C243.175 92.9119 243.233 92.7782 243.349 92.6669C243.467 92.5556 243.608 92.5 243.771 92.5C243.935 92.5 244.074 92.5556 244.19 92.6669C244.309 92.7782 244.368 92.9119 244.368 93.0682C244.368 93.2244 244.309 93.3582 244.19 93.4695C244.074 93.5807 243.935 93.6364 243.771 93.6364ZM247.934 100.114C247.423 100.114 246.982 99.9929 246.613 99.7514C246.244 99.5099 245.96 99.1773 245.761 98.7536C245.562 98.3298 245.463 97.8456 245.463 97.3011C245.463 96.7472 245.564 96.2583 245.768 95.8345C245.974 95.4084 246.26 95.0758 246.627 94.8366C246.997 94.5952 247.427 94.4744 247.92 94.4744C248.303 94.4744 248.649 94.5455 248.957 94.6875C249.265 94.8295 249.517 95.0284 249.713 95.2841C249.91 95.5398 250.032 95.8381 250.079 96.179H249.241C249.177 95.9304 249.035 95.7102 248.815 95.5185C248.597 95.3243 248.303 95.2273 247.934 95.2273C247.607 95.2273 247.321 95.3125 247.075 95.483C246.831 95.651 246.64 95.889 246.503 96.1967C246.368 96.5021 246.301 96.8608 246.301 97.2727C246.301 97.6941 246.367 98.0611 246.499 98.3736C246.634 98.6861 246.824 98.9287 247.068 99.1016C247.314 99.2744 247.603 99.3608 247.934 99.3608C248.152 99.3608 248.35 99.3229 248.527 99.2472C248.705 99.1714 248.855 99.0625 248.978 98.9205C249.101 98.7784 249.189 98.608 249.241 98.4091H250.079C250.032 98.7311 249.914 99.0211 249.727 99.2791C249.543 99.5348 249.298 99.7384 248.992 99.8899C248.689 100.039 248.337 100.114 247.934 100.114Z" fill="white"/>
<path d="M199.835 124.222C198.9 124.222 198.097 123.985 197.426 123.511C196.759 123.034 196.246 122.347 195.886 121.449C195.53 120.547 195.352 119.462 195.352 118.193C195.356 116.924 195.536 115.845 195.892 114.955C196.252 114.061 196.765 113.379 197.432 112.909C198.102 112.439 198.903 112.205 199.835 112.205C200.767 112.205 201.568 112.439 202.239 112.909C202.909 113.379 203.422 114.061 203.778 114.955C204.138 115.848 204.318 116.928 204.318 118.193C204.318 119.466 204.138 120.553 203.778 121.455C203.422 122.352 202.909 123.038 202.239 123.511C201.572 123.985 200.771 124.222 199.835 124.222ZM199.835 122.443C200.563 122.443 201.136 122.085 201.557 121.369C201.981 120.65 202.193 119.591 202.193 118.193C202.193 117.269 202.097 116.492 201.903 115.864C201.71 115.235 201.438 114.761 201.085 114.443C200.733 114.121 200.316 113.96 199.835 113.96C199.112 113.96 198.54 114.32 198.119 115.04C197.699 115.756 197.487 116.807 197.483 118.193C197.479 119.121 197.572 119.902 197.761 120.534C197.955 121.167 198.227 121.644 198.58 121.966C198.932 122.284 199.35 122.443 199.835 122.443ZM212.428 121.818V121.205C212.428 120.754 212.522 120.339 212.712 119.96C212.905 119.581 213.185 119.277 213.553 119.045C213.92 118.814 214.365 118.699 214.888 118.699C215.426 118.699 215.876 118.814 216.24 119.045C216.604 119.273 216.878 119.576 217.064 119.955C217.253 120.333 217.348 120.75 217.348 121.205V121.818C217.348 122.269 217.253 122.684 217.064 123.062C216.875 123.441 216.596 123.746 216.229 123.977C215.865 124.208 215.418 124.324 214.888 124.324C214.357 124.324 213.909 124.208 213.541 123.977C213.174 123.746 212.895 123.441 212.706 123.062C212.52 122.684 212.428 122.269 212.428 121.818ZM213.911 121.205V121.818C213.911 122.117 213.982 122.392 214.126 122.642C214.27 122.892 214.524 123.017 214.888 123.017C215.255 123.017 215.507 122.894 215.643 122.648C215.784 122.398 215.854 122.121 215.854 121.818V121.205C215.854 120.902 215.787 120.625 215.655 120.375C215.522 120.121 215.267 119.994 214.888 119.994C214.532 119.994 214.28 120.121 214.132 120.375C213.984 120.625 213.911 120.902 213.911 121.205ZM206.513 115.159V114.545C206.513 114.091 206.609 113.674 206.803 113.295C206.996 112.917 207.276 112.614 207.643 112.386C208.011 112.155 208.456 112.04 208.979 112.04C209.513 112.04 209.962 112.155 210.325 112.386C210.693 112.614 210.969 112.917 211.155 113.295C211.34 113.674 211.433 114.091 211.433 114.545V115.159C211.433 115.614 211.339 116.03 211.149 116.409C210.964 116.784 210.687 117.085 210.32 117.312C209.952 117.54 209.505 117.653 208.979 117.653C208.445 117.653 207.994 117.54 207.626 117.312C207.263 117.085 206.986 116.782 206.797 116.403C206.607 116.025 206.513 115.61 206.513 115.159ZM208.007 114.545V115.159C208.007 115.462 208.077 115.739 208.217 115.989C208.361 116.235 208.615 116.358 208.979 116.358C209.342 116.358 209.592 116.235 209.729 115.989C209.869 115.739 209.939 115.462 209.939 115.159V114.545C209.939 114.242 209.873 113.966 209.74 113.716C209.607 113.462 209.354 113.335 208.979 113.335C208.619 113.335 208.367 113.462 208.223 113.716C208.079 113.97 208.007 114.246 208.007 114.545ZM207.161 124L215.161 112.364H216.581L208.581 124H207.161Z" fill="white"/>
<path d="M163 141C163 138.791 164.791 137 167 137C169.209 137 171 138.791 171 141C171 143.209 169.209 145 167 145C164.791 145 163 143.209 163 141Z" fill="#02B5D3"/>
<path d="M176.179 145H175.256L177.926 137.727H178.835L181.506 145H180.582L178.409 138.878H178.352L176.179 145ZM176.52 142.159H180.241V142.94H176.52V142.159ZM184.954 139.545V140.256H182.013V139.545H184.954ZM182.894 145V138.793C182.894 138.48 182.968 138.22 183.114 138.011C183.261 137.803 183.452 137.647 183.686 137.543C183.92 137.438 184.168 137.386 184.428 137.386C184.634 137.386 184.802 137.403 184.933 137.436C185.063 137.469 185.16 137.5 185.224 137.528L184.982 138.253C184.94 138.239 184.88 138.221 184.805 138.2C184.731 138.178 184.634 138.168 184.513 138.168C184.237 138.168 184.036 138.237 183.913 138.377C183.793 138.517 183.732 138.722 183.732 138.991V145H182.894ZM186.128 145V139.545H186.938V140.369H186.995C187.094 140.099 187.274 139.88 187.535 139.712C187.795 139.544 188.089 139.46 188.415 139.46C188.477 139.46 188.554 139.461 188.646 139.464C188.738 139.466 188.808 139.47 188.856 139.474V140.327C188.827 140.32 188.762 140.309 188.66 140.295C188.561 140.278 188.456 140.27 188.344 140.27C188.079 140.27 187.842 140.326 187.634 140.437C187.428 140.546 187.265 140.697 187.144 140.891C187.026 141.083 186.966 141.302 186.966 141.548V145H186.128ZM198.912 141.364C198.912 142.131 198.773 142.794 198.496 143.352C198.219 143.911 197.839 144.342 197.356 144.645C196.873 144.948 196.322 145.099 195.701 145.099C195.081 145.099 194.529 144.948 194.047 144.645C193.564 144.342 193.184 143.911 192.907 143.352C192.63 142.794 192.491 142.131 192.491 141.364C192.491 140.597 192.63 139.934 192.907 139.375C193.184 138.816 193.564 138.385 194.047 138.082C194.529 137.779 195.081 137.628 195.701 137.628C196.322 137.628 196.873 137.779 197.356 138.082C197.839 138.385 198.219 138.816 198.496 139.375C198.773 139.934 198.912 140.597 198.912 141.364ZM198.059 141.364C198.059 140.734 197.954 140.202 197.743 139.769C197.535 139.336 197.252 139.008 196.895 138.786C196.539 138.563 196.142 138.452 195.701 138.452C195.261 138.452 194.862 138.563 194.505 138.786C194.15 139.008 193.867 139.336 193.656 139.769C193.448 140.202 193.343 140.734 193.343 141.364C193.343 141.993 193.448 142.525 193.656 142.958C193.867 143.391 194.15 143.719 194.505 143.942C194.862 144.164 195.261 144.276 195.701 144.276C196.142 144.276 196.539 144.164 196.895 143.942C197.252 143.719 197.535 143.391 197.743 142.958C197.954 142.525 198.059 141.993 198.059 141.364ZM202.495 145.114C201.983 145.114 201.543 144.993 201.174 144.751C200.804 144.51 200.52 144.177 200.321 143.754C200.123 143.33 200.023 142.846 200.023 142.301C200.023 141.747 200.125 141.258 200.328 140.835C200.534 140.408 200.821 140.076 201.188 139.837C201.557 139.595 201.988 139.474 202.48 139.474C202.864 139.474 203.21 139.545 203.517 139.688C203.825 139.83 204.077 140.028 204.274 140.284C204.47 140.54 204.592 140.838 204.64 141.179H203.801C203.738 140.93 203.596 140.71 203.375 140.518C203.158 140.324 202.864 140.227 202.495 140.227C202.168 140.227 201.882 140.312 201.635 140.483C201.391 140.651 201.201 140.889 201.064 141.197C200.929 141.502 200.861 141.861 200.861 142.273C200.861 142.694 200.927 143.061 201.06 143.374C201.195 143.686 201.384 143.929 201.628 144.102C201.874 144.274 202.163 144.361 202.495 144.361C202.712 144.361 202.91 144.323 203.088 144.247C203.265 144.171 203.416 144.062 203.539 143.92C203.662 143.778 203.749 143.608 203.801 143.409H204.64C204.592 143.731 204.475 144.021 204.288 144.279C204.103 144.535 203.858 144.738 203.553 144.89C203.25 145.039 202.897 145.114 202.495 145.114ZM208.152 145.114C207.626 145.114 207.173 144.998 206.792 144.766C206.413 144.531 206.12 144.205 205.914 143.786C205.711 143.364 205.609 142.874 205.609 142.315C205.609 141.757 205.711 141.264 205.914 140.838C206.12 140.41 206.407 140.076 206.774 139.837C207.143 139.595 207.574 139.474 208.066 139.474C208.35 139.474 208.631 139.522 208.908 139.616C209.185 139.711 209.437 139.865 209.664 140.078C209.892 140.289 210.073 140.568 210.208 140.916C210.343 141.264 210.41 141.693 210.41 142.202V142.557H206.206V141.832H209.558C209.558 141.525 209.496 141.25 209.373 141.009C209.252 140.767 209.08 140.576 208.855 140.437C208.632 140.297 208.369 140.227 208.066 140.227C207.733 140.227 207.444 140.31 207.2 140.476C206.958 140.639 206.773 140.852 206.642 141.115C206.512 141.378 206.447 141.66 206.447 141.96V142.443C206.447 142.855 206.518 143.204 206.66 143.491C206.805 143.775 207.005 143.991 207.26 144.141C207.516 144.287 207.813 144.361 208.152 144.361C208.372 144.361 208.571 144.33 208.748 144.268C208.928 144.205 209.083 144.11 209.213 143.984C209.344 143.857 209.444 143.698 209.515 143.509L210.325 143.736C210.24 144.01 210.096 144.252 209.895 144.46C209.694 144.666 209.445 144.827 209.15 144.943C208.854 145.057 208.521 145.114 208.152 145.114ZM213.29 145.128C212.944 145.128 212.631 145.063 212.349 144.933C212.067 144.8 211.844 144.609 211.678 144.361C211.512 144.11 211.429 143.807 211.429 143.452C211.429 143.139 211.491 142.886 211.614 142.692C211.737 142.495 211.902 142.341 212.108 142.23C212.314 142.119 212.541 142.036 212.789 141.982C213.04 141.925 213.292 141.88 213.546 141.847C213.877 141.804 214.146 141.772 214.352 141.751C214.56 141.727 214.712 141.688 214.806 141.634C214.904 141.579 214.952 141.484 214.952 141.349V141.321C214.952 140.971 214.856 140.698 214.664 140.504C214.475 140.31 214.187 140.213 213.801 140.213C213.401 140.213 213.088 140.301 212.86 140.476C212.633 140.651 212.473 140.838 212.381 141.037L211.586 140.753C211.728 140.421 211.917 140.163 212.154 139.979C212.393 139.792 212.653 139.661 212.935 139.588C213.219 139.512 213.498 139.474 213.773 139.474C213.948 139.474 214.15 139.496 214.377 139.538C214.606 139.579 214.828 139.663 215.041 139.79C215.256 139.918 215.435 140.111 215.577 140.369C215.719 140.627 215.79 140.973 215.79 141.406V145H214.952V144.261H214.909C214.853 144.38 214.758 144.506 214.625 144.641C214.493 144.776 214.316 144.891 214.096 144.986C213.876 145.08 213.607 145.128 213.29 145.128ZM213.418 144.375C213.749 144.375 214.029 144.31 214.256 144.18C214.486 144.049 214.658 143.881 214.775 143.675C214.893 143.469 214.952 143.253 214.952 143.026V142.259C214.917 142.301 214.838 142.34 214.718 142.376C214.599 142.409 214.462 142.438 214.306 142.464C214.152 142.488 214.002 142.509 213.855 142.528C213.71 142.545 213.593 142.559 213.503 142.571C213.285 142.599 213.082 142.646 212.892 142.71C212.705 142.771 212.554 142.865 212.438 142.99C212.324 143.113 212.267 143.281 212.267 143.494C212.267 143.786 212.375 144.006 212.591 144.155C212.808 144.302 213.084 144.375 213.418 144.375ZM218.158 141.719V145H217.32V139.545H218.129V140.398H218.2C218.328 140.121 218.522 139.898 218.783 139.73C219.043 139.56 219.379 139.474 219.791 139.474C220.161 139.474 220.484 139.55 220.761 139.702C221.038 139.851 221.253 140.078 221.407 140.384C221.561 140.687 221.638 141.07 221.638 141.534V145H220.8V141.591C220.8 141.162 220.689 140.829 220.466 140.589C220.244 140.348 219.938 140.227 219.55 140.227C219.282 140.227 219.043 140.285 218.833 140.401C218.624 140.517 218.46 140.687 218.339 140.909C218.218 141.132 218.158 141.402 218.158 141.719ZM226.096 145V137.727H228.638C229.145 137.727 229.563 137.815 229.892 137.99C230.221 138.163 230.466 138.396 230.627 138.69C230.788 138.981 230.868 139.304 230.868 139.659C230.868 139.972 230.813 140.23 230.701 140.433C230.592 140.637 230.448 140.798 230.268 140.916C230.091 141.035 229.898 141.122 229.689 141.179V141.25C229.912 141.264 230.136 141.342 230.36 141.484C230.585 141.626 230.774 141.83 230.925 142.095C231.077 142.36 231.152 142.685 231.152 143.068C231.152 143.433 231.069 143.761 230.904 144.052C230.738 144.343 230.476 144.574 230.119 144.744C229.761 144.915 229.296 145 228.723 145H226.096ZM226.976 144.219H228.723C229.299 144.219 229.707 144.107 229.949 143.885C230.192 143.66 230.314 143.388 230.314 143.068C230.314 142.822 230.252 142.595 230.126 142.386C230.001 142.176 229.822 142.008 229.59 141.882C229.358 141.754 229.083 141.69 228.766 141.69H226.976V144.219ZM226.976 140.923H228.61C228.875 140.923 229.114 140.871 229.327 140.767C229.542 140.663 229.713 140.516 229.838 140.327C229.966 140.137 230.03 139.915 230.03 139.659C230.03 139.339 229.919 139.068 229.696 138.846C229.474 138.621 229.121 138.509 228.638 138.509H226.976V140.923ZM234.091 145.128C233.745 145.128 233.432 145.063 233.15 144.933C232.868 144.8 232.644 144.609 232.479 144.361C232.313 144.11 232.23 143.807 232.23 143.452C232.23 143.139 232.292 142.886 232.415 142.692C232.538 142.495 232.702 142.341 232.908 142.23C233.114 142.119 233.342 142.036 233.59 141.982C233.841 141.925 234.093 141.88 234.347 141.847C234.678 141.804 234.947 141.772 235.153 141.751C235.361 141.727 235.513 141.688 235.607 141.634C235.704 141.579 235.753 141.484 235.753 141.349V141.321C235.753 140.971 235.657 140.698 235.465 140.504C235.276 140.31 234.988 140.213 234.602 140.213C234.202 140.213 233.888 140.301 233.661 140.476C233.434 140.651 233.274 140.838 233.182 141.037L232.386 140.753C232.528 140.421 232.718 140.163 232.955 139.979C233.194 139.792 233.454 139.661 233.736 139.588C234.02 139.512 234.299 139.474 234.574 139.474C234.749 139.474 234.95 139.496 235.178 139.538C235.407 139.579 235.629 139.663 235.842 139.79C236.057 139.918 236.236 140.111 236.378 140.369C236.52 140.627 236.591 140.973 236.591 141.406V145H235.753V144.261H235.71C235.653 144.38 235.559 144.506 235.426 144.641C235.294 144.776 235.117 144.891 234.897 144.986C234.677 145.08 234.408 145.128 234.091 145.128ZM234.219 144.375C234.55 144.375 234.83 144.31 235.057 144.18C235.286 144.049 235.459 143.881 235.575 143.675C235.694 143.469 235.753 143.253 235.753 143.026V142.259C235.717 142.301 235.639 142.34 235.518 142.376C235.4 142.409 235.263 142.438 235.107 142.464C234.953 142.488 234.802 142.509 234.656 142.528C234.511 142.545 234.394 142.559 234.304 142.571C234.086 142.599 233.883 142.646 233.693 142.71C233.506 142.771 233.355 142.865 233.239 142.99C233.125 143.113 233.068 143.281 233.068 143.494C233.068 143.786 233.176 144.006 233.391 144.155C233.609 144.302 233.885 144.375 234.219 144.375ZM241.984 140.767L241.231 140.98C241.184 140.855 241.114 140.733 241.022 140.614C240.932 140.494 240.809 140.394 240.653 140.316C240.496 140.238 240.296 140.199 240.052 140.199C239.719 140.199 239.44 140.276 239.218 140.43C238.998 140.581 238.888 140.774 238.888 141.009C238.888 141.217 238.963 141.381 239.115 141.502C239.266 141.623 239.503 141.723 239.825 141.804L240.635 142.003C241.122 142.121 241.486 142.302 241.725 142.546C241.964 142.788 242.084 143.099 242.084 143.48C242.084 143.793 241.994 144.072 241.814 144.318C241.636 144.564 241.388 144.759 241.068 144.901C240.748 145.043 240.377 145.114 239.953 145.114C239.397 145.114 238.936 144.993 238.572 144.751C238.207 144.51 237.976 144.157 237.879 143.693L238.675 143.494C238.75 143.788 238.894 144.008 239.104 144.155C239.317 144.302 239.595 144.375 239.939 144.375C240.329 144.375 240.64 144.292 240.869 144.126C241.101 143.958 241.217 143.757 241.217 143.523C241.217 143.333 241.151 143.175 241.018 143.047C240.886 142.917 240.682 142.82 240.407 142.756L239.498 142.543C238.999 142.424 238.632 142.241 238.398 141.992C238.166 141.741 238.05 141.428 238.05 141.051C238.05 140.743 238.136 140.471 238.309 140.234C238.484 139.998 238.722 139.812 239.023 139.677C239.326 139.542 239.669 139.474 240.052 139.474C240.592 139.474 241.016 139.593 241.324 139.83C241.634 140.066 241.854 140.379 241.984 140.767ZM243.345 145V139.545H244.183V145H243.345ZM243.771 138.636C243.608 138.636 243.467 138.581 243.349 138.469C243.233 138.358 243.175 138.224 243.175 138.068C243.175 137.912 243.233 137.778 243.349 137.667C243.467 137.556 243.608 137.5 243.771 137.5C243.935 137.5 244.074 137.556 244.19 137.667C244.309 137.778 244.368 137.912 244.368 138.068C244.368 138.224 244.309 138.358 244.19 138.469C244.074 138.581 243.935 138.636 243.771 138.636ZM247.934 145.114C247.423 145.114 246.982 144.993 246.613 144.751C246.244 144.51 245.96 144.177 245.761 143.754C245.562 143.33 245.463 142.846 245.463 142.301C245.463 141.747 245.564 141.258 245.768 140.835C245.974 140.408 246.26 140.076 246.627 139.837C246.997 139.595 247.427 139.474 247.92 139.474C248.303 139.474 248.649 139.545 248.957 139.688C249.265 139.83 249.517 140.028 249.713 140.284C249.91 140.54 250.032 140.838 250.079 141.179H249.241C249.177 140.93 249.035 140.71 248.815 140.518C248.597 140.324 248.303 140.227 247.934 140.227C247.607 140.227 247.321 140.312 247.075 140.483C246.831 140.651 246.64 140.889 246.503 141.197C246.368 141.502 246.301 141.861 246.301 142.273C246.301 142.694 246.367 143.061 246.499 143.374C246.634 143.686 246.824 143.929 247.068 144.102C247.314 144.274 247.603 144.361 247.934 144.361C248.152 144.361 248.35 144.323 248.527 144.247C248.705 144.171 248.855 144.062 248.978 143.92C249.101 143.778 249.189 143.608 249.241 143.409H250.079C250.032 143.731 249.914 144.021 249.727 144.279C249.543 144.535 249.298 144.738 248.992 144.89C248.689 145.039 248.337 145.114 247.934 145.114Z" fill="white"/>
<path d="M199.835 169.222C198.9 169.222 198.097 168.985 197.426 168.511C196.759 168.034 196.246 167.347 195.886 166.449C195.53 165.547 195.352 164.462 195.352 163.193C195.356 161.924 195.536 160.845 195.892 159.955C196.252 159.061 196.765 158.379 197.432 157.909C198.102 157.439 198.903 157.205 199.835 157.205C200.767 157.205 201.568 157.439 202.239 157.909C202.909 158.379 203.422 159.061 203.778 159.955C204.138 160.848 204.318 161.928 204.318 163.193C204.318 164.466 204.138 165.553 203.778 166.455C203.422 167.352 202.909 168.038 202.239 168.511C201.572 168.985 200.771 169.222 199.835 169.222ZM199.835 167.443C200.563 167.443 201.136 167.085 201.557 166.369C201.981 165.65 202.193 164.591 202.193 163.193C202.193 162.269 202.097 161.492 201.903 160.864C201.71 160.235 201.438 159.761 201.085 159.443C200.733 159.121 200.316 158.96 199.835 158.96C199.112 158.96 198.54 159.32 198.119 160.04C197.699 160.756 197.487 161.807 197.483 163.193C197.479 164.121 197.572 164.902 197.761 165.534C197.955 166.167 198.227 166.644 198.58 166.966C198.932 167.284 199.35 167.443 199.835 167.443ZM212.428 166.818V166.205C212.428 165.754 212.522 165.339 212.712 164.96C212.905 164.581 213.185 164.277 213.553 164.045C213.92 163.814 214.365 163.699 214.888 163.699C215.426 163.699 215.876 163.814 216.24 164.045C216.604 164.273 216.878 164.576 217.064 164.955C217.253 165.333 217.348 165.75 217.348 166.205V166.818C217.348 167.269 217.253 167.684 217.064 168.062C216.875 168.441 216.596 168.746 216.229 168.977C215.865 169.208 215.418 169.324 214.888 169.324C214.357 169.324 213.909 169.208 213.541 168.977C213.174 168.746 212.895 168.441 212.706 168.062C212.52 167.684 212.428 167.269 212.428 166.818ZM213.911 166.205V166.818C213.911 167.117 213.982 167.392 214.126 167.642C214.27 167.892 214.524 168.017 214.888 168.017C215.255 168.017 215.507 167.894 215.643 167.648C215.784 167.398 215.854 167.121 215.854 166.818V166.205C215.854 165.902 215.787 165.625 215.655 165.375C215.522 165.121 215.267 164.994 214.888 164.994C214.532 164.994 214.28 165.121 214.132 165.375C213.984 165.625 213.911 165.902 213.911 166.205ZM206.513 160.159V159.545C206.513 159.091 206.609 158.674 206.803 158.295C206.996 157.917 207.276 157.614 207.643 157.386C208.011 157.155 208.456 157.04 208.979 157.04C209.513 157.04 209.962 157.155 210.325 157.386C210.693 157.614 210.969 157.917 211.155 158.295C211.34 158.674 211.433 159.091 211.433 159.545V160.159C211.433 160.614 211.339 161.03 211.149 161.409C210.964 161.784 210.687 162.085 210.32 162.312C209.952 162.54 209.505 162.653 208.979 162.653C208.445 162.653 207.994 162.54 207.626 162.312C207.263 162.085 206.986 161.782 206.797 161.403C206.607 161.025 206.513 160.61 206.513 160.159ZM208.007 159.545V160.159C208.007 160.462 208.077 160.739 208.217 160.989C208.361 161.235 208.615 161.358 208.979 161.358C209.342 161.358 209.592 161.235 209.729 160.989C209.869 160.739 209.939 160.462 209.939 160.159V159.545C209.939 159.242 209.873 158.966 209.74 158.716C209.607 158.462 209.354 158.335 208.979 158.335C208.619 158.335 208.367 158.462 208.223 158.716C208.079 158.97 208.007 159.246 208.007 159.545ZM207.161 169L215.161 157.364H216.581L208.581 169H207.161Z" fill="white"/>
</svg>
