<svg width="14" height="14" viewBox="0 0 14 14" fill="none" xmlns="http://www.w3.org/2000/svg">
<path d="M11.876 0.625L0.625977 11.8757L2.12298 13.3727L13.373 2.12275L11.876 0.625ZM10.7525 8.5C11.048 8.5003 11.3405 8.55879 11.6133 8.67213C11.8862 8.78548 12.1341 8.95146 12.3428 9.1606C12.5515 9.36974 12.717 9.61794 12.8298 9.89104C12.9426 10.1641 13.0005 10.4568 13.0002 10.7523C12.9999 11.0477 12.9414 11.3402 12.8281 11.6131C12.7147 11.886 12.5488 12.1339 12.3396 12.3426C12.1305 12.5513 11.8823 12.7168 11.6092 12.8296C11.3361 12.9424 11.0435 13.0003 10.748 13C10.1512 12.9994 9.57918 12.7618 9.15765 12.3394C8.73611 11.917 8.49963 11.3445 8.50023 10.7477C8.50082 10.151 8.73845 9.57895 9.16083 9.15742C9.58321 8.73588 10.1557 8.4994 10.7525 8.5ZM10.7502 10C10.5513 10 10.3605 10.079 10.2199 10.2197C10.0792 10.3603 10.0002 10.5511 10.0002 10.75C10.0002 10.9489 10.0792 11.1397 10.2199 11.2803C10.3605 11.421 10.5513 11.5 10.7502 11.5C10.9491 11.5 11.1399 11.421 11.2806 11.2803C11.4212 11.1397 11.5002 10.9489 11.5002 10.75C11.5002 10.5511 11.4212 10.3603 11.2806 10.2197C11.1399 10.079 10.9491 10 10.7502 10ZM3.25248 1C3.84921 1.0006 4.42127 1.23822 4.84281 1.6606C5.26434 2.08298 5.50082 2.65551 5.50023 3.25225C5.49963 3.84899 5.262 4.42105 4.83963 4.84258C4.41725 5.26412 3.84471 5.5006 3.24798 5.5C2.65124 5.4994 2.07918 5.26178 1.65765 4.8394C1.23611 4.41702 0.99963 3.84449 1.00023 3.24775C1.00082 2.65101 1.23845 2.07895 1.66083 1.65742C2.08321 1.23588 2.65574 0.999403 3.25248 1ZM3.25023 2.5C3.05131 2.5 2.86055 2.57902 2.7199 2.71967C2.57924 2.86032 2.50023 3.05109 2.50023 3.25C2.50023 3.44891 2.57924 3.63968 2.7199 3.78033C2.86055 3.92098 3.05131 4 3.25023 4C3.44914 4 3.6399 3.92098 3.78056 3.78033C3.92121 3.63968 4.00023 3.44891 4.00023 3.25C4.00023 3.05109 3.92121 2.86032 3.78056 2.71967C3.6399 2.57902 3.44914 2.5 3.25023 2.5Z" fill="#192A3E"/>
</svg>
